<?xml version="1.0" encoding="utf-8"?>
<!-- Generator: Adobe Illustrator 19.2.1, SVG Export Plug-In . SVG Version: 6.00 Build 0)  -->
<svg version="1.1" id="Layer_1" xmlns="http://www.w3.org/2000/svg" xmlns:xlink="http://www.w3.org/1999/xlink" x="0px" y="0px"
	 viewBox="0 0 282.1 50" style="enable-background:new 0 0 282.1 50;" xml:space="preserve">
<style type="text/css">
	.st0{fill:#595959;}
	.st1{fill:#0072BC;}
	.st2{fill:#FFFFFF;}
	.st3{fill:#231F20;}
	.st4{fill:#FACC63;}
	.st5{fill:#0B9E5C;}
	.st6{fill:#EFB780;}
	.st7{fill:#168FBA;}
	.st8{fill:#D93E26;}
	.st9{fill:#8C8C8C;}
</style>
<g>
	<g>
		<g>
			<path class="st0" d="M44.5,8.7h3.2l3.6,5.8l3.6-5.8h3.2v13.6h-3v-8.9l-3.8,5.8h-0.1l-3.8-5.8v8.8h-2.9V8.7z"/>
			<path class="st0" d="M61.1,8.1h3.1v2.6h-3.1V8.1z M61.2,11.9h3v10.4h-3C61.2,22.3,61.2,11.9,61.2,11.9z"/>
			<path class="st0" d="M77.7,8.6h2.8l5.8,13.7h-3.1l-1.2-3h-5.8l-1.2,3h-3.1L77.7,8.6z M80.9,16.6l-1.8-4.4l-1.8,4.4H80.9z"/>
			<path class="st0" d="M88.1,11.9h3V14c0.6-1.4,1.6-2.4,3.3-2.3v3.1h-0.2c-2,0-3.2,1.2-3.2,3.7v3.8h-3L88.1,11.9L88.1,11.9z"/>
			<path class="st0" d="M96.1,24.4l1-2.2c1.1,0.6,2.1,1,3.5,1c2,0,3-1,3-2.8v-0.5c-0.9,1-1.8,1.7-3.4,1.7c-2.4,0-4.6-1.8-4.6-4.9
				l0,0c0-3.1,2.2-4.9,4.6-4.9c1.6,0,2.6,0.7,3.4,1.6V12h3v8c0,1.9-0.4,3.2-1.3,4.1c-1,1-2.5,1.4-4.5,1.4
				C99,25.5,97.4,25.1,96.1,24.4z M103.6,16.6L103.6,16.6c0-1.5-1.1-2.4-2.5-2.4s-2.5,1-2.5,2.4l0,0c0,1.4,1.1,2.4,2.5,2.4
				S103.6,18,103.6,16.6z"/>
			<path class="st0" d="M108.7,17.2L108.7,17.2c0-3,2.1-5.5,5.2-5.5c3.5,0,5.1,2.7,5.1,5.7c0,0.2,0,0.5,0,0.8h-7.3
				c0.3,1.3,1.2,2,2.5,2c1,0,1.7-0.3,2.5-1.1l1.7,1.5c-1,1.2-2.4,1.9-4.3,1.9C111,22.6,108.7,20.4,108.7,17.2z M116,16.3
				c-0.2-1.3-1-2.2-2.2-2.2s-2,0.9-2.3,2.2H116z"/>
			<path class="st0" d="M121.1,11.9h3v1.5c0.7-0.9,1.6-1.7,3.1-1.7c2.2,0,3.5,1.5,3.5,3.9v6.7h-3v-5.8c0-1.4-0.7-2.1-1.8-2.1
				s-1.8,0.7-1.8,2.1v5.8h-3C121.1,22.3,121.1,11.9,121.1,11.9z"/>
			<path class="st0" d="M133.7,19.4v-4.9h-1.2V12h1.2V9.2h3v2.7h2.4v2.5h-2.4v4.5c0,0.7,0.3,1,1,1c0.5,0,1-0.1,1.5-0.4v2.4
				c-0.6,0.4-1.3,0.6-2.3,0.6C134.9,22.5,133.7,21.8,133.7,19.4z"/>
			<path class="st0" d="M141.3,8.1h3.1v2.6h-3.1V8.1z M141.4,11.9h3v10.4h-3V11.9z"/>
			<path class="st0" d="M147.2,11.9h3v1.5c0.7-0.9,1.6-1.7,3.1-1.7c2.2,0,3.5,1.5,3.5,3.9v6.7h-3v-5.8c0-1.4-0.7-2.1-1.8-2.1
				s-1.8,0.7-1.8,2.1v5.8h-3V11.9z"/>
			<path class="st0" d="M158.6,19.3L158.6,19.3c0-2.3,1.7-3.4,4.2-3.4c1,0,1.8,0.2,2.5,0.4v-0.2c0-1.2-0.8-1.9-2.2-1.9
				c-1.1,0-1.9,0.2-2.9,0.6l-0.7-2.3c1.1-0.5,2.3-0.8,4-0.8c1.6,0,2.8,0.4,3.5,1.2c0.8,0.8,1.1,1.9,1.1,3.3v6h-2.9v-1.1
				c-0.7,0.8-1.7,1.3-3.1,1.3C160.3,22.5,158.6,21.4,158.6,19.3z M165.4,18.7v-0.5c-0.5-0.2-1.2-0.4-1.9-0.4c-1.3,0-2,0.5-2,1.4l0,0
				c0,0.8,0.7,1.3,1.6,1.3C164.5,20.5,165.4,19.7,165.4,18.7z"/>
		</g>
	</g>
	<g>
		<g>
			<path class="st1" d="M44.6,32.1H50c3.2,0,5.2,1.8,5.2,4.5l0,0c0,3.1-2.4,4.6-5.4,4.6H47v4.4h-2.4V32.1z M49.8,39.2
				c1.8,0,2.9-1,2.9-2.4l0,0c0-1.6-1.1-2.4-2.9-2.4H47v4.9L49.8,39.2L49.8,39.2z"/>
			<path class="st1" d="M57.3,35.4h2.4v2.3c0.6-1.5,1.8-2.6,3.6-2.5v2.5h-0.1c-2.1,0-3.5,1.3-3.5,4.1v3.9h-2.4V35.4z"/>
			<path class="st1" d="M64.8,40.6L64.8,40.6c0-3,2.1-5.4,5-5.4c3.3,0,4.9,2.6,4.9,5.5c0,0.2,0,0.4,0,0.7h-7.5
				c0.3,1.7,1.4,2.6,3,2.6c1.1,0,2-0.4,2.8-1.2l1.4,1.2c-1,1.2-2.3,1.9-4.2,1.9C67.1,45.9,64.8,43.8,64.8,40.6z M72.4,39.8
				c-0.2-1.5-1-2.7-2.6-2.7c-1.4,0-2.4,1.1-2.7,2.7H72.4z"/>
			<path class="st1" d="M76.3,44.3l1.1-1.6c1.1,0.8,2.3,1.3,3.4,1.3c1,0,1.6-0.4,1.6-1.1l0,0c0-0.8-1.1-1.1-2.3-1.4
				c-1.5-0.4-3.2-1-3.2-3l0,0c0-1.9,1.6-3.1,3.7-3.1c1.3,0,2.7,0.4,3.8,1.2l-0.9,1.7c-1-0.6-2-1-2.9-1s-1.4,0.4-1.4,1l0,0
				c0,0.7,1.1,1,2.3,1.4c1.5,0.5,3.2,1.1,3.2,3l0,0c0,2.2-1.7,3.2-3.8,3.2C79.2,45.9,77.6,45.4,76.3,44.3z"/>
			<path class="st1" d="M86.9,31.6h2.5v2.2h-2.5V31.6z M87,35.4h2.4v10.3H87V35.4z"/>
			<path class="st1" d="M91.9,40.6L91.9,40.6c0-3.4,2.3-5.4,4.8-5.4c1.7,0,2.8,0.9,3.5,1.8v-5.5h2.4v14.2h-2.4V44
				c-0.8,1.1-1.8,1.9-3.5,1.9C94.2,45.9,91.9,44,91.9,40.6z M100.2,40.6L100.2,40.6c0-2-1.4-3.3-3-3.3s-3,1.2-3,3.3l0,0
				c0,2,1.4,3.3,3,3.3C98.8,43.9,100.2,42.5,100.2,40.6z"/>
			<path class="st1" d="M104.9,40.6L104.9,40.6c0-3,2.1-5.4,5-5.4c3.3,0,4.9,2.6,4.9,5.5c0,0.2,0,0.4,0,0.7h-7.5
				c0.3,1.7,1.4,2.6,3,2.6c1.1,0,2-0.4,2.8-1.2l1.4,1.2c-1,1.2-2.3,1.9-4.2,1.9C107.1,45.9,104.9,43.8,104.9,40.6z M112.5,39.8
				c-0.2-1.5-1-2.7-2.6-2.7c-1.4,0-2.4,1.1-2.7,2.7H112.5z"/>
			<path class="st1" d="M117.2,35.4h2.4V37c0.7-1,1.6-1.8,3.2-1.8c2.3,0,3.7,1.6,3.7,3.9v6.5H124v-5.8c0-1.6-0.8-2.5-2.2-2.5
				c-1.4,0-2.3,1-2.3,2.5v5.8h-2.4L117.2,35.4L117.2,35.4z"/>
			<path class="st1" d="M128.7,40.6L128.7,40.6c0-3,2.3-5.4,5.3-5.4c1.9,0,3.1,0.7,4.1,1.8l-1.5,1.6c-0.7-0.8-1.5-1.3-2.7-1.3
				c-1.7,0-3,1.5-3,3.3l0,0c0,1.8,1.3,3.3,3.1,3.3c1.1,0,1.9-0.5,2.7-1.3l1.4,1.4c-1,1.1-2.2,1.9-4.2,1.9
				C130.9,45.9,128.7,43.5,128.7,40.6z"/>
			<path class="st1" d="M140.4,31.6h2.5v2.2h-2.5V31.6z M140.5,35.4h2.4v10.3h-2.4V35.4z"/>
			<path class="st1" d="M152.2,45.7v-1.3c-0.7,0.8-1.8,1.5-3.3,1.5c-1.9,0-3.7-1.1-3.7-3.2l0,0c0-2.3,1.8-3.4,4.2-3.4
				c1.2,0,2,0.2,2.8,0.4v-0.2c0-1.4-0.9-2.2-2.5-2.2c-1.1,0-2,0.3-2.9,0.6l-0.6-1.9c1.1-0.5,2.2-0.9,3.9-0.9c3,0,4.5,1.6,4.5,4.3
				v6.1h-2.4V45.7z M152.2,41.4c-0.6-0.2-1.4-0.4-2.4-0.4c-1.5,0-2.4,0.6-2.4,1.6l0,0c0,1,0.9,1.5,2,1.5c1.6,0,2.7-0.9,2.7-2.2
				L152.2,41.4L152.2,41.4z"/>
			<path class="st1" d="M162.6,40.6L162.6,40.6c0-3.4,2.3-5.4,4.8-5.4c1.7,0,2.8,0.9,3.5,1.8v-5.5h2.4v14.2h-2.4V44
				c-0.8,1.1-1.8,1.9-3.5,1.9C165,45.9,162.6,44,162.6,40.6z M170.9,40.6L170.9,40.6c0-2-1.4-3.3-3-3.3s-3,1.2-3,3.3l0,0
				c0,2,1.4,3.3,3,3.3C169.5,43.9,170.9,42.5,170.9,40.6z"/>
			<path class="st1" d="M175.6,40.6L175.6,40.6c0-3,2.1-5.4,5-5.4c3.3,0,4.9,2.6,4.9,5.5c0,0.2,0,0.4,0,0.7H178
				c0.3,1.7,1.4,2.6,3,2.6c1.1,0,2-0.4,2.8-1.2l1.4,1.2c-1,1.2-2.3,1.9-4.2,1.9C177.9,45.9,175.6,43.8,175.6,40.6z M183.2,39.8
				c-0.2-1.5-1-2.7-2.6-2.7c-1.4,0-2.4,1.1-2.7,2.7H183.2z"/>
			<path class="st1" d="M193.9,31.5h2.4v14.2h-2.4V31.5z"/>
			<path class="st1" d="M205.6,45.7v-1.3c-0.7,0.8-1.8,1.5-3.3,1.5c-1.9,0-3.7-1.1-3.7-3.2l0,0c0-2.3,1.8-3.4,4.2-3.4
				c1.2,0,2,0.2,2.8,0.4v-0.2c0-1.4-0.9-2.2-2.5-2.2c-1.1,0-2,0.3-2.9,0.6l-0.6-1.9c1.1-0.5,2.2-0.9,3.9-0.9c3,0,4.5,1.6,4.5,4.3
				v6.1h-2.4V45.7z M205.6,41.4c-0.6-0.2-1.4-0.4-2.4-0.4c-1.5,0-2.4,0.6-2.4,1.6l0,0c0,1,0.9,1.5,2,1.5c1.6,0,2.7-0.9,2.7-2.2
				L205.6,41.4L205.6,41.4z"/>
			<path class="st1" d="M216.8,32.1h2.2l7.3,9.4v-9.4h2.4v13.6h-2l-7.5-9.7v9.7h-2.4V32.1z"/>
			<path class="st1" d="M238.2,45.7v-1.3c-0.7,0.8-1.8,1.5-3.3,1.5c-1.9,0-3.7-1.1-3.7-3.2l0,0c0-2.3,1.8-3.4,4.2-3.4
				c1.2,0,2,0.2,2.8,0.4v-0.2c0-1.4-0.9-2.2-2.5-2.2c-1.1,0-2,0.3-2.9,0.6l-0.6-1.9c1.1-0.5,2.2-0.9,3.9-0.9c3,0,4.5,1.6,4.5,4.3
				v6.1h-2.4V45.7z M238.2,41.4c-0.6-0.2-1.4-0.4-2.4-0.4c-1.5,0-2.4,0.6-2.4,1.6l0,0c0,1,0.9,1.5,2,1.5c1.6,0,2.7-0.9,2.7-2.2
				L238.2,41.4L238.2,41.4z"/>
			<path class="st1" d="M242.8,40.6L242.8,40.6c0-3,2.3-5.4,5.3-5.4c1.9,0,3.1,0.7,4.1,1.8l-1.5,1.6c-0.7-0.8-1.5-1.3-2.7-1.3
				c-1.7,0-3,1.5-3,3.3l0,0c0,1.8,1.3,3.3,3.1,3.3c1.1,0,1.9-0.5,2.7-1.3l1.4,1.4c-1,1.1-2.2,1.9-4.2,1.9
				C245,45.9,242.8,43.5,242.8,40.6z"/>
			<path class="st1" d="M254.5,31.6h2.5v2.2h-2.5V31.6z M254.6,35.4h2.4v10.3h-2.4V35.4z"/>
			<path class="st1" d="M259.4,40.6L259.4,40.6c0-3,2.3-5.4,5.5-5.4c3.1,0,5.5,2.4,5.5,5.3l0,0c0,2.9-2.3,5.3-5.5,5.3
				C261.7,45.9,259.4,43.5,259.4,40.6z M268,40.6L268,40.6c0-1.8-1.3-3.3-3.1-3.3c-1.9,0-3.1,1.5-3.1,3.3l0,0c0,1.8,1.3,3.3,3.1,3.3
				C266.8,43.9,268,42.4,268,40.6z M266,30.9l2.1,1l-2.4,2.2H264L266,30.9z"/>
			<path class="st1" d="M272.8,35.4h2.4V37c0.7-1,1.6-1.8,3.2-1.8c2.3,0,3.7,1.6,3.7,3.9v6.5h-2.4v-5.8c0-1.6-0.8-2.5-2.2-2.5
				c-1.4,0-2.3,1-2.3,2.5v5.8h-2.4L272.8,35.4L272.8,35.4z"/>
		</g>
	</g>
	<g>
		<path class="st2" d="M15.8,44.3c-7.1,0-12.6-7.8-12.6-16.9h25.2C28.4,36.6,22.9,44.3,15.8,44.3"/>
		<path class="st3" d="M18.5,6.3h0.2c0,0-0.1-0.9-1.8-0.8h-0.4L16.3,6l1.1-0.1C17.5,5.9,18.3,5.8,18.5,6.3"/>
		<path class="st3" d="M16.7,6.9L17,6.6c0,0,0,0,0.1,0v0.1c0,0.2,0.1,0.3,0.3,0.4h0.3C17.9,7,18,6.9,18,6.7V6.6
			c0.2,0,0.3,0.1,0.4,0.3h0.4c0,0-0.2-0.9-1.8-0.6l-0.4,0.6C16.4,6.9,16.7,6.9,16.7,6.9"/>
		<path class="st3" d="M13.1,6.9h0.4c0.1-0.2,0.3-0.2,0.4-0.3v0.1c0,0.2,0.1,0.3,0.3,0.4c0,0,0.2,0,0.3,0c0.2-0.1,0.3-0.2,0.3-0.4
			c0,0,0,0,0-0.1h0.1l0.2,0.2h0.4l-0.4-0.6C13.4,6,13.1,6.9,13.1,6.9"/>
		<path class="st3" d="M14.1,5.9L15.3,6l-0.1-0.5h-0.3C13.1,5.4,13,6.3,13,6.3h0.2C13.3,5.8,14.1,5.9,14.1,5.9"/>
		<path class="st3" d="M17.5,18.1C17.4,18,17.4,18,17.5,18.1C17.4,18.1,17.4,18.1,17.5,18.1"/>
		<path class="st3" d="M17.2,46.6c1.2-0.1,4.8-1.7,6.1-2.7c1.4,0.1,1.9-1,2.9-1.5c-0.1-0.1-0.2-0.1-0.3-0.2c0.6-0.3,0.9-0.8,1.5-1.3
			c-0.1-0.1-0.3-0.1-0.5-0.1c0.9-0.3,0.3-0.7,1.2-1.4c0,0-0.1-0.1-0.2-0.1c0.6-0.4,0.6-0.9,1.1-1.5c-0.1-0.1-0.3-0.1-0.5-0.1
			c1-0.3,0.9-1,1.6-1.7c0,0-0.2,0-0.4,0c0.6-0.5,0.4-1.1,0.8-1.7C30.3,34,30.1,34,29.9,34c0.9-0.4,0.8-1.2,1.3-2.1
			c-0.1-0.1-0.2-0.1-0.4-0.1c0.7-0.7-0.2-0.5,0.4-2c-0.2-0.1-0.4,0-0.6,0c0.7-0.6,0.6-1.4,1-2.3c-0.5-0.1-1.6,0.7-1.9,1.3v-0.1
			c0.1-0.2,0.2-0.5,0.6-0.7c1.1-0.8,0.7-1.5,1-2.6c-0.5,0-1.5,0.8-1.7,1.5c0-0.1,0-0.1,0-0.2c0.2-0.3,0.2-0.6,0.8-1
			c1-0.5,0.7-1.5,1-2.5c-0.1,0-0.3,0-0.5,0.1c0.2-0.7-0.2-1.2-0.1-2c-0.5,0-1.2,1-1.3,1.6c0-0.1-0.1-0.2-0.2-0.3
			c0.1-0.3,0.1-0.6,0.6-0.9c0.9-1.1,0.1-1.7,0.3-2.8c-0.1,0-0.2,0-0.3,0.1c0-0.5-0.4-0.9-0.5-1.6c-0.5,0.1-1,1.1-1,1.7
			c-0.1-0.1-0.2-0.2-0.2-0.3c0.1-0.2,0.1-0.6,0.5-0.9c0.5-1.1,0-1.6-0.1-2.6c-0.2,0-0.3,0.1-0.5,0.2c0-0.7-0.4-1-0.6-1.8
			c-0.3,0.1-0.7,0.5-0.8,1c0-0.2,0-0.5,0.1-0.7c0-1.4-0.5-1.5-1-2.6c-0.2,0.1-0.3,0.4-0.4,0.8c-0.2-0.9-0.5-1.2-1-2
			c-0.3,0.3-0.5,1.2-0.4,1.8c-0.1-0.2-0.1-0.5,0-0.9C23.9,10,23.3,9.7,22.8,9c0.3,0,0.5-0.1,0.9-0.3c0,0-0.5,0-0.7-0.1
			c-0.3-0.1-0.5-0.4-0.7-0.6c-0.3-0.1-0.6,0-1.1-0.3l2.7-0.6l-2.7-0.5c0,0,0.1-0.2,0.5-0.2c0.2,0,0.6,0,0.8-0.3
			C22.6,6,23,5.6,23.7,5.6c-0.6-0.4-0.9-0.2-1.5,0c-0.4,0.2-0.6,0-1.2,0.1l2.2-1.4l-2.7,0.6c0.4-0.7,0.8-0.3,1.1-1.1
			c0.1-0.2,0.4-0.5,0.8-0.7c-0.5-0.1-1,0.2-1.6,0.7c-0.2,0.1-0.7,0.3-0.9,0.3l1.5-2.3c0,0-1.6,1.1-2.3,1.5l0,0
			c0.1-0.6,0.5-0.5,0.6-1.2c0-0.2,0-0.8,0.5-1.3c-0.6,0.1-0.9,0.6-1.1,1.3c-0.1,0.3-0.5,0.4-0.7,0.7l0.5-2.7l-1.5,2.3
			c0,0-0.1-0.1-0.1-0.3c0.2-0.5,0.2-0.7,0.2-0.9c-0.2-0.3-0.3-0.8,0-1.4C16.6,0.3,17,1,16.8,1.6c-0.1,0.2-0.3,0.5-0.4,0.7L15.9,0
			l-0.5,2.6c-0.3-0.4-0.1-0.6-0.3-1c-0.2-0.5-0.7-0.4-0.7-1.5c-0.2,0.4-0.4,0.6,0.1,1.7c0.1,0.1-0.1,0.6,0,1L13,0.6l0.5,2.7
			c-0.3,0-0.4-0.6-0.7-0.8c-0.4-0.3-0.9-0.2-1.2-1.1c-0.1,0.6,0.1,1,0.7,1.5c0.2,0.3,0.3,0.7,0.4,1l-2.3-1.5l1.5,2.3
			c-0.5,0.1-0.5-0.6-1.5-0.6c-0.6,0-1-0.6-1-0.5c0.3,1.2,1.1,0.8,1.4,1.3c0.1,0.1,0.4,0.4,0.5,0.6L8.8,4.7L11,6.2
			c-0.4,0.2-0.9-0.3-1.4,0c-0.9,0.4-1.3,0-1.4,0c0.5,0.7,0.9,0.5,1.4,0.6c0.4,0,0.7,0.2,1.1,0.4L8.2,7.6l2.7,0.5
			C10.5,8.4,10,8.2,9.6,8.6C8.8,9.5,8,9,8.3,9.1C9,9.6,9.4,9.5,9.8,9.3C9.5,9.5,9.3,9.7,9.1,10C9,9.8,9,9.6,8.8,9.5
			c-0.5,0.7-1.1,0.8-1.4,1.8c0-0.3-0.1-0.5-0.3-0.6c-0.5,0.8-1,0.9-1.1,1.8c0-0.2-0.1-0.4-0.2-0.5c-0.4,1-1.2,1.3-1,2.6
			C5,15,5,15.2,4.9,15.4c-0.1-0.5-0.3-1.1-0.7-1.2c-0.3,0.6-0.7,1.1-0.7,1.7c-0.1-0.1-0.3-0.2-0.4-0.2c-0.1,1-0.9,1.4-0.1,2.6
			c0.4,0.4,0.4,0.7,0.4,1c-0.1,0-0.1,0.1-0.1,0.2c0.1-0.6-0.5-1.6-1-1.7c-0.1,0.8-0.4,1.1-0.4,1.7c-0.1-0.1-0.2-0.1-0.4-0.1
			C1.6,20.5,0.8,21,1.8,22c0.5,0.3,0.5,0.6,0.6,0.9C2.3,23,2.2,23,2.2,23.1c-0.1-0.7-0.7-1.6-1.2-1.6c0.1,1.2-0.5,1.1-0.1,1.9
			c-0.2-0.1-0.4-0.2-0.5-0.2c0.3,1,0,1.9,1,2.5C2,26,2,26.4,2.2,26.6C2,26.8,2,26.9,2,26.9c-0.2-0.6-1.2-1.5-1.7-1.5
			c0.3,0.9,0.1,1.8,0.6,2.3c-0.3-0.2-0.6-0.3-0.9-0.2c0.5,1,0.2,1.6,1.2,2.5c-0.3-0.2-0.6-0.2-0.8-0.1c0.3,0.7,0.2,1.2,0.4,1.8
			c-0.2,0-0.3,0-0.4,0.1c0.5,0.9,0.4,1.5,1.2,2c-0.2,0-0.4,0-0.5,0.1c0.4,0.6,0.4,1.1,0.7,1.6c-0.1,0-0.2,0-0.3,0.1
			c0.6,0.6,0.7,1.3,1.4,1.7c-0.2,0-0.4,0-0.5,0.1c0.5,0.5,0.7,1,1.2,1.4c-0.2,0-0.4,0.1-0.5,0.2c0.8,0.5,0.8,1.1,1.6,1.4
			c-0.2,0-0.4,0.1-0.5,0.1c0.9,0.8,0.3,1,1.2,1.4c-0.1,0-0.1,0.1-0.2,0.1c1,0.5,1.1,1.8,3.3,1.7l0,0c1,1.1,3.9,2.5,5.9,2.7
			L17.2,46.6z M30.5,30.5c-0.2,0.7,0,1.1-0.6,1.6c-0.4,0.1-0.4,0.2-0.5,0.3c0.1-0.3,0.2-0.5,0.3-0.7c-0.2,0.1-0.3,0.2-0.4,0.4
			C29.2,32,29,32,28.8,31.6c-0.3-0.6-0.1-0.8-0.2-1.4c0.3,0.5,0.8,1,0.8,1.3C29.6,31.1,30.3,30.4,30.5,30.5 M29.4,30.8
			c0.1-0.2,0.3-0.4,0.6-0.5c-0.3,0.2-0.5,0.5-0.6,0.8C29.4,31,29.4,30.9,29.4,30.8 M30.8,28.2c-0.3,0.7-0.1,1.1-0.8,1.7
			c-0.4,0.2-0.4,0.3-0.6,0.4c0.1-0.3,0.2-0.5,0.4-0.7c-0.2,0.1-0.4,0.3-0.5,0.5c-0.1-0.1-0.3,0-0.5-0.4c-0.3-0.5,0-0.8-0.1-1.3
			c0.3,0.4,0.7,0.8,0.7,1.1C29.8,29,30.6,28.2,30.8,28.2 M29.6,27.6c0.1-0.5,0.7-1.4,1-1.5c-0.2,0.8,0.1,1.1-0.5,1.7
			c-0.4,0.2-0.4,0.4-0.5,0.5c0-0.3,0.1-0.5,0.3-0.8c-0.2,0.2-0.3,0.4-0.4,0.6c-0.1,0-0.3,0-0.6-0.3c-0.3-0.4-0.2-0.7-0.3-1.2
			C29,26.9,29.5,27.2,29.6,27.6 M28.8,26c0.3,0.3,0.4,0.4,0.5,0.7c-0.1-0.2-0.3-0.3-0.5-0.4C28.8,26.1,28.8,26.1,28.8,26 M30.6,23.9
			c-0.2,0.7,0.1,1-0.5,1.7c-0.4,0.2-0.4,0.3-0.5,0.5c0-0.3,0.1-0.5,0.3-0.7c-0.2,0.1-0.3,0.3-0.4,0.5c-0.1-0.1-0.3,0-0.6-0.3
			c-0.4-0.4-0.2-0.7-0.3-1.2c0.4,0.4,0.9,0.7,1,1C29.7,24.7,30.4,23.9,30.6,23.9 M29.5,23.7c0-0.5,0.5-1.4,0.8-1.5
			c-0.1,0.7,0.3,1-0.2,1.7c-0.4,0.3-0.3,0.4-0.4,0.5c0-0.3,0-0.5,0.1-0.7c-0.2,0.2-0.3,0.3-0.3,0.6c-0.1-0.1-0.3,0.1-0.6-0.3
			c-0.5-0.4-0.3-0.7-0.5-1.1C28.8,23.2,29.4,23.4,29.5,23.7 M28,33.5c0-0.1,0.1-0.3,0.1-0.4v0.1c0.3,0.9,0.5,0.9,0.4,1.5
			c0,0,0,0,0,0.1C28.6,34.4,28.2,33.9,28,33.5 M26.9,37.9c0-0.3-0.2-0.6-0.3-0.9c0-0.1,0.1-0.2,0.1-0.3C26.8,37.4,27,37.5,26.9,37.9
			 M27.8,37.7c-0.4,0.1-0.7,0.3-0.9,0.5v-0.1C27.1,38,27.3,37.8,27.8,37.7 M26.1,36.5c0,0-2.2,0.4-5-1.5c0.2-0.3,0.3-1,0.2-1.4
			c-0.1-0.4-0.1-0.1-0.2,0.2c-0.3,0.6-0.5,0.7-0.7,0.9c-0.8-0.8-0.9-0.8-2-1.4c-0.8-0.4-0.8-0.7-1.2-0.9c-0.7,0.3-1.9,1-2.4,0.6
			c-0.5-0.2,0.5-0.5,1-1.2c0.4-0.5,0.8-0.6,1.4-0.5c1.1,0.2,1.7,0.7,3.4,1.4c2,0.1,3.6,0.8,5.6,1.2c0.3,0.1,0.9,0.1,1.1,0.2
			C26.9,34.8,26.7,35.4,26.1,36.5 M17.1,34.2c0.6,0.7,1.2,0.8,1.5,1.6C18.5,36,18.2,36.1,18,36c-0.9-1-1.8-1.2-1.4-1.7
			c-0.2,0-0.3,0.2-0.3,0.4c0.2,0.7,1,1,1.2,1.6c-0.1,0.5-1.1,0.1-1.6-1.2V35c-0.2,0.4-0.3,0.5,0.3,1.3c0.1,0.3,0.2,0.6-0.3,0.6
			c0.1,0.1-0.2,0-0.1,0H16c0,0,0,0-0.1-0.1c0.2-1.3-0.9-1-0.9-1c0.2-0.5-0.5-0.9-1.1-0.6c0.1-0.3-0.6-0.9-1.6-0.5
			c-0.1-0.3-1-0.7-1.8,0.3c-1.5,0.1-3.9,1.4-5.3,0.8c-0.1,0.1-0.9-2.4-1-2.4c1.7-0.2,5.6-0.4,6.9-1c1.1-0.7,3.1-1,3.6-0.8
			c0,0.4-0.9,1.1-0.4,1.4c0.7,0.7,2,0.4,2.8-0.1c0.8,0.9,2.2,1,2.8,2.2l-0.2,0.4c-0.3,0.2-0.3,0.2-0.6-0.3c-0.8-1.1-1.6-0.8-1.7-1.6
			C16.9,33.7,17.1,34.1,17.1,34.2 M13.2,36.5c-0.3,0.1,0.1-0.2,0.2-0.2l0.1-0.2c0.3-0.2,0.6-0.6,0.8-0.1c0.1,0.3-0.9,0.9-1,0.9
			C13.2,37,13.1,37,13,36.8C12.9,36.7,13,36.5,13.2,36.5 M12.3,36.4c-0.2,0-0.3,0.1-0.4-0.1c-0.1-0.2,0.2-0.5,0.4-0.7
			c0.1-0.1,0.2-0.1,0.2-0.1l0.2-0.2c0.4-0.1,0.3,0,0.4,0.2C13.1,35.6,12.5,36.4,12.3,36.4 M14.7,36.5c0,0,0.4-0.4,0.6,0.2
			c0.1,0.2-0.4,0.5-0.8,0.6C14.3,37.2,13.8,37.2,14.7,36.5 M11.3,35.7c-0.2,0.1-0.4-0.2-0.3-0.3l0.2-0.3c0.3-0.1,0.4-0.2,0.5-0.1
			C11.8,35.1,11.4,35.6,11.3,35.7 M4.8,36.7c-0.1,0.1-0.1,0.2-0.1,0.3c0-0.1,0.1-0.2,0.1-0.4C4.7,36.7,4.8,36.7,4.8,36.7 M4.5,37.9
			c-0.1-0.1-0.3-0.3-0.6-0.4c0.2,0.1,0.4,0.2,0.5,0.2C4.5,37.8,4.5,37.8,4.5,37.9 M3,34.6C3,34.5,3,34.5,3,34.6
			c-0.1-0.7,0.1-0.7,0.4-1.6c0,0.1,0.1,0.2,0.1,0.3C3.2,33.7,3,34.2,3,34.6 M3.2,22.4c-0.1,0.1-0.3,0.1-0.4,0.2
			c0.1-0.1,0.3-0.2,0.5-0.4C3.2,22.3,3.2,22.3,3.2,22.4 M3.3,27.6h11.8V31c-0.5-0.1-1.5-0.1-2.3,0c-2.2,0.4-1.5,1.5-9,1.6
			C3.2,30.4,3.3,27.6,3.3,27.6 M10.6,10.3c0.1-0.1,0.2-0.1,0.3-0.6c0.3-0.9,0.8-0.8,1.5-1.3c0.2,0.3-0.6,1.3-1.1,1.7
			c0.3,0,0.7,0.3,1.2,0.5c-0.5,0.1-0.7,0.4-1.3,0.2c-0.4-0.1-0.4-0.3-0.4-0.4c0.2-0.1,0.3-0.3,0.4-0.6
			C11.1,10.1,10.8,10.2,10.6,10.3 M19.7,10c-0.2,0-0.4-0.1-0.6-0.1c0.3-0.1,0.6-0.2,0.8-0.3c0.5,0.1,0.9,0.3,1,0.8
			c-0.4-0.1-0.5,0.2-1.2,0.3c-0.6,0.1-0.9-0.2-1.4-0.3c-0.2-0.1-0.2-0.2-0.2-0.3c0.3,0.1,0.5,0.1,0.8,0v0.1
			C19.1,10.1,19.4,10.1,19.7,10 M17.8,9.3c0.3,0,0.5,0,0.8-0.2c-0.2,0-0.4,0-0.6,0c0.4-0.2,0.6-0.5,1.1-0.5c0.7,0,0.7,0.4,1.1,0.2
			C20.2,9.2,18.2,10,17.8,9.3 M16.8,9.2c0.3,0.1,0.6,0.6,1,1c-0.5-0.2-0.8,0-1.2-0.4c-0.3-0.3-0.3-0.4-0.3-0.6
			c0.2-0.1,0.3-0.2,0.5-0.4C16.6,8.9,16.3,9,16.1,9c0.1-0.1,0.2,0,0.4-0.5c0.6-0.6,0.9-0.3,1.6-0.4C18.1,8.5,17.3,9.1,16.8,9.2
			 M15.3,9.3c0.3,0,0.7,0.5,1.1,0.8c-0.5,0-0.7,0.2-1.2-0.1c-0.4-0.2-0.3-0.4-0.4-0.5C15,9.4,15.1,9.2,15.3,9
			c-0.2,0.2-0.4,0.3-0.7,0.3c0.1-0.1,0.2-0.1,0.4-0.5c0.5-0.7,0.8-0.4,1.4-0.7C16.4,8.4,15.8,9.1,15.3,9.3 M14.2,10.2
			c-0.5,0-0.7,0.3-1.2,0c-0.4-0.2-0.3-0.3-0.4-0.4c0.2-0.1,0.3-0.3,0.4-0.5c-0.2,0.2-0.4,0.3-0.6,0.4c0.1-0.1,0.2-0.1,0.4-0.6
			c0.5-0.7,0.9-0.5,1.5-0.9c0,0.2-0.7,1.1-1.2,1.3C13.4,9.6,13.8,10,14.2,10.2 M22.8,12.7c0.1,0,0.1,0,0.2,0
			C22.9,12.7,22.9,12.8,22.8,12.7C22.8,12.8,22.8,12.7,22.8,12.7 M27.1,18.7c0.1,0.1,0.2,0.1,0.3,0.2c-0.1,0-0.2-0.1-0.3-0.1
			C27.2,18.8,27.2,18.8,27.1,18.7 M20.9,32c-1.2-0.2-2.7-1.5-4.4-1.4v-3h11.8c0,0.4-0.2,3.5-0.8,5.7C25,33.2,22.8,31.9,20.9,32
			 M28.3,22.3c0.2,0.2,0.4,0.3,0.5,0.4c-0.1-0.1-0.3-0.2-0.4-0.2C28.3,22.3,28.3,22.3,28.3,22.3 M29.7,20c0,0.7,0.3,1-0.2,1.7
			c-0.4,0.2-0.3,0.4-0.4,0.5c0-0.3,0-0.5,0.1-0.7c-0.1,0.2-0.2,0.3-0.3,0.5c-0.1,0-0.3,0.1-0.6-0.2c-0.5-0.4-0.3-0.7-0.5-1.2
			c0.4,0.3,1,0.6,1.1,0.9C29,21,29.4,20.1,29.7,20 M28.5,19.9c-0.1-0.5,0.2-1.4,0.5-1.5c0.1,0.7,0.5,1,0.2,1.7
			c-0.3,0.3-0.2,0.4-0.3,0.5c0-0.3-0.1-0.5,0-0.7c-0.1,0.2-0.2,0.4-0.2,0.6c-0.2,0-0.3,0.1-0.7-0.2c-0.5-0.3-0.4-0.6-0.8-1.1
			C27.7,19.5,28.3,19.7,28.5,19.9 M28,16.3c0.1,0.7,0.5,1,0.1,1.7c-0.3,0.3-0.3,0.4-0.3,0.5c-0.1-0.2-0.1-0.5,0-0.7
			c-0.1,0.2-0.2,0.4-0.2,0.6c-0.1,0-0.3,0.1-0.7-0.2c-0.5-0.3-0.4-0.6-0.8-1.1c0.5,0.3,1.1,0.5,1.3,0.8C27.4,17.3,27.7,16.4,28,16.3
			 M27,14.8c0.2,0.7,0.7,0.9,0.5,1.7c-0.3,0.3-0.2,0.4-0.2,0.6c-0.1-0.2-0.2-0.5-0.2-0.7C27,16.5,27,16.7,27,16.9
			c-0.1,0-0.3,0.1-0.7-0.1c-0.6-0.3-0.6-0.6-1-1c0.5,0.2,1.2,0.3,1.4,0.6C26.6,15.9,26.7,14.9,27,14.8 M26.5,15.9
			c-0.1-0.1-0.2-0.2-0.4-0.3C26.2,15.7,26.3,15.7,26.5,15.9C26.4,15.9,26.4,15.9,26.5,15.9 M25.6,12.8c0.3,0.7,0.6,0.6,0.5,1.6
			c-0.2,0.5-0.1,0.5,0,0.7c-0.1-0.2-0.2-0.5-0.3-0.7c0,0.2,0,0.5,0,0.7c-0.1,0-0.2,0.2-0.6,0.1c-0.5-0.1-0.6-0.5-1-0.8
			c0.5,0.1,1.1,0,1.3,0.2C25.4,14,25.4,13,25.6,12.8 M24.4,13.1c-0.3-0.4-0.3-1.4-0.2-1.6c0.4,0.7,0.6,0.5,0.7,1.4
			c-0.1,0.5,0,0.5,0,0.7c-0.2-0.2-0.3-0.4-0.3-0.7c0,0.3,0,0.5,0.1,0.7c-0.1,0-0.2,0.2-0.6,0.2c-0.6,0-0.6-0.4-1.1-0.6
			C23.6,13.1,24.1,13,24.4,13.1 M22.5,10c0.4,0.6,0.9,0.6,0.9,1.5c-0.1,0.5,0,0.5,0,0.7c-0.2-0.2-0.3-0.4-0.4-0.7
			c0,0.2,0,0.5,0.1,0.7c-0.1,0-0.2,0.2-0.6,0.2c-0.6,0-0.6-0.3-1.1-0.6c0.5,0,1.1-0.2,1.4-0.1C22.6,11.3,22.3,10.2,22.5,10
			 M22.2,9.5c0,0.1,0,0.2-0.1,0.3c-0.1-0.1-0.2-0.2-0.3-0.3C22,9.4,22.1,9.5,22.2,9.5 M22,10.1c-0.1,0.5,0.1,0.5,0.2,0.7
			c-0.1,0-0.1,0-0.1,0c-0.2-0.2-0.4-0.4-0.4-0.5c0.1,0.4,0.1,0.5,0.2,0.7c-0.1,0.1-0.2,0.1-0.4,0.2c-0.7,0.1-0.8-0.1-1.1-0.3
			c0.5-0.2,0.7-0.4,1.1-0.3v-0.1l0,0l0,0c-0.1-0.2-0.2-0.3-0.4-0.5c-0.2-0.4-0.4-0.8-0.3-0.9C21.3,9.5,21.8,9.3,22,10.1 M21.6,8.9
			H21c-0.1-0.1-0.1-0.1-0.2-0.2C21.1,8.7,21.5,8.8,21.6,8.9 M11.4,8.4C11.9,8.2,12,8,12,8l-1.6-0.4l1.7-0.3c0,0,0-0.1-1-0.4
			c-0.2-0.1,0-0.3-0.8-0.4c0.3-0.1,0.2,0.1,0.8,0.2c0.4,0,0.7,0.1,1.2,0c0,0-1-0.8-1.7-1.1c0,0,1.1,0.3,2,0.5c0-0.1-0.7-0.6-1.1-1.2
			c-0.1-0.1-0.1-0.2-0.2-0.3c0.5,0.2,0.5,0.3,0.7,0.5c0.3,0.1,0.9,0.4,1.1,0.4c-0.5-0.7-1.2-1.7-1.2-1.7L13.6,5
			C13.4,4.3,13,4,13,3.8c-0.2-0.7-0.1-0.7-0.3-0.9C13.2,3.6,13.3,4,14,4.4l-0.3-2.1l1,1.9c0.1-0.3,0-0.8,0-1c0.1-1,0.1-0.4,0-1.1
			c0.1,0.4,0.1,0.3,0.2,0.8c0.2,0.4,0.3,0.7,0.6,1.1l0.4-2l0.3,2c0.2-0.4,0.2-0.6,0.4-1C16.9,2.5,17,2,17,2c-0.2,0.8-0.1,0.5-0.2,1
			c0,0.4,0,1,0.1,1.1l1.2-1.8l-0.5,2.1c0.1,0,0.6-0.7,1.1-1c0.1-0.1,0.4-0.5,0.4-0.5c-0.3,0.4-0.4,0.6-0.5,0.9
			c-0.2,0.5-0.2,0.3-0.4,1L20,3.6l-1.2,1.7c0,0,0.1,0,0.9-0.4c0.5-0.1,0.9-0.3,1.1-0.5c-0.6,0.5-0.8,0.5-1.6,1.5l2-0.4
			c0,0-1.6,1-1.7,1c0.1,0.1,0.8-0.1,1.3,0c0.4,0,0.4,0,0.9,0c-0.5,0.2-0.7,0.1-1.2,0.3c-0.2,0.1-0.7,0.3-0.8,0.4l2,0.4
			c0,0-2,0.5-2.3,0.6c-0.1,0-0.2,0-0.4,0c-0.1,0-0.2,0-0.3,0c0.1-0.1,0.1-0.3,0.1-0.4c-0.7,0.2-1.3,0-1.8,0.1c0.1-0.2,0.1-0.3,0-0.4
			c-0.8,0.4-1.5,0.2-2.2,0.7c0-0.2,0-0.4-0.1-0.5c-0.7,0.4-1.3,0.1-1.8,0.6c0-0.2,0-0.3,0-0.4c-0.7,0.3-1.3,0.4-1.9,0.9
			c-0.1,0-0.3,0-0.5-0.1V8.6c0,0-0.1,0-0.1,0.1c-0.1,0-0.2,0-0.4,0C10.7,8.6,11.1,8.6,11.4,8.4 M9.1,10.7c0.2-0.8,0.6-0.7,1.2-1.2
			c0.1,0.2-0.3,1.2-0.6,1.5c0.3-0.1,0.8,0.2,1.4,0.3c-0.5,0.1-0.6,0.4-1.2,0.3c-0.4,0-0.5-0.2-0.6-0.3c0.1-0.2,0.2-0.4,0.2-0.6
			c-0.1,0.2-0.3,0.4-0.5,0.5C9,11.2,9.1,11.2,9.1,10.7 M10.1,10.9L10.1,10.9L10.1,10.9L10.1,10.9z M7.8,11.8
			c0.1-0.9,0.5-0.8,0.9-1.4c0.1,0.2-0.1,1.3-0.4,1.7c0.3-0.1,0.9,0,1.4,0.1c-0.5,0.2-0.5,0.5-1.1,0.6c-0.4,0-0.5-0.2-0.6-0.2
			c0.1-0.2,0.1-0.4,0.1-0.7c-0.1,0.2-0.2,0.5-0.4,0.7C7.8,12.3,7.9,12.2,7.8,11.8 M7.5,12.5c0,0.1-0.1,0.2-0.1,0.3l0,0
			C7.4,12.8,7.4,12.6,7.5,12.5 M6.4,13c0.1-0.9,0.3-0.8,0.7-1.5c0.2,0.2,0.1,1.2-0.2,1.7c0.3-0.2,0.8,0,1.3,0
			c-0.4,0.3-0.5,0.6-1.1,0.6c-0.4,0-0.5-0.1-0.6-0.1c0.1-0.2,0.1-0.4,0.1-0.7c-0.1,0.3-0.2,0.5-0.3,0.7C6.4,13.5,6.5,13.4,6.4,13
			 M5.8,12.9c0.2,0.2,0.2,1.2,0,1.7c0.2-0.2,0.8-0.1,1.3-0.2c-0.4,0.3-0.5,0.7-1,0.8c-0.4,0.1-0.5-0.1-0.6-0.1
			c0.1-0.2,0.1-0.5,0.1-0.7c0,0.2-0.1,0.5-0.3,0.7c0-0.2,0.1-0.2,0-0.7C5.2,13.6,5.4,13.6,5.8,12.9 M4.9,16c0.1-0.1,0.2-0.1,0.3-0.2
			C5,15.9,5,15.9,4.9,16L4.9,16 M4.4,14.9C4.6,15,4.7,16,4.5,16.5c0.2-0.2,0.9-0.4,1.4-0.6c-0.4,0.4-0.4,0.7-0.9,1
			C4.6,17.1,4.5,17,4.3,17c0-0.2,0-0.4-0.1-0.6c0,0.2-0.1,0.5-0.2,0.7c0-0.2,0.1-0.2-0.2-0.5C3.7,15.8,4.2,15.6,4.4,14.9 M3.2,18.1
			c-0.4-0.7,0.1-0.9,0.1-1.7c0.2,0.1,0.6,1,0.5,1.5c0.2-0.3,0.8-0.5,1.3-0.8c-0.3,0.5-0.2,0.8-0.7,1.1c-0.4,0.3-0.5,0.2-0.7,0.2
			c0-0.2-0.1-0.4-0.2-0.6c0.1,0.2,0,0.5,0,0.7C3.5,18.4,3.6,18.3,3.2,18.1 M4.3,18.7c0,0.1,0,0.1-0.1,0.2C4,19,3.8,19,3.6,19.1
			C3.8,19,4,18.9,4.3,18.7 M2.5,18.5C2.8,18.6,3,19.5,3,20c0.2-0.3,0.8-0.4,1.3-0.7C4,19.7,4,20,3.5,20.3c-0.4,0.3-0.5,0.1-0.6,0.2
			c0-0.2-0.1-0.4-0.2-0.6c0.1,0.2,0,0.5,0,0.7c0-0.1,0-0.2-0.3-0.5C2,19.4,2.4,19.2,2.5,18.5 M2,21.7C1.5,21,1.9,20.8,1.8,20
			c0.3,0,0.7,0.9,0.7,1.4c0.1-0.3,0.7-0.5,1.1-0.9c-0.2,0.5-0.1,0.8-0.5,1.2C2.8,22.1,2.7,22,2.6,22c0-0.2-0.2-0.4-0.3-0.5
			c0.1,0.2,0.1,0.5,0.1,0.7C2.3,22,2.4,21.9,2,21.7 M1.2,22.2c0.3,0.1,0.7,1,0.7,1.5c0.2-0.3,0.7-0.5,1.1-0.8
			c-0.1,0.4,0,0.7-0.4,1.1c-0.3,0.3-0.5,0.2-0.6,0.2c0-0.2-0.2-0.4-0.3-0.5c0.1,0.2,0.1,0.5,0.1,0.7c-0.1-0.2,0-0.2-0.4-0.5
			C1,23.1,1.3,22.9,1.2,22.2 M2,25.7c-0.1-0.2-0.2-0.4-0.4-0.5c0.1,0.2,0.2,0.5,0.3,0.7c-0.1-0.1-0.1-0.2-0.5-0.5
			c-0.6-0.6-0.4-0.8-0.5-1.5c0.3,0,0.9,0.8,1.1,1.2c0.1-0.3,0.6-0.6,0.9-1c-0.1,0.5,0.1,0.8-0.3,1.2C2.3,25.8,2.1,25.7,2,25.7
			 M2.7,25.9v0.3c-0.2,0.1-0.4,0.3-0.5,0.4C2.2,26.3,2.4,26.2,2.7,25.9 M0.8,26.1c0.2,0,0.9,0.8,1.1,1.3c0.1-0.3,0.6-0.6,0.9-0.9
			c-0.1,0.5,0.1,0.8-0.3,1.2C2.3,28,2.1,27.9,2,28c-0.1-0.2-0.2-0.4-0.4-0.5c0.1,0.2,0.2,0.5,0.3,0.7c-0.1-0.1-0.1-0.3-0.5-0.5
			C0.8,27,1,26.9,0.8,26.1 M1.9,28.8L1.9,28.8c-0.1-0.2-0.4-0.5-0.7-0.7C1.7,28.3,1.8,28.5,1.9,28.8 M0.8,28.2c0.2,0,1,0.7,1.2,1.1
			c0-0.3,0.5-0.7,0.7-1.1c0,0.5,0.2,0.8-0.1,1.3c-0.2,0.4-0.4,0.3-0.4,0.4c-0.1-0.2-0.3-0.4-0.5-0.5c0.2,0.2,0.3,0.5,0.4,0.7
			C2,30,2,29.9,1.6,29.7C0.4,28.8,1.5,30,0.8,28.2 M2.1,30.7c0,0,0,0.1,0,0.2c-0.1-0.3-0.4-0.5-0.7-0.7C1.7,30.3,1.9,30.5,2.1,30.7
			 M2.1,31.4c0-0.3,0.5-0.8,0.8-1.3c-0.1,0.6,0.1,0.8-0.2,1.3c-0.2,0.4-0.4,0.4-0.5,0.5c-0.1-0.2-0.2-0.3-0.4-0.4
			C1.9,31.7,2,32,2.1,32.2C2,32.1,2,32,1.6,31.9C1,31.4,1.3,31.2,1,30.5C1.2,30.4,1.9,31,2.1,31.4 M1.1,32.1C1.4,32,2.2,32.5,2.4,33
			c0-0.3,0.4-0.8,0.6-1.4c0,0.6,0.3,0.7,0.1,1.3c-0.1,0.5-0.3,0.5-0.4,0.6c-0.1-0.2-0.3-0.3-0.5-0.3c0.2,0.1,0.3,0.4,0.4,0.6
			c-0.1-0.1-0.1-0.2-0.6-0.2C1.3,33.1,1.5,32.7,1.1,32.1 M3.1,35.1c0-0.3,0.4-0.8,0.6-1.4c0,0.5,0.3,0.7,0.1,1.3
			c-0.1,0.4-0.3,0.4-0.4,0.5c-0.1-0.1-0.3-0.3-0.5-0.3c0.2,0.2,0.3,0.4,0.4,0.6c-0.1-0.1-0.1-0.2-0.6-0.2c-0.7-0.4-0.5-0.8-0.9-1.4
			C2.1,34.1,2.9,34.6,3.1,35.1 M2.3,35.8c0.2-0.1,1.2,0.3,1.5,0.7c-0.1-0.3,0.2-0.9,0.3-1.4c0.1,0.5,0.4,0.7,0.3,1.2
			c-0.1,0.4-0.2,0.5-0.3,0.6c-0.2-0.1-0.4-0.2-0.6-0.2C3.7,36.8,3.9,37,4,37.2C3.9,37.1,3.9,37,3.4,37C2.6,36.8,2.8,36.4,2.3,35.8
			 M3.2,37.7c0.2-0.1,1.2,0.3,1.5,0.7C4.6,38.1,4.9,37.5,5,37c0.1,0.5,0.4,0.7,0.3,1.2C5.2,38.6,5,38.7,5,38.8
			c-0.2-0.1-0.4-0.2-0.6-0.3c0.2,0.1,0.4,0.3,0.5,0.5c-0.2-0.1-0.2-0.2-0.6-0.2C3.5,38.6,3.7,38.2,3.2,37.7 M3.9,39.2
			c0.2-0.1,1.3,0.1,1.6,0.5c-0.1-0.3,0.1-0.8,0.1-1.3c0.2,0.5,0.5,0.6,0.5,1.1c0,0.4-0.2,0.5-0.2,0.6C5.7,40,5.5,40,5.3,39.9
			c0.2,0.1,0.4,0.2,0.6,0.4c-0.2,0-0.2-0.2-0.6-0.1C4.4,40.1,4.5,39.6,3.9,39.2 M6.2,40.7c0,0.1,0,0.2,0.1,0.2
			c-0.2-0.2-0.5-0.3-0.8-0.4C5.7,40.5,6,40.6,6.2,40.7 M4.9,40.8c0.2-0.1,1.3,0.2,1.7,0.6c-0.1-0.3,0.1-0.8,0.2-1.3
			c0.2,0.5,0.5,0.6,0.5,1.2c0,0.4-0.2,0.5-0.3,0.6c-0.2-0.1-0.4-0.2-0.6-0.2C6.6,41.8,6.8,42,7,42.1C6.8,42,6.8,41.9,6.3,42
			C5.4,41.7,5.4,41.3,4.9,40.8 M8.6,43.4c-0.2-0.1-0.3-0.3-0.7-0.2c-0.9-0.1-1.1-0.7-1.8-1c0.2-0.1,1.3,0.1,1.8,0.3
			c-0.2-0.3,0-0.8-0.1-1.3c0.3,0.4,0.6,0.5,0.7,1c0.1,0.4,0.1,0.7,0.2,1c-0.1-0.1-0.3-0.2-0.5-0.3C8.3,43.1,8.5,43.2,8.6,43.4
			 M7.5,42.1L7.5,42.1L7.5,42.1L7.5,42.1z M13.4,45.8c-2-0.6-3.7-1.5-4.1-2.2c-0.2-0.4-0.2-0.8-0.3-1.4l0,0c1.4,1.2,2.9,2.1,4.6,2.5
			h-0.1C12.8,45.3,13.1,45.6,13.4,45.8 M15.7,44.2c-5.4-0.1-8.7-4.5-9.9-6.7c-0.2-0.2,3.1-1.3,3.8-1.5l0.9-0.2
			c0,0.4,0.7,0.5,0.7,0.4c0.2,0.1-0.1,0.3,0.4,0.6c0.4,0.3,0.7,0.1,0.8,0c-0.3,0.3,0.7,0.8,1.2,0.4c-0.1,0.3,0.4,0.4,0.5,0.4
			c0.2,0.1,0.7,0.2,1,0v3c0.1,0.6,0.1,0.7,0.3,0.8c1.2,0.1,1-0.3,1.1-0.6c0-1.3-0.1-3.1-0.1-3.1c0.8-0.1,0.6-0.3,0.9-0.4
			c0.3,0.1,0.5,0,0.8-0.4c0.4,0,0.8-0.1,0.9-0.5c0.4,0.1,0.9-0.2,1.2-0.9c0.8,0.3,3.7,1.8,5.1,2.2C24.8,38.8,21.5,44.2,15.7,44.2
			 M25.1,41c0.1-0.1,0.3-0.1,0.5-0.1c-0.2,0.1-0.4,0.2-0.5,0.3C25.1,41.1,25.1,41.1,25.1,41 M23.8,42.4L23.8,42.4L23.8,42.4
			 M22.4,42.5c-0.1,0.5-0.1,0.9-0.2,1.2c-0.5,0.9-3,1.8-4.1,2.1c0.3-0.3,0.5-0.9,0.1-1.2h-0.1C19.6,44.2,21.1,43.5,22.4,42.5
			C22.4,42.4,22.4,42.4,22.4,42.5 M23.6,43.4c-0.4-0.1-0.7,0.1-0.9,0.3c0.2-0.2,0.3-0.5,0.5-0.6c-0.2,0.1-0.4,0.1-0.5,0.2
			c0-0.2,0-0.4,0-0.8c0.1-0.5,0.4-0.6,0.7-1.1c0,0.5,0.1,1.1-0.1,1.3c0.5-0.3,1.6-0.5,1.8-0.3C24.6,42.9,24.5,43.3,23.6,43.4
			 M25.1,42.2c-0.5-0.1-0.5,0.1-0.7,0.1c0.2-0.2,0.4-0.3,0.6-0.4c-0.2,0-0.5,0.1-0.6,0.2c0-0.1-0.2-0.2-0.2-0.6
			c0-0.6,0.3-0.7,0.5-1.2c0.1,0.5,0.3,1,0.2,1.3c0.4-0.4,1.5-0.7,1.7-0.6C25.9,41.6,26,42,25.1,42.2 M26.1,40.6
			c-0.5-0.1-0.5,0-0.7,0.1c0.2-0.2,0.4-0.3,0.6-0.4c-0.2,0-0.4,0.1-0.6,0.2c0-0.1-0.2-0.2-0.2-0.6c0-0.6,0.3-0.7,0.5-1.2
			c0,0.5,0.3,1.1,0.1,1.4c0.4-0.4,1.4-0.6,1.7-0.5C26.9,40,27,40.4,26.1,40.6 M27.1,39.2c-0.5,0-0.5,0.1-0.6,0.2
			c0.2-0.2,0.3-0.4,0.5-0.5c-0.2,0-0.4,0.1-0.6,0.3C26.3,39,26.1,39,26,38.6c-0.1-0.6,0.2-0.7,0.3-1.2c0.1,0.5,0.4,1.1,0.4,1.4
			c0.3-0.4,1.3-0.9,1.5-0.8C27.7,38.5,27.9,39,27.1,39.2 M28.1,37.3c-0.5,0-0.5,0.1-0.6,0.2c0.1-0.2,0.3-0.4,0.5-0.5
			c-0.2,0-0.4,0.1-0.6,0.3c-0.1-0.1-0.2-0.2-0.3-0.6c-0.1-0.6,0.2-0.7,0.3-1.3c0.1,0.5,0.4,1.1,0.3,1.4c0.3-0.4,1.3-0.8,1.5-0.7
			C28.8,36.7,28.9,37.1,28.1,37.3 M28.8,35.8c-0.4,0-0.4,0.1-0.6,0.2c0.1-0.2,0.3-0.4,0.4-0.6c-0.2,0.1-0.4,0.2-0.5,0.3
			c-0.1-0.1-0.3-0.1-0.4-0.6c-0.2-0.6,0.1-0.8,0.1-1.3c0.2,0.5,0.6,1.1,0.6,1.4c0.3-0.4,1.1-1,1.3-0.9C29.3,35,29.5,35.5,28.8,35.8
			 M29,34.4c0.1-0.1,0.2-0.1,0.3-0.2C29.2,34.3,29.1,34.3,29,34.4 M29.5,33.7c-0.4,0-0.4,0.2-0.6,0.2c0.1-0.2,0.3-0.4,0.4-0.6
			c-0.2,0.1-0.4,0.2-0.5,0.3c-0.1-0.1-0.3-0.1-0.4-0.5c-0.2-0.6,0-0.8,0.1-1.4c0.2,0.5,0.6,1.1,0.6,1.4c0.2-0.5,1-1,1.3-0.9
			C30.1,32.9,30.3,33.4,29.5,33.7"/>
		<path class="st4" d="M11.4,8.4C11.9,8.2,12.1,8,12.1,8l-1.7-0.4l1.7-0.4c0,0,0-0.1-1-0.4c-0.2-0.1,0-0.3-0.8-0.4
			c0.3-0.1,0.2,0.1,0.8,0.2c0.4,0,0.7,0.1,1.2,0c0,0-1-0.8-1.7-1.1c0,0,1.1,0.3,2,0.5c0-0.1-0.7-0.6-1.1-1.2
			c-0.1-0.1-0.1-0.2-0.2-0.3C11.8,4.7,11.8,4.8,12,5c0.3,0.1,0.9,0.4,1.1,0.4c-0.5-0.7-1.2-1.7-1.2-1.7l1.7,1.2
			C13.4,4.3,13,4,13,3.8c-0.2-0.7-0.1-0.7-0.3-0.9c0.5,0.7,0.6,1.1,1.4,1.5l-0.3-2.1l1,1.9c0.1-0.3,0-0.8,0-1c0.1-1,0.1-0.4,0-1.1
			c0.1,0.4,0.1,0.3,0.2,0.8c0.2,0.4,0.3,0.7,0.6,1.1L16,2l0.3,2c0.2-0.4,0.2-0.6,0.4-1C16.9,2.5,17,2,17,2c-0.2,0.8-0.1,0.5-0.2,1
			c0,0.4,0,1,0.1,1.1l1.2-1.8l-0.5,2.1c0.1,0,0.6-0.7,1.1-1c0.1-0.1,0.4-0.5,0.4-0.5c-0.3,0.4-0.4,0.6-0.5,0.9
			c-0.2,0.5-0.2,0.3-0.4,1L20,3.6l-1.2,1.7c0,0,0.1,0,0.9-0.4c0.5-0.1,0.9-0.3,1.1-0.5c-0.6,0.5-0.8,0.5-1.6,1.5l2-0.4
			c0,0-1.6,1-1.7,1c0.1,0.1,0.8-0.1,1.3,0c0.4,0,0.4,0,0.9,0c-0.5,0.2-0.7,0.1-1.2,0.3c-0.2,0.1-0.7,0.3-0.8,0.4l2,0.4
			c0,0-2,0.5-2.3,0.6c-0.1,0-0.2,0-0.4,0c-0.1,0-0.2,0-0.3,0c0.1-0.1,0.1-0.3,0.1-0.4c-0.7,0.2-1.3,0-1.8,0.1c0.1-0.2,0.1-0.3,0-0.4
			c-0.8,0.4-1.5,0.2-2.2,0.7c0-0.2,0-0.4-0.1-0.5c-0.7,0.4-1.3,0.1-1.8,0.6c0-0.2,0-0.3,0-0.4c-0.7,0.3-1.3,0.4-1.9,0.9
			c-0.1,0-0.3,0-0.4-0.1c0,0,0-0.1-0.1-0.1c0,0-0.1,0-0.1,0.1c-0.1,0-0.2,0-0.4,0C10.7,8.6,11.1,8.6,11.4,8.4"/>
		<path class="st3" d="M18.5,6.3h0.2c0,0-0.1-0.9-1.8-0.8h-0.4L16.3,6l1.1-0.1C17.5,5.9,18.3,5.8,18.5,6.3"/>
		<path class="st3" d="M16.7,6.9L17,6.6c0,0,0,0,0.1,0v0.1c0,0.2,0.1,0.3,0.3,0.4h0.3C17.9,7,18,6.9,18,6.7V6.6
			c0.2,0,0.3,0.1,0.4,0.3h0.3c0,0-0.2-0.9-1.8-0.6l-0.4,0.6C16.4,6.9,16.7,6.9,16.7,6.9"/>
		<path class="st3" d="M13.1,6.9h0.4c0.1-0.2,0.3-0.2,0.4-0.3v0.1c0,0.2,0.1,0.3,0.3,0.4c0,0,0.2,0,0.3,0c0.2-0.1,0.3-0.2,0.3-0.4
			c0,0,0,0,0-0.1h0.1L15,6.8h0.4L15,6.2C13.4,6,13.1,6.9,13.1,6.9"/>
		<path class="st3" d="M14.1,5.9L15.3,6l-0.1-0.5h-0.3C13.1,5.4,13,6.3,13,6.3h0.2C13.4,5.8,14.1,5.9,14.1,5.9"/>
		<path class="st5" d="M30.6,30.5c-0.3,0.7,0,1.1-0.6,1.6c-0.4,0.1-0.4,0.2-0.5,0.3c0.1-0.3,0.2-0.5,0.3-0.7
			c-0.2,0.1-0.3,0.2-0.4,0.4c-0.1-0.1-0.3-0.1-0.5-0.5c-0.3-0.6-0.1-0.8-0.2-1.4c0.3,0.5,0.8,1,0.8,1.3
			C29.6,31.1,30.3,30.4,30.6,30.5"/>
		<path class="st5" d="M30.8,28.2c-0.3,0.7-0.1,1.1-0.8,1.7c-0.4,0.2-0.4,0.3-0.5,0.5c0.1-0.3,0.2-0.5,0.4-0.7
			c-0.2,0.2-0.4,0.3-0.5,0.5c-0.1-0.1-0.3,0-0.5-0.4c-0.3-0.5,0-0.8-0.1-1.3c0.3,0.4,0.7,0.8,0.8,1.1C29.8,29,30.6,28.2,30.8,28.2"
			/>
		<path class="st5" d="M29.6,27.6c0.1-0.5,0.8-1.4,1-1.5c-0.2,0.8,0.1,1.1-0.5,1.7c-0.4,0.2-0.4,0.4-0.5,0.5c0-0.3,0.1-0.5,0.3-0.7
			c-0.2,0.2-0.3,0.3-0.4,0.5c-0.1,0-0.3,0-0.5-0.3c-0.3-0.4-0.2-0.7-0.3-1.2C29,27,29.5,27.2,29.6,27.6"/>
		<path class="st5" d="M30.7,23.9c-0.2,0.7,0.1,1-0.5,1.7c-0.4,0.2-0.4,0.3-0.5,0.5c0-0.2,0.1-0.5,0.3-0.7c-0.2,0.2-0.3,0.3-0.4,0.5
			c-0.1,0-0.3,0-0.6-0.3c-0.3-0.4-0.2-0.7-0.3-1.2c0.3,0.4,0.9,0.7,1,1C29.8,24.7,30.4,23.9,30.7,23.9"/>
		<path class="st5" d="M29.5,23.7c0-0.5,0.5-1.4,0.7-1.5c0,0.7,0.3,1-0.2,1.7c-0.4,0.3-0.3,0.4-0.4,0.5c0-0.3,0-0.5,0.1-0.7
			c-0.1,0.2-0.3,0.3-0.3,0.6c-0.1,0-0.3,0.1-0.6-0.3c-0.4-0.4-0.3-0.7-0.5-1.1C28.8,23.2,29.4,23.4,29.5,23.7"/>
		<path class="st5" d="M10.6,10.4c0.1-0.1,0.2-0.1,0.3-0.6c0.3-0.9,0.8-0.8,1.5-1.3c0.2,0.3-0.6,1.3-1.1,1.7c0.3,0,0.7,0.3,1.2,0.5
			c-0.5,0.1-0.7,0.3-1.3,0.2C10.8,10.8,10.8,10.6,10.6,10.4c0.3-0.1,0.4-0.3,0.5-0.5C11.1,10.1,10.8,10.2,10.6,10.4"/>
		<path class="st5" d="M19.7,10c-0.2,0-0.4-0.1-0.6-0.1c0.3-0.1,0.6-0.2,0.8-0.4c0.5,0.1,1,0.4,1,0.8c-0.4-0.1-0.5,0.1-1.2,0.3
			c-0.6,0.1-0.9-0.2-1.4-0.3c-0.2-0.1-0.2-0.3-0.2-0.3c0.3,0.1,0.5,0.1,0.8,0v0.1C19.1,10.1,19.4,10.1,19.7,10"/>
		<path class="st5" d="M17.8,9.3c0.3,0,0.5-0.1,0.8-0.2c-0.2,0-0.4,0-0.6,0c0.3-0.2,0.6-0.5,1.1-0.5c0.7,0,0.7,0.4,1.1,0.2
			C20.2,9.2,18.3,10,17.8,9.3"/>
		<path class="st5" d="M16.8,9.2c0.3,0.1,0.6,0.6,1,1c-0.5-0.2-0.8,0-1.2-0.3c-0.3-0.3-0.3-0.5-0.3-0.6c0.2-0.1,0.4-0.2,0.5-0.4
			c-0.2,0.1-0.4,0.2-0.7,0.2c0.1-0.1,0.3,0,0.4-0.5c0.6-0.6,0.9-0.3,1.6-0.4C18.1,8.5,17.3,9.1,16.8,9.2"/>
		<path class="st5" d="M15.3,9.3c0.3,0,0.7,0.5,1.1,0.8c-0.5,0-0.7,0.2-1.2-0.1c-0.4-0.2-0.3-0.4-0.4-0.5C15,9.4,15.1,9.2,15.2,9
			c-0.2,0.2-0.4,0.3-0.7,0.4c0.1-0.1,0.2-0.1,0.4-0.6c0.5-0.7,0.8-0.4,1.5-0.7C16.4,8.4,15.8,9.1,15.3,9.3"/>
		<path class="st5" d="M14.2,10.2c-0.5,0-0.8,0.3-1.3,0c-0.4-0.2-0.3-0.3-0.4-0.4c0.2-0.1,0.3-0.3,0.5-0.5c-0.2,0.2-0.4,0.3-0.7,0.4
			c0.1-0.1,0.2-0.1,0.4-0.6c0.5-0.7,0.8-0.5,1.5-0.9c0,0.3-0.7,1.1-1.2,1.3C13.4,9.6,13.8,10,14.2,10.2"/>
		<path class="st5" d="M29.7,20c0,0.7,0.3,1-0.2,1.7c-0.4,0.3-0.3,0.4-0.4,0.5c0-0.2,0-0.5,0.1-0.7c-0.1,0.2-0.2,0.4-0.3,0.6
			c-0.1-0.1-0.3,0-0.6-0.3c-0.5-0.4-0.3-0.7-0.6-1.2c0.4,0.3,1,0.6,1.2,0.9C29,21,29.4,20.1,29.7,20"/>
		<path class="st5" d="M28.5,19.9c-0.1-0.5,0.2-1.4,0.5-1.5c0.1,0.7,0.5,0.9,0.2,1.7c-0.3,0.3-0.2,0.4-0.3,0.5
			c-0.1-0.3-0.1-0.5,0-0.7c-0.1,0.2-0.2,0.4-0.2,0.6c-0.1,0-0.3,0.1-0.7-0.2c-0.5-0.3-0.4-0.6-0.8-1.1
			C27.7,19.5,28.3,19.7,28.5,19.9"/>
		<path class="st5" d="M28,16.3c0.1,0.7,0.5,1,0.1,1.7c-0.3,0.3-0.2,0.4-0.3,0.5c0-0.2-0.1-0.5,0-0.7c-0.1,0.2-0.2,0.4-0.2,0.6
			c-0.1,0-0.3,0.1-0.7-0.2c-0.5-0.4-0.4-0.6-0.8-1.1c0.5,0.3,1.1,0.5,1.3,0.8C27.4,17.3,27.7,16.4,28,16.3"/>
		<path class="st5" d="M27,14.8c0.2,0.7,0.7,0.9,0.5,1.6c-0.3,0.3-0.2,0.4-0.2,0.6c-0.1-0.2-0.2-0.5-0.2-0.7
			C27,16.5,27,16.7,27,16.9c-0.1,0-0.3,0.1-0.7-0.1c-0.6-0.3-0.6-0.6-1-1c0.5,0.2,1.2,0.3,1.4,0.6C26.6,15.9,26.7,14.9,27,14.8"/>
		<path class="st5" d="M25.6,12.8c0.3,0.7,0.6,0.6,0.5,1.6c-0.2,0.5-0.1,0.5,0,0.7c-0.1-0.2-0.2-0.5-0.3-0.8c0,0.2,0,0.5,0.1,0.7
			c-0.1,0-0.2,0.2-0.6,0.1c-0.5-0.1-0.6-0.5-1-0.8c0.5,0.1,1.1,0,1.3,0.2C25.4,14,25.4,13,25.6,12.8"/>
		<path class="st5" d="M24.4,13.1c-0.3-0.4-0.3-1.4-0.2-1.6c0.4,0.7,0.6,0.5,0.7,1.4c-0.1,0.5,0,0.5,0,0.7c-0.2-0.2-0.3-0.4-0.4-0.7
			c0,0.2,0,0.5,0.1,0.7c-0.1,0-0.2,0.2-0.6,0.2c-0.6,0-0.6-0.4-1.1-0.6C23.6,13.1,24.1,13,24.4,13.1"/>
		<path class="st5" d="M22.5,10c0.4,0.6,0.9,0.6,0.9,1.5c-0.1,0.5,0,0.5,0,0.7c-0.2-0.2-0.3-0.4-0.4-0.7c0,0.2,0.1,0.4,0.1,0.7
			c-0.1,0.1-0.2,0.2-0.6,0.2c-0.6,0-0.7-0.3-1.1-0.6c0.5,0,1.1-0.2,1.4-0.1C22.6,11.3,22.3,10.2,22.5,10"/>
		<path class="st5" d="M22,10.1c-0.1,0.5,0.1,0.5,0.1,0.7c-0.1,0-0.1,0-0.1,0c-0.2-0.2-0.3-0.4-0.4-0.5c0.1,0.4,0.1,0.5,0.2,0.7
			c0,0.1-0.1,0.1-0.4,0.2c-0.7,0-0.8-0.1-1.1-0.3c0.5-0.2,0.7-0.4,1.1-0.3v-0.1l0,0l0,0c-0.1-0.2-0.2-0.3-0.4-0.5
			c-0.2-0.4-0.4-0.8-0.3-0.9C21.3,9.5,21.8,9.3,22,10.1"/>
		<path class="st5" d="M9.1,10.8c0.2-0.8,0.6-0.7,1.1-1.2c0.1,0.2-0.2,1.2-0.6,1.5c0.3-0.1,0.9,0.2,1.4,0.3
			c-0.5,0.1-0.6,0.4-1.2,0.3c-0.4-0.1-0.5-0.2-0.6-0.3c0.1-0.2,0.2-0.4,0.2-0.6c-0.1,0.2-0.3,0.4-0.5,0.6C9,11.2,9.1,11.2,9.1,10.8"
			/>
		<path class="st5" d="M7.8,11.8C7.9,11,8.3,11,8.7,10.4c0.1,0.2-0.1,1.3-0.4,1.7c0.3-0.1,0.8,0,1.4,0.1c-0.5,0.2-0.5,0.5-1.1,0.6
			c-0.4,0-0.5-0.2-0.6-0.2c0.1-0.2,0.1-0.4,0.1-0.7c-0.1,0.3-0.2,0.5-0.4,0.7C7.8,12.3,7.9,12.3,7.8,11.8"/>
		<path class="st5" d="M6.4,13c0.1-0.9,0.3-0.8,0.7-1.5c0.1,0.2,0.1,1.3-0.2,1.7c0.3-0.2,0.8,0,1.3,0c-0.5,0.3-0.5,0.6-1.1,0.7
			c-0.4,0-0.5-0.1-0.6-0.2c0.1-0.2,0.1-0.4,0.1-0.7c0,0.3-0.2,0.5-0.3,0.7C6.4,13.5,6.5,13.4,6.4,13"/>
		<path class="st5" d="M5.8,12.9c0.2,0.2,0.2,1.2,0,1.7C6,14.4,6.5,14.5,7,14.4c-0.4,0.3-0.5,0.7-1,0.8c-0.4,0.1-0.5-0.1-0.6-0.1
			c0.1-0.2,0.1-0.5,0.1-0.7c0,0.3-0.1,0.5-0.3,0.7c0-0.2,0.1-0.2-0.1-0.7C5.2,13.6,5.4,13.6,5.8,12.9"/>
		<path class="st5" d="M4.4,14.9C4.6,15,4.7,16,4.5,16.5c0.2-0.2,0.9-0.4,1.4-0.6c-0.4,0.4-0.4,0.7-0.9,1C4.6,17.1,4.5,17,4.3,17
			c0-0.2,0-0.4-0.1-0.6c0,0.2-0.1,0.5-0.2,0.7c0-0.2,0.1-0.2-0.2-0.6C3.7,15.8,4.2,15.6,4.4,14.9"/>
		<path class="st5" d="M3.3,18.1c-0.3-0.7,0.1-0.9,0.1-1.6c0.2,0.1,0.6,1,0.5,1.5c0.2-0.3,0.8-0.5,1.3-0.7C4.9,17.7,5,18,4.4,18.4
			c-0.4,0.3-0.5,0.2-0.7,0.2c0-0.2-0.1-0.4-0.2-0.6c0.1,0.2,0,0.5,0,0.7C3.5,18.5,3.6,18.4,3.3,18.1"/>
		<path class="st5" d="M2.5,18.5c0.2,0.1,0.5,1,0.4,1.5c0.2-0.3,0.8-0.4,1.3-0.7C4,19.7,4,20,3.5,20.3c-0.4,0.3-0.5,0.1-0.6,0.2
			c0-0.2-0.1-0.4-0.2-0.6c0.1,0.2,0,0.4,0,0.7c0-0.2,0-0.3-0.3-0.5C2,19.4,2.4,19.2,2.5,18.5"/>
		<path class="st5" d="M2,21.7c-0.5-0.7-0.1-0.9-0.2-1.6c0.3,0,0.7,0.9,0.7,1.4c0.1-0.3,0.7-0.5,1.1-0.9c-0.2,0.5-0.1,0.8-0.5,1.2
			C2.9,22.1,2.7,22,2.6,22c-0.1-0.2-0.2-0.4-0.3-0.5c0.1,0.2,0.1,0.4,0.1,0.7C2.3,22.1,2.4,21.9,2,21.7"/>
		<path class="st5" d="M1.3,22.2c0.3,0,0.7,1,0.7,1.5c0.1-0.3,0.7-0.5,1.1-0.8C2.9,23.4,3,23.7,2.6,24c-0.3,0.3-0.5,0.2-0.6,0.2
			c0-0.2-0.2-0.4-0.3-0.6c0.1,0.2,0.1,0.5,0.1,0.7c-0.1-0.2,0-0.3-0.4-0.5C1,23.1,1.3,22.9,1.3,22.2"/>
		<path class="st5" d="M2,25.7c-0.1-0.2-0.2-0.4-0.4-0.5c0.1,0.2,0.2,0.4,0.2,0.7c-0.1-0.1-0.1-0.3-0.5-0.5
			c-0.6-0.6-0.4-0.8-0.5-1.5c0.3,0,0.9,0.8,1.1,1.2c0.1-0.3,0.6-0.6,0.9-1c-0.1,0.5,0.1,0.8-0.3,1.2C2.3,25.8,2.1,25.7,2,25.7"/>
		<path class="st5" d="M0.8,26.1c0.3,0,0.9,0.8,1.1,1.3c0.1-0.3,0.6-0.6,0.9-0.9c-0.1,0.5,0.1,0.8-0.3,1.2C2.3,28,2.1,27.9,2,28
			c-0.1-0.2-0.2-0.4-0.4-0.5c0.1,0.2,0.2,0.5,0.3,0.7c-0.1-0.1-0.1-0.2-0.5-0.5C0.8,27,1,26.9,0.8,26.1"/>
		<path class="st5" d="M0.8,28.2c0.2,0,1,0.7,1.2,1.1c0-0.3,0.5-0.7,0.7-1.1c0,0.5,0.2,0.8-0.1,1.3c-0.2,0.4-0.4,0.3-0.4,0.4
			c-0.1-0.2-0.3-0.4-0.5-0.5c0.2,0.2,0.3,0.4,0.4,0.7C2,30,2,29.8,1.6,29.7C0.4,28.8,1.5,30,0.8,28.2"/>
		<path class="st5" d="M2.1,31.4c0-0.3,0.5-0.8,0.8-1.3c-0.1,0.6,0.1,0.8-0.2,1.3c-0.2,0.4-0.4,0.4-0.5,0.5
			c-0.1-0.2-0.2-0.3-0.4-0.4C1.9,31.7,2,32,2.1,32.2C2,32.1,2,32,1.6,31.9C1,31.4,1.3,31.2,1,30.5C1.3,30.4,1.9,31,2.1,31.4"/>
		<path class="st5" d="M1.1,32.1c0.2-0.1,1,0.5,1.3,0.9c0-0.3,0.4-0.9,0.6-1.4c0,0.6,0.3,0.7,0.1,1.3c-0.1,0.5-0.3,0.5-0.4,0.6
			c-0.1-0.2-0.3-0.3-0.5-0.3c0.2,0.2,0.3,0.4,0.4,0.6c-0.1-0.1-0.1-0.2-0.5-0.2C1.3,33.1,1.5,32.7,1.1,32.1"/>
		<path class="st5" d="M3.1,35.1c0-0.3,0.4-0.9,0.6-1.4c0,0.5,0.3,0.7,0.1,1.3c-0.1,0.5-0.3,0.5-0.4,0.6c-0.1-0.2-0.3-0.2-0.5-0.3
			c0.2,0.1,0.3,0.4,0.4,0.6c-0.1-0.1-0.1-0.2-0.6-0.2c-0.7-0.4-0.5-0.8-0.9-1.4C2.1,34.1,2.9,34.6,3.1,35.1"/>
		<path class="st5" d="M2.3,35.8c0.2-0.1,1.2,0.3,1.5,0.7c-0.1-0.3,0.2-0.9,0.3-1.4c0.1,0.5,0.4,0.7,0.3,1.3
			c-0.1,0.4-0.2,0.5-0.3,0.6c-0.2-0.1-0.4-0.2-0.6-0.2c0.2,0.1,0.4,0.3,0.5,0.5c-0.2,0-0.2-0.2-0.6-0.1C2.6,36.8,2.8,36.4,2.3,35.8"
			/>
		<path class="st5" d="M3.2,37.7c0.2-0.1,1.2,0.3,1.5,0.7C4.6,38.1,4.9,37.5,5,37c0.1,0.5,0.4,0.7,0.3,1.2c-0.1,0.4-0.2,0.5-0.3,0.6
			c-0.2-0.1-0.4-0.2-0.6-0.3c0.2,0.1,0.4,0.3,0.5,0.5c-0.1-0.1-0.2-0.2-0.6-0.2C3.5,38.6,3.7,38.2,3.2,37.7"/>
		<path class="st5" d="M3.9,39.2c0.2-0.1,1.3,0.1,1.6,0.5c-0.1-0.3,0.1-0.8,0.1-1.3c0.2,0.5,0.5,0.6,0.5,1.2c0,0.4-0.2,0.5-0.2,0.6
			c-0.2-0.1-0.4-0.1-0.6-0.2c0.2,0.1,0.4,0.2,0.6,0.4c-0.2,0-0.2-0.2-0.7-0.1C4.4,40.1,4.5,39.6,3.9,39.2"/>
		<path class="st5" d="M4.9,40.8c0.2-0.1,1.3,0.2,1.7,0.6c-0.1-0.3,0.1-0.8,0.2-1.3c0.2,0.5,0.5,0.6,0.5,1.2c0,0.4-0.2,0.5-0.2,0.6
			c-0.2-0.1-0.4-0.2-0.6-0.2c0.2,0.1,0.4,0.3,0.6,0.4C6.9,42,6.9,41.9,6.4,42C5.4,41.7,5.5,41.3,4.9,40.8"/>
		<path class="st5" d="M8.6,43.4c-0.2-0.1-0.3-0.3-0.7-0.2c-0.9-0.1-1.1-0.6-1.8-1c0.2-0.1,1.3,0.1,1.8,0.4c-0.2-0.3,0-0.8-0.1-1.3
			c0.3,0.4,0.6,0.5,0.7,1c0.1,0.4,0.1,0.7,0.2,1C8.6,43.2,8.4,43,8.2,43C8.3,43.1,8.5,43.3,8.6,43.4"/>
		<path class="st5" d="M23.6,43.4c-0.4-0.1-0.6,0.2-0.9,0.3c0.2-0.2,0.3-0.5,0.5-0.6c-0.2,0-0.4,0.1-0.5,0.2c0-0.2,0-0.4,0-0.8
			c0.1-0.5,0.4-0.6,0.7-1.1c-0.1,0.5,0.1,1.1-0.1,1.3c0.5-0.3,1.6-0.5,1.8-0.3C24.6,42.9,24.5,43.3,23.6,43.4"/>
		<path class="st5" d="M25.1,42.2c-0.5-0.1-0.5,0.1-0.7,0.1c0.2-0.2,0.4-0.3,0.7-0.4c-0.2,0-0.5,0.1-0.7,0.2c0-0.1-0.2-0.2-0.3-0.6
			c0-0.6,0.3-0.7,0.5-1.2c0,0.5,0.3,1.1,0.2,1.3c0.4-0.4,1.5-0.7,1.7-0.6C25.9,41.6,26,42,25.1,42.2"/>
		<path class="st5" d="M26.1,40.6c-0.5-0.1-0.5,0-0.7,0.1c0.2-0.2,0.4-0.3,0.6-0.4c-0.2,0-0.4,0.1-0.6,0.2c-0.1-0.1-0.2-0.2-0.3-0.6
			c0-0.6,0.3-0.7,0.5-1.2c0,0.5,0.3,1.1,0.1,1.4c0.4-0.4,1.4-0.6,1.7-0.5C26.9,40,27,40.4,26.1,40.6"/>
		<path class="st5" d="M27.1,39.2c-0.5,0-0.5,0.1-0.6,0.2c0.2-0.2,0.3-0.4,0.5-0.5c-0.2,0-0.4,0.1-0.6,0.3c-0.1-0.1-0.3-0.1-0.3-0.6
			c-0.1-0.6,0.2-0.7,0.3-1.2c0.1,0.5,0.5,1.1,0.4,1.4c0.3-0.4,1.3-0.9,1.5-0.8C27.7,38.5,27.9,39,27.1,39.2"/>
		<path class="st5" d="M28.1,37.3c-0.5,0-0.5,0.1-0.6,0.1c0.2-0.2,0.3-0.4,0.5-0.5c-0.2,0-0.4,0.1-0.6,0.3c-0.1-0.1-0.2-0.2-0.3-0.6
			c-0.1-0.6,0.2-0.7,0.3-1.3c0.1,0.6,0.4,1.1,0.3,1.4c0.3-0.4,1.3-0.8,1.5-0.7C28.8,36.7,28.9,37.1,28.1,37.3"/>
		<path class="st5" d="M28.8,35.8c-0.4,0-0.4,0.2-0.6,0.2c0.1-0.2,0.2-0.4,0.4-0.6c-0.2,0.1-0.4,0.2-0.5,0.3
			c-0.1-0.1-0.3-0.1-0.4-0.6c-0.2-0.6,0-0.8,0.1-1.3c0.2,0.5,0.6,1,0.6,1.4c0.3-0.4,1.1-1,1.3-0.9C29.3,35.1,29.5,35.5,28.8,35.8"/>
		<path class="st5" d="M29.6,33.7c-0.4,0-0.4,0.1-0.6,0.2c0.1-0.2,0.2-0.4,0.4-0.6c-0.2,0.1-0.4,0.2-0.5,0.3
			c-0.1-0.1-0.3-0.1-0.4-0.6c-0.2-0.6,0-0.8,0.1-1.4c0.2,0.5,0.6,1.1,0.6,1.4c0.2-0.5,1-1,1.3-0.9C30.1,32.9,30.3,33.4,29.6,33.7"/>
		<path class="st6" d="M26.1,36.5c0,0-2.3,0.4-5-1.5c0.2-0.3,0.3-1,0.2-1.5c-0.1-0.3-0.1-0.1-0.2,0.2c-0.3,0.7-0.5,0.7-0.8,0.9
			c-0.8-0.8-0.9-0.8-2-1.4c-0.8-0.4-0.8-0.7-1.2-0.9c-0.7,0.3-1.9,1-2.4,0.6c-0.5-0.2,0.6-0.5,1-1.1c0.4-0.5,0.8-0.6,1.4-0.5
			c1.1,0.2,1.7,0.6,3.4,1.4c2,0.2,3.6,0.8,5.6,1.2c0.3,0.1,0.9,0.1,1.1,0.2C26.9,34.8,26.6,35.4,26.1,36.5"/>
		<path class="st6" d="M17.1,34.2c0.6,0.7,1.2,0.8,1.5,1.6C18.5,36,18.2,36.1,18,36c-0.9-1-1.8-1.2-1.4-1.7c-0.2,0-0.3,0.2-0.3,0.4
			c0.2,0.7,1,1,1.2,1.7c-0.1,0.5-1.1,0-1.6-1.2v-0.1c-0.2,0.4-0.3,0.5,0.3,1.3c0.1,0.3,0.2,0.6-0.3,0.5c0.1,0.1-0.2,0-0.1,0H16
			c0,0-0.1,0-0.1-0.1c0.2-1.3-0.9-1-0.9-1c0.2-0.4-0.5-0.9-1.1-0.6c0.1-0.3-0.6-0.9-1.6-0.5c-0.1-0.3-1-0.7-1.8,0.4
			c-1.5,0.1-3.9,1.4-5.4,0.8C5,36,4.2,33.5,4.2,33.4c1.7-0.2,5.6-0.4,6.9-1c1.1-0.7,3.1-1,3.6-0.8c0,0.4-0.9,1.1-0.5,1.4
			c0.8,0.7,2,0.4,2.8-0.1c0.8,0.9,2.2,1,2.7,2.2l-0.2,0.4c-0.3,0.2-0.3,0.2-0.6-0.3c-0.8-1.1-1.6-0.8-1.7-1.6
			C16.9,33.7,17.1,34.1,17.1,34.2"/>
		<path class="st6" d="M13.2,36.5c-0.3,0.1,0.1-0.2,0.2-0.3l0.1-0.2c0.3-0.2,0.6-0.6,0.8-0.1c0.1,0.3-0.9,0.9-1,0.9
			c-0.1,0.2-0.2,0.2-0.3,0C12.9,36.7,13,36.5,13.2,36.5"/>
		<path class="st6" d="M12.3,36.4c-0.2,0-0.3,0.1-0.4-0.1c-0.1-0.2,0.2-0.5,0.4-0.7c0.1-0.1,0.2-0.1,0.2-0.2l0.2-0.2
			c0.4,0,0.3,0,0.4,0.2C13.1,35.6,12.4,36.4,12.3,36.4"/>
		<path class="st6" d="M14.7,36.5c0,0,0.4-0.4,0.6,0.2c0.1,0.2-0.4,0.5-0.8,0.6C14.3,37.2,13.8,37.2,14.7,36.5"/>
		<path class="st6" d="M11.3,35.7c-0.2,0.1-0.4-0.2-0.3-0.3l0.2-0.3c0.3-0.1,0.5-0.2,0.5-0.1C11.8,35.1,11.4,35.6,11.3,35.7"/>
		<path class="st7" d="M15.8,10.8C9,10.8,3.5,17.9,3.3,26.9h24.9C28,17.9,22.5,10.8,15.8,10.8"/>
		<path class="st3" d="M16.5,30.5v-7.1c0,0,2.4,0,3,0c0,0,0.9-0.3,1-1.1c0.1-0.5-0.3-2.1-0.4-2.4c0,0-0.4-0.3-0.5-0.7
			c0,0-0.2-2.7-0.8-3.4c-0.5-0.8-1.3-1.7-3.1-1.6c-1.8,0-2.7,1.2-2.8,2c-0.2,1,1,1,1,1s-0.5,0.4-0.7,0.6s-0.6,0.7-1.1,1.6
			s-0.8,2.3-0.6,2.8s1.1,1.1,2,1.2c1,0.1,1.6-0.1,1.6-0.1v7.1L16.5,30.5z"/>
		<path class="st8" d="M13.8,20.8c-0.7,0-1,0.4-1.6,0.4c0,0,0.1-1.3,1.4-2.9c0.5-0.6,1.8-1.3,2.4-1.6v-0.1c-0.6,0.1-2.1,0.4-2.5-0.3
			c-0.1-0.7,0.8-1.4,2.1-1.5c0.8,0,1.3,0.2,1.9,0.6c0.7,0.5,1,1.2,1.1,2c-0.9,0.4-1.1,0.5-1.2,0.6c0.1,0,0.3,0.1,0.6,0.1
			c0.3,0,0.5,0,0.6-0.1v0.5c0.1,0.1,0.1,0.1,0.1,0.2c-1.5,0.6-2.2,0.9-2.4,0.9c0,0,0.3,0.1,0.6,0.1c0.5,0,1.2-0.2,1.8-0.4
			c0,0.3,0,0.5,0.4,0.7l0,0l0,0c-1.5,0.8-2.1,0.7-2.2,0.7L16,20.5c0.3,0.1,0.9,0.6,1.4,0.7s1.5-0.4,2.1-0.6l0.2,0.7
			c-0.9,0-1.9,1.3-3.3,0.8C15.7,21.6,14.8,20.8,13.8,20.8"/>
		<path class="st8" d="M15.1,22.7c-0.7,0-1.8,0-1.8,0c-0.3-0.1-1.2-0.6-1.1-0.7c0.1,0,0.3,0,1.1-0.3C14.2,21.3,15,22.5,15.1,22.7"/>
		<path class="st8" d="M19.8,22c0,0.2-0.3,0.7-0.5,0.7s-1.1,0-1.6,0c0.4,0,0.6-0.1,0.8-0.2C20,21.8,19.8,22,19.8,22"/>
		<path class="st2" d="M15,48.1c0.1-0.2,0-0.5,0-0.5s-0.5,0.7-1.2,1.1c-0.6,0.4-1.6,0.6-1.8,0.6c0.1,0.1,0.3,0.3,0.4,0.4
			c0.2,0,1-0.1,1.7-0.6C14.6,48.8,15,48.1,15,48.1"/>
		<path class="st7" d="M16.6,48.1c-0.1-0.2,0-0.5,0-0.5s0.5,0.7,1.2,1.1c0.6,0.4,1.6,0.6,1.8,0.6c0.3-0.3,0.5-0.5,0.5-0.5
			s-0.9-0.1-1.8-0.4c-0.9-0.3-1.3-0.8-1.4-1s0.1-0.6,0.2-0.7c0.1-0.1,1.6-0.2,1.6-1.5c-0.1-1.5-2.5-1.1-2.9-1
			c-0.3-0.1-2.8-0.5-2.9,1c-0.1,1.3,1.5,1.4,1.6,1.5s0.3,0.5,0.2,0.7s-0.5,0.7-1.4,1s-1.8,0.4-1.8,0.4s0.2,0.3,0.5,0.5
			c0.2,0,1.2-0.3,1.8-0.6c0.7-0.4,1.2-1.1,1.2-1.1s0.1,0.3,0,0.5c0,0-0.4,0.7-0.9,1c-0.8,0.5-1.5,0.6-1.7,0.6
			c0.2,0.2,0.5,0.3,0.7,0.3c1.6-0.1,2.2-1.8,2.2-1.8s0.2,0.1,0.4,0.2l0,0l0,0c0.3,0,0.4-0.2,0.4-0.2s0.6,1.7,2.2,1.8
			c0.2,0,0.5-0.1,0.7-0.3c-0.2,0-1-0.1-1.7-0.6C16.9,48.8,16.6,48.1,16.6,48.1"/>
		<path class="st2" d="M19.6,49.3c-0.2,0-1.2-0.3-1.8-0.6c-0.7-0.4-1.2-1.1-1.2-1.1s-0.1,0.3,0,0.5c0,0,0.4,0.7,0.9,1
			c0.7,0.5,1.5,0.6,1.7,0.6l0,0C19.3,49.6,19.5,49.5,19.6,49.3"/>
		<path class="st2" d="M14.6,44.6c0,0-0.4,0.3-0.4,0.7c0,0.3,0.1,0.7,0.1,0.7s-0.8-0.3-0.8-0.8C13.5,44.4,14.6,44.6,14.6,44.6"/>
		<path class="st2" d="M17,44.6c0,0,0.4,0.3,0.4,0.7c0.1,0.3-0.1,0.7-0.1,0.7s0.8-0.3,0.8-0.8C18,44.4,17,44.6,17,44.6"/>
		<path class="st2" d="M15.8,44.9h-0.1c-1.4,0-0.6,1.3-0.6,1.3s0.2-0.2,0.6-0.2h0.2c0.3,0,0.6,0.2,0.6,0.2S17.2,44.9,15.8,44.9"/>
		<path class="st2" d="M15.9,46.6L15.9,46.6L15.9,46.6h-0.1c-0.4,0-0.4,0.2-0.4,0.4s0.1,0.9,0.4,0.9l0,0l0,0c0.3,0,0.4-0.8,0.4-0.9
			C16.2,46.8,16.2,46.6,15.9,46.6"/>
	</g>
</g>
<g>
	<g>
		<path class="st9" d="M181.7,20.7l-0.4,1.3h-1.7l2.7-10.2h1.7l-1,3.8c0.7-0.7,1.4-1.1,2.4-1.1c1.7,0,2.9,1.2,2.9,3.2
			c0,2.6-2,4.5-4.1,4.5C182.9,22.2,182.1,21.5,181.7,20.7z M186.5,17.7c0-1.1-0.7-1.8-1.8-1.8c-1.4,0-2.7,1.4-2.7,2.9
			c0,1.1,0.8,1.9,1.9,1.9C185.4,20.7,186.5,19.4,186.5,17.7z"/>
		<path class="st9" d="M193.1,20.8c0.7,0,1.3-0.2,1.9-0.7l0.8,1.1c-0.7,0.6-1.6,1-2.9,1c-2.1,0-3.4-1.2-3.4-3.2
			c0-2.2,1.8-4.5,4.4-4.5c1.9,0,3,1.3,3,2.9c0,0.5-0.1,1.1-0.3,1.6h-5.4C191.2,20,191.8,20.8,193.1,20.8z M195.2,17.8
			c0-0.1,0.1-0.3,0.1-0.5c0-0.8-0.4-1.4-1.5-1.4c-1.1,0-2.1,0.8-2.4,1.9H195.2z"/>
		<path class="st9" d="M198.2,20.7c0-0.3,0-0.6,0.1-0.9l1-3.8h-0.9l0.4-1.5h0.9l0.5-2h1.7l-0.5,2h2l-0.4,1.5h-2l-1,3.6
			c0,0.1-0.1,0.3-0.1,0.4c0,0.4,0.3,0.6,0.7,0.6c0.3,0,0.7-0.1,1.1-0.2l-0.4,1.5c-0.4,0.2-0.9,0.3-1.4,0.3
			C198.9,22.1,198.2,21.6,198.2,20.7z"/>
		<path class="st9" d="M203.2,20.1c0-1.7,1.4-2.7,3.3-2.7c0.8,0,1.6,0.1,2.2,0.4l0-0.2c0.1-0.2,0.1-0.4,0.1-0.6
			c0-0.7-0.5-1.1-1.6-1.1c-0.7,0-1.4,0.2-2,0.4l-0.3-1.4c0.8-0.3,1.6-0.5,2.6-0.5c1.9,0,3,0.9,3,2.3c0,0.4-0.1,0.7-0.2,1.1l-1.1,4.2
			h-1.7l0.3-1c-0.6,0.7-1.4,1.1-2.4,1.1C204.2,22.2,203.2,21.4,203.2,20.1z M208.4,19.2l0.1-0.3c-0.5-0.1-1-0.3-1.7-0.3
			c-1.1,0-1.8,0.6-1.8,1.3c0,0.6,0.4,1,1.2,1C207.2,20.9,208.1,20.1,208.4,19.2z"/>
	</g>
</g>
</svg>
