<?xml version="1.0" encoding="utf-8"?>
<!-- Generator: Adobe Illustrator 22.0.0, SVG Export Plug-In . SVG Version: 6.00 Build 0)  -->
<svg version="1.1" id="Layer_1" xmlns="http://www.w3.org/2000/svg" xmlns:xlink="http://www.w3.org/1999/xlink" x="0px" y="0px"
	 viewBox="0 0 372 60" style="enable-background:new 0 0 372 60;" xml:space="preserve">
<style type="text/css">
	.st0{fill:#0072BB;}
</style>
<g>
	<path class="st0" d="M0.5,37l1.7-2c1.5,1.3,3,2,4.9,2c1.7,0,2.8-0.8,2.8-2v0c0-1.1-0.6-1.7-3.5-2.4C3,31.8,1.1,30.9,1.1,28v0
		c0-2.7,2.2-4.5,5.3-4.5c2.3,0,4.1,0.7,5.7,2l-1.5,2.1c-1.4-1-2.8-1.6-4.2-1.6c-1.6,0-2.5,0.8-2.5,1.9v0c0,1.2,0.7,1.7,3.7,2.5
		c3.3,0.8,5,2,5,4.6v0c0,2.9-2.3,4.7-5.6,4.7C4.6,39.5,2.4,38.6,0.5,37z"/>
	<path class="st0" d="M15.1,35v-7.5h2.7v6.7c0,1.8,0.9,2.9,2.5,2.9c1.6,0,2.7-1.1,2.7-2.9v-6.6h2.7v11.8H23v-1.8
		c-0.8,1.1-1.9,2.1-3.7,2.1C16.6,39.5,15.1,37.7,15.1,35z"/>
	<path class="st0" d="M31.5,37.4v1.8h-2.7V23h2.7v6.5c0.9-1.2,2.1-2.2,4-2.2c2.8,0,5.5,2.2,5.5,6.1v0c0,3.9-2.7,6.1-5.5,6.1
		C33.6,39.5,32.3,38.5,31.5,37.4z M38.3,33.4L38.3,33.4c0-2.3-1.5-3.8-3.4-3.8c-1.8,0-3.4,1.5-3.4,3.8v0c0,2.3,1.6,3.8,3.4,3.8
		C36.7,37.2,38.3,35.7,38.3,33.4z"/>
	<path class="st0" d="M42.6,37.7l1.2-1.8c1.3,1,2.7,1.4,3.9,1.4c1.2,0,1.8-0.5,1.8-1.3v0c0-0.9-1.2-1.2-2.6-1.7
		c-1.7-0.5-3.7-1.2-3.7-3.5v0c0-2.2,1.9-3.6,4.2-3.6c1.5,0,3.1,0.5,4.3,1.3l-1.1,1.9c-1.1-0.7-2.3-1.1-3.3-1.1c-1,0-1.7,0.5-1.7,1.2
		v0c0,0.9,1.3,1.2,2.7,1.7c1.7,0.5,3.7,1.3,3.7,3.4v0c0,2.5-1.9,3.7-4.4,3.7C45.9,39.5,44.1,38.9,42.6,37.7z"/>
	<path class="st0" d="M53.8,33.4L53.8,33.4c0-3.4,2.4-6.2,5.8-6.2c3.7,0,5.6,2.9,5.6,6.3c0,0.2,0,0.5,0,0.8h-8.7
		c0.3,1.9,1.7,3,3.4,3c1.3,0,2.3-0.5,3.2-1.4l1.6,1.4c-1.1,1.3-2.7,2.2-4.8,2.2C56.5,39.5,53.8,37,53.8,33.4z M62.5,32.5
		c-0.2-1.7-1.2-3.1-3-3.1c-1.7,0-2.8,1.3-3.1,3.1H62.5z"/>
	<path class="st0" d="M67,33.4L67,33.4c0-3.4,2.6-6.2,6.1-6.2c2.2,0,3.6,0.8,4.7,2l-1.7,1.8c-0.8-0.9-1.7-1.5-3-1.5
		c-2,0-3.4,1.7-3.4,3.7v0c0,2.1,1.4,3.8,3.5,3.8c1.3,0,2.2-0.6,3.1-1.4l1.6,1.6c-1.2,1.3-2.5,2.2-4.8,2.2C69.6,39.5,67,36.8,67,33.4
		z"/>
	<path class="st0" d="M80.2,27.5h2.7v2.7c0.7-1.8,2.1-3,4.2-2.9v2.9h-0.2c-2.4,0-4,1.5-4,4.7v4.5h-2.7V27.5z"/>
	<path class="st0" d="M88.1,33.4L88.1,33.4c0-3.4,2.4-6.2,5.8-6.2c3.7,0,5.6,2.9,5.6,6.3c0,0.2,0,0.5,0,0.8h-8.7
		c0.3,1.9,1.7,3,3.4,3c1.3,0,2.3-0.5,3.2-1.4l1.6,1.4c-1.1,1.3-2.7,2.2-4.8,2.2C90.7,39.5,88.1,37,88.1,33.4z M96.8,32.5
		c-0.2-1.7-1.2-3.1-3-3.1c-1.7,0-2.8,1.3-3.1,3.1H96.8z"/>
	<path class="st0" d="M102.5,36v-6.2H101v-2.3h1.5v-3.2h2.7v3.2h3.2v2.3h-3.2v5.8c0,1,0.5,1.5,1.4,1.5c0.6,0,1.1-0.1,1.7-0.4v2.2
		c-0.7,0.4-1.4,0.6-2.4,0.6C103.9,39.5,102.5,38.6,102.5,36z"/>
	<path class="st0" d="M110.1,35.9L110.1,35.9c0-2.6,2-3.8,4.9-3.8c1.3,0,2.3,0.2,3.2,0.5v-0.3c0-1.7-1-2.6-2.9-2.6
		c-1.3,0-2.3,0.3-3.4,0.7l-0.7-2.1c1.3-0.6,2.6-1,4.4-1c1.8,0,3.1,0.5,3.9,1.3c0.9,0.8,1.3,2.1,1.3,3.6v7h-2.6v-1.5
		c-0.8,1-2,1.7-3.8,1.7C112.1,39.5,110.1,38.2,110.1,35.9z M118.2,35v-0.8c-0.7-0.3-1.6-0.5-2.7-0.5c-1.7,0-2.8,0.7-2.8,2v0
		c0,1.1,1,1.8,2.3,1.8C116.8,37.5,118.2,36.5,118.2,35z"/>
	<path class="st0" d="M123.7,27.5h2.7v2.7c0.7-1.8,2.1-3,4.2-2.9v2.9h-0.2c-2.4,0-4,1.5-4,4.7v4.5h-2.7V27.5z"/>
	<path class="st0" d="M132.9,27.5h2.7v11.8h-2.7V27.5z M135.4,22.3l2.5,1.1l-2.7,2.6h-2L135.4,22.3z"/>
	<path class="st0" d="M138,35.9L138,35.9c0-2.6,2-3.8,4.9-3.8c1.3,0,2.3,0.2,3.2,0.5v-0.3c0-1.7-1-2.6-2.9-2.6
		c-1.3,0-2.3,0.3-3.4,0.7l-0.7-2.1c1.3-0.6,2.6-1,4.4-1c1.8,0,3.1,0.5,3.9,1.3c0.9,0.8,1.3,2.1,1.3,3.6v7h-2.6v-1.5
		c-0.8,1-2,1.7-3.8,1.7C140,39.5,138,38.2,138,35.9z M146.1,35v-0.8c-0.7-0.3-1.6-0.5-2.7-0.5c-1.7,0-2.8,0.7-2.8,2v0
		c0,1.1,1,1.8,2.3,1.8C144.8,37.5,146.1,36.5,146.1,35z"/>
	<path class="st0" d="M157.5,33.4L157.5,33.4c0-3.9,2.7-6.2,5.5-6.2c1.9,0,3.2,1,4,2.1V23h2.7v16.3H167v-2c-0.9,1.2-2.1,2.2-4,2.2
		C160.2,39.5,157.5,37.3,157.5,33.4z M167,33.4L167,33.4c0-2.3-1.6-3.8-3.4-3.8c-1.9,0-3.4,1.4-3.4,3.8v0c0,2.3,1.6,3.8,3.4,3.8
		C165.4,37.2,167,35.6,167,33.4z"/>
	<path class="st0" d="M172.2,33.4L172.2,33.4c0-3.4,2.4-6.2,5.8-6.2c3.7,0,5.6,2.9,5.6,6.3c0,0.2,0,0.5,0,0.8h-8.7
		c0.3,1.9,1.7,3,3.4,3c1.3,0,2.3-0.5,3.2-1.4l1.6,1.4c-1.1,1.3-2.7,2.2-4.8,2.2C174.8,39.5,172.2,37,172.2,33.4z M180.9,32.5
		c-0.2-1.7-1.2-3.1-3-3.1c-1.7,0-2.8,1.3-3.1,3.1H180.9z"/>
	<path class="st0" d="M192.1,31.5L192.1,31.5c0-4.4,3.3-8.1,8.1-8.1c2.7,0,4.4,0.8,6,2.1l-1.7,2.1c-1.2-1-2.4-1.7-4.4-1.7
		c-2.9,0-5.1,2.5-5.1,5.5v0c0,3.2,2.1,5.6,5.3,5.6c1.5,0,2.8-0.5,3.8-1.2v-2.9h-4v-2.4h6.6v6.6c-1.5,1.3-3.7,2.4-6.5,2.4
		C195.3,39.5,192.1,36,192.1,31.5z"/>
	<path class="st0" d="M209.1,33.4L209.1,33.4c0-3.4,2.7-6.2,6.3-6.2c3.6,0,6.3,2.7,6.3,6.1v0c0,3.3-2.7,6.1-6.3,6.1
		C211.7,39.5,209.1,36.8,209.1,33.4z M219,33.4L219,33.4c0-2.1-1.5-3.8-3.6-3.8c-2.2,0-3.5,1.7-3.5,3.7v0c0,2.1,1.5,3.8,3.6,3.8
		C217.6,37.2,219,35.5,219,33.4z"/>
	<path class="st0" d="M226.8,37.4v1.8h-2.7V23h2.7v6.5c0.9-1.2,2.1-2.2,4-2.2c2.8,0,5.5,2.2,5.5,6.1v0c0,3.9-2.7,6.1-5.5,6.1
		C228.9,39.5,227.7,38.5,226.8,37.4z M233.6,33.4L233.6,33.4c0-2.3-1.5-3.8-3.4-3.8c-1.8,0-3.4,1.5-3.4,3.8v0c0,2.3,1.6,3.8,3.4,3.8
		C232.1,37.2,233.6,35.7,233.6,33.4z"/>
	<path class="st0" d="M238.9,23.1h2.9v2.6h-2.9V23.1z M239,27.5h2.7v11.8H239V27.5z"/>
	<path class="st0" d="M244.3,33.4L244.3,33.4c0-3.4,2.4-6.2,5.8-6.2c3.7,0,5.6,2.9,5.6,6.3c0,0.2,0,0.5,0,0.8H247
		c0.3,1.9,1.7,3,3.4,3c1.3,0,2.3-0.5,3.2-1.4l1.6,1.4c-1.1,1.3-2.7,2.2-4.8,2.2C247,39.5,244.3,37,244.3,33.4z M253.1,32.5
		c-0.2-1.7-1.2-3.1-3-3.1c-1.7,0-2.8,1.3-3.1,3.1H253.1z"/>
	<path class="st0" d="M258.2,27.5h2.7v2.7c0.7-1.8,2.1-3,4.2-2.9v2.9h-0.2c-2.4,0-4,1.5-4,4.7v4.5h-2.7V27.5z"/>
	<path class="st0" d="M267.2,27.5h2.7v1.8c0.8-1.1,1.9-2.1,3.7-2.1c2.7,0,4.2,1.8,4.2,4.5v7.5h-2.7v-6.7c0-1.8-0.9-2.9-2.5-2.9
		c-1.6,0-2.7,1.1-2.7,2.9v6.6h-2.7V27.5z"/>
	<path class="st0" d="M280.1,33.4L280.1,33.4c0-3.4,2.7-6.2,6.3-6.2c3.6,0,6.3,2.7,6.3,6.1v0c0,3.3-2.7,6.1-6.3,6.1
		C282.8,39.5,280.1,36.8,280.1,33.4z M290,33.4L290,33.4c0-2.1-1.5-3.8-3.6-3.8c-2.2,0-3.5,1.7-3.5,3.7v0c0,2.1,1.5,3.8,3.6,3.8
		C288.6,37.2,290,35.5,290,33.4z"/>
	<path class="st0" d="M301.9,23.6h5.8c4.9,0,8.3,3.4,8.3,7.8v0c0,4.4-3.4,7.8-8.3,7.8h-5.8V23.6z M304.7,26.1v10.6h3.1
		c3.3,0,5.4-2.2,5.4-5.3v0c0-3.1-2.1-5.3-5.4-5.3H304.7z"/>
	<path class="st0" d="M318.9,23.1h2.9v2.6h-2.9V23.1z M319,27.5h2.7v11.8H319V27.5z"/>
	<path class="st0" d="M324.9,41.5l1-2c1.3,0.8,2.6,1.3,4.2,1.3c2.4,0,3.7-1.3,3.7-3.6v-0.9c-1,1.3-2.2,2.2-4.1,2.2
		c-2.8,0-5.4-2.1-5.4-5.5v0c0-3.5,2.6-5.5,5.4-5.5c2,0,3.2,0.9,4.1,2v-1.8h2.7v9.4c0,2-0.5,3.5-1.5,4.4c-1.1,1.1-2.7,1.6-4.8,1.6
		C328.2,42.9,326.4,42.4,324.9,41.5z M333.9,32.8L333.9,32.8c0-2-1.6-3.3-3.5-3.3c-1.9,0-3.3,1.3-3.3,3.2v0c0,1.9,1.5,3.2,3.3,3.2
		C332.3,36,333.9,34.7,333.9,32.8z"/>
	<path class="st0" d="M339.7,23.1h2.9v2.6h-2.9V23.1z M339.8,27.5h2.7v11.8h-2.7V27.5z"/>
	<path class="st0" d="M346.3,36v-6.2h-1.5v-2.3h1.5v-3.2h2.7v3.2h3.2v2.3H349v5.8c0,1,0.5,1.5,1.4,1.5c0.6,0,1.1-0.1,1.7-0.4v2.2
		c-0.7,0.4-1.4,0.6-2.4,0.6C347.8,39.5,346.3,38.6,346.3,36z"/>
	<path class="st0" d="M353.9,35.9L353.9,35.9c0-2.6,2-3.8,4.9-3.8c1.3,0,2.3,0.2,3.2,0.5v-0.3c0-1.7-1-2.6-2.9-2.6
		c-1.3,0-2.3,0.3-3.4,0.7l-0.7-2.1c1.3-0.6,2.6-1,4.4-1c1.8,0,3.1,0.5,3.9,1.3c0.9,0.8,1.3,2.1,1.3,3.6v7h-2.6v-1.5
		c-0.8,1-2,1.7-3.8,1.7C355.9,39.5,353.9,38.2,353.9,35.9z M362,35v-0.8c-0.7-0.3-1.6-0.5-2.7-0.5c-1.7,0-2.8,0.7-2.8,2v0
		c0,1.1,1,1.8,2.3,1.8C360.6,37.5,362,36.5,362,35z"/>
	<path class="st0" d="M367.7,23h2.7v16.3h-2.7V23z"/>
</g>
</svg>
