<svg xmlns="http://www.w3.org/2000/svg" width="116.173" height="18.329" viewBox="0 0 116.173 18.329">
  <g id="logo_ma" transform="translate(-15.494 -29.085)">
    <g id="Group_1" data-name="Group 1" transform="translate(15.494 29.085)">
      <path id="Path_1" data-name="Path 1" d="M231.8,52.884a1.566,1.566,0,0,1,1.584-1.584h.348a1.624,1.624,0,0,1,1.429.811l3.8,6.2,3.824-6.219a1.516,1.516,0,0,1,1.41-.792h.348a1.566,1.566,0,0,1,1.584,1.584V64.26a1.565,1.565,0,1,1-3.129,0V57.113l-2.762,4.249a1.485,1.485,0,0,1-2.627,0l-2.723-4.191V64.3a1.538,1.538,0,0,1-1.564,1.526A1.517,1.517,0,0,1,231.8,64.3Z" transform="translate(-231.8 -50.682)" fill="#0060ad"/>
      <path id="Path_2" data-name="Path 2" d="M319.1,49.549c0-.908.753-1.449,1.738-1.449a1.542,1.542,0,0,1,1.738,1.449v.039a1.763,1.763,0,0,1-3.477,0Zm.193,4.056a1.554,1.554,0,0,1,1.545-1.564A1.57,1.57,0,0,1,322.4,53.6V61.7a1.554,1.554,0,0,1-1.564,1.545,1.537,1.537,0,0,1-1.545-1.545Z" transform="translate(-302.239 -48.1)" fill="#0060ad"/>
      <path id="Path_3" data-name="Path 3" d="M347.048,64.323l5.813-12.709a1.061,1.061,0,0,1,1.024-.715h.077a1.055,1.055,0,0,1,1,.715L360.78,64.3a1.124,1.124,0,0,1,.1.406.775.775,0,0,1-.773.773.872.872,0,0,1-.792-.6l-1.487-3.3h-7.861l-1.487,3.341a.805.805,0,0,1-.773.56.81.81,0,0,1-.657-1.159Zm10.12-4.191-3.3-7.32-3.3,7.32Z" transform="translate(-324.721 -50.359)" fill="#0094d4"/>
      <path id="Path_4" data-name="Path 4" d="M431,71.25a.792.792,0,0,1,.773-.792.783.783,0,0,1,.792.792v1.97a4.38,4.38,0,0,1,3.65-2.82.756.756,0,0,1,.773.792.779.779,0,0,1-.7.792c-2.047.251-3.728,1.777-3.728,4.828V80.4a.782.782,0,1,1-1.564,0Z" transform="translate(-392.527 -66.093)" fill="#0094d4"/>
      <path id="Path_5" data-name="Path 5" d="M468.969,82.782a.708.708,0,0,1-.406-.657.751.751,0,0,1,.715-.7.667.667,0,0,1,.348.1,6.693,6.693,0,0,0,3.747,1.14c2.337,0,3.844-1.294,3.844-3.766V77.645a4.984,4.984,0,0,1-4.153,2.221,4.881,4.881,0,0,1-4.964-4.944v-.039a4.9,4.9,0,0,1,4.964-4.983,4.98,4.98,0,0,1,4.133,2.125v-1.2a.779.779,0,0,1,.773-.792.8.8,0,0,1,.792.792v8.035a5.071,5.071,0,0,1-1.352,3.747,5.558,5.558,0,0,1-4.037,1.41A7.991,7.991,0,0,1,468.969,82.782Zm8.286-7.841V74.9a3.7,3.7,0,0,0-3.882-3.573,3.5,3.5,0,0,0-3.67,3.554v.039a3.578,3.578,0,0,0,3.67,3.592A3.734,3.734,0,0,0,477.255,74.941Z" transform="translate(-422.461 -65.69)" fill="#0094d4"/>
      <path id="Path_6" data-name="Path 6" d="M540.773,81.048a5.253,5.253,0,0,1-5.273-5.5V75.5a5.215,5.215,0,0,1,5.08-5.5c3.129,0,4.906,2.549,4.906,5.369a.733.733,0,0,1-.734.734H537.1a3.684,3.684,0,0,0,3.728,3.573,4.247,4.247,0,0,0,3.052-1.236.721.721,0,0,1,.444-.193.688.688,0,0,1,.7.676.613.613,0,0,1-.251.5A5.335,5.335,0,0,1,540.773,81.048Zm3.129-6.122c-.155-1.931-1.275-3.592-3.38-3.592-1.835,0-3.225,1.526-3.438,3.592Z" transform="translate(-476.844 -65.77)" fill="#0094d4"/>
      <path id="Path_7" data-name="Path 7" d="M598.9,70.927a.792.792,0,0,1,.773-.792.783.783,0,0,1,.792.792v1.14A4.007,4.007,0,0,1,604.076,70c2.55,0,4.056,1.719,4.056,4.23V80.1a.782.782,0,1,1-1.564,0V74.616c0-1.97-1.062-3.187-2.916-3.187a3.116,3.116,0,0,0-3.167,3.322V80.12a.767.767,0,0,1-.773.792.783.783,0,0,1-.792-.792V70.927Z" transform="translate(-527.999 -65.77)" fill="#0094d4"/>
      <path id="Path_8" data-name="Path 8" d="M657.945,65.167V58.793h-.85a.718.718,0,0,1-.7-.7.7.7,0,0,1,.7-.7h.85V54.892a.779.779,0,0,1,.773-.792.808.808,0,0,1,.792.792v2.491h2.743a.722.722,0,0,1,.715.7.709.709,0,0,1-.715.7H659.51v6.18a1.56,1.56,0,0,0,1.777,1.758,4.831,4.831,0,0,0,.966-.135.666.666,0,0,1,.232,1.294,3.8,3.8,0,0,1-1.545.29A2.7,2.7,0,0,1,657.945,65.167Z" transform="translate(-574.393 -52.941)" fill="#0094d4"/>
      <path id="Path_9" data-name="Path 9" d="M701.7,50.53a.944.944,0,0,1,1.874,0v.27a.944.944,0,0,1-1.874,0Zm.135,4.017a.792.792,0,0,1,.772-.792.783.783,0,0,1,.792.792v9.193a.767.767,0,0,1-.773.792.783.783,0,0,1-.792-.792Z" transform="translate(-610.944 -49.391)" fill="#0094d4"/>
      <path id="Path_10" data-name="Path 10" d="M726.9,70.927a.792.792,0,0,1,.773-.792.783.783,0,0,1,.792.792v1.14A4.007,4.007,0,0,1,732.076,70c2.549,0,4.056,1.719,4.056,4.23V80.1a.782.782,0,1,1-1.564,0V74.616c0-1.97-1.062-3.187-2.917-3.187a3.116,3.116,0,0,0-3.167,3.322V80.12a.767.767,0,0,1-.773.792.783.783,0,0,1-.792-.792V70.927Z" transform="translate(-631.277 -65.77)" fill="#0094d4"/>
      <path id="Path_11" data-name="Path 11" d="M785.3,78.048V78.01c0-2.221,1.835-3.419,4.52-3.419a11.636,11.636,0,0,1,3.245.444v-.367c0-1.893-1.159-2.878-3.148-2.878a6.6,6.6,0,0,0-2.742.6.856.856,0,0,1-.29.058.7.7,0,0,1-.7-.676.733.733,0,0,1,.425-.657,8.425,8.425,0,0,1,3.457-.715,4.666,4.666,0,0,1,3.419,1.159,4.177,4.177,0,0,1,1.082,3.09v5.794a.747.747,0,0,1-.753.773.726.726,0,0,1-.753-.734v-.966a4.625,4.625,0,0,1-3.824,1.815C787.289,81.351,785.3,80.231,785.3,78.048Zm7.8-.811V76.213a10.762,10.762,0,0,0-3.11-.444c-1.989,0-3.09.85-3.09,2.182v.039c0,1.333,1.236,2.105,2.665,2.105C791.5,80.1,793.1,78.917,793.1,77.237Z" transform="translate(-678.398 -66.093)" fill="#0094d4"/>
    </g>
  </g>
</svg>
