<?xml version="1.0" encoding="utf-8"?>
<!-- Generator: Adobe Illustrator 22.0.0, SVG Export Plug-In . SVG Version: 6.00 Build 0)  -->
<svg version="1.1" id="Layer_1" xmlns="http://www.w3.org/2000/svg" xmlns:xlink="http://www.w3.org/1999/xlink" x="0px" y="0px"
	 viewBox="0 0 317 59.8" style="enable-background:new 0 0 317 59.8;" xml:space="preserve">
<style type="text/css">
	.st0{fill:#0072BB;}
	.st1{fill:#0095D3;}
	.st2{fill:#FFFFFF;}
	.st3{fill:#211316;}
	.st4{fill:#0086BB;}
	.st5{fill:#E8B426;}
	.st6{fill:#3B9749;}
	.st7{fill:#D6432A;}
	.st8{fill:#E9B17A;}
</style>
<g>
	<g>
		<path class="st0" d="M49.5,23.6h6.2c3.7,0,5.9,2.1,5.9,5.2v0c0,3.5-2.8,5.3-6.2,5.3h-3.1v5h-2.7V23.6z M55.4,31.8
			c2.1,0,3.4-1.2,3.4-2.8v0c0-1.8-1.3-2.8-3.4-2.8h-3.2v5.6H55.4z"/>
		<path class="st0" d="M63.8,27.5h2.7v2.7c0.7-1.8,2.1-3,4.2-2.9v2.9h-0.2c-2.4,0-4,1.5-4,4.7v4.5h-2.7V27.5z"/>
		<path class="st0" d="M71.8,33.4L71.8,33.4c0-3.4,2.4-6.2,5.8-6.2c3.7,0,5.6,2.9,5.6,6.3c0,0.2,0,0.5,0,0.8h-8.7
			c0.3,1.9,1.7,3,3.4,3c1.3,0,2.3-0.5,3.2-1.4l1.6,1.4c-1.1,1.3-2.7,2.2-4.8,2.2C74.4,39.5,71.8,37,71.8,33.4z M80.5,32.5
			c-0.2-1.7-1.2-3.1-3-3.1c-1.7,0-2.8,1.3-3.1,3.1H80.5z"/>
		<path class="st0" d="M84.7,37.7l1.2-1.8c1.3,1,2.7,1.4,3.9,1.4c1.2,0,1.8-0.5,1.8-1.3v0c0-0.9-1.2-1.2-2.6-1.7
			c-1.7-0.5-3.7-1.2-3.7-3.5v0c0-2.2,1.9-3.6,4.2-3.6c1.5,0,3.1,0.5,4.3,1.3l-1.1,1.9c-1.1-0.7-2.3-1.1-3.3-1.1
			c-1,0-1.7,0.5-1.7,1.2v0c0,0.9,1.3,1.2,2.7,1.7c1.7,0.5,3.7,1.3,3.7,3.4v0c0,2.5-1.9,3.7-4.4,3.7C88,39.5,86.1,38.9,84.7,37.7z"/>
		<path class="st0" d="M96.6,23.1h2.9v2.6h-2.9V23.1z M96.7,27.5h2.7v11.8h-2.7V27.5z"/>
		<path class="st0" d="M102.1,33.4L102.1,33.4c0-3.9,2.7-6.2,5.5-6.2c1.9,0,3.2,1,4,2.1V23h2.7v16.3h-2.7v-2c-0.9,1.2-2.1,2.2-4,2.2
			C104.8,39.5,102.1,37.3,102.1,33.4z M111.6,33.4L111.6,33.4c0-2.3-1.6-3.8-3.4-3.8c-1.9,0-3.4,1.4-3.4,3.8v0
			c0,2.3,1.6,3.8,3.4,3.8C110,37.2,111.6,35.6,111.6,33.4z"/>
		<path class="st0" d="M116.8,33.4L116.8,33.4c0-3.4,2.4-6.2,5.8-6.2c3.7,0,5.6,2.9,5.6,6.3c0,0.2,0,0.5,0,0.8h-8.7
			c0.3,1.9,1.7,3,3.4,3c1.3,0,2.3-0.5,3.2-1.4l1.6,1.4c-1.1,1.3-2.7,2.2-4.8,2.2C119.4,39.5,116.8,37,116.8,33.4z M125.5,32.5
			c-0.2-1.7-1.2-3.1-3-3.1c-1.7,0-2.8,1.3-3.1,3.1H125.5z"/>
		<path class="st0" d="M130.6,27.5h2.7v1.8c0.8-1.1,1.9-2.1,3.7-2.1c2.7,0,4.2,1.8,4.2,4.5v7.5h-2.7v-6.7c0-1.8-0.9-2.9-2.5-2.9
			c-1.6,0-2.7,1.1-2.7,2.9v6.6h-2.7V27.5z"/>
		<path class="st0" d="M143.6,33.4L143.6,33.4c0-3.4,2.6-6.2,6.1-6.2c2.2,0,3.6,0.8,4.7,2l-1.7,1.8c-0.8-0.9-1.7-1.5-3-1.5
			c-2,0-3.4,1.7-3.4,3.7v0c0,2.1,1.4,3.8,3.5,3.8c1.3,0,2.2-0.6,3.1-1.4l1.6,1.6c-1.2,1.3-2.5,2.2-4.8,2.2
			C146.2,39.5,143.6,36.8,143.6,33.4z"/>
		<path class="st0" d="M156.7,23.1h2.9v2.6h-2.9V23.1z M156.9,27.5h2.7v11.8h-2.7V27.5z"/>
		<path class="st0" d="M162.1,35.9L162.1,35.9c0-2.6,2-3.8,4.9-3.8c1.3,0,2.3,0.2,3.2,0.5v-0.3c0-1.7-1-2.6-2.9-2.6
			c-1.3,0-2.3,0.3-3.4,0.7l-0.7-2.1c1.3-0.6,2.6-1,4.4-1c1.8,0,3.1,0.5,3.9,1.3c0.9,0.8,1.3,2.1,1.3,3.6v7h-2.6v-1.5
			c-0.8,1-2,1.7-3.8,1.7C164,39.5,162.1,38.2,162.1,35.9z M170.1,35v-0.8c-0.7-0.3-1.6-0.5-2.7-0.5c-1.7,0-2.8,0.7-2.8,2v0
			c0,1.1,1,1.8,2.3,1.8C168.8,37.5,170.1,36.5,170.1,35z"/>
		<path class="st0" d="M181.5,33.4L181.5,33.4c0-3.9,2.7-6.2,5.5-6.2c1.9,0,3.2,1,4,2.1V23h2.7v16.3H191v-2c-0.9,1.2-2.1,2.2-4,2.2
			C184.2,39.5,181.5,37.3,181.5,33.4z M191,33.4L191,33.4c0-2.3-1.6-3.8-3.4-3.8c-1.9,0-3.4,1.4-3.4,3.8v0c0,2.3,1.6,3.8,3.4,3.8
			C189.4,37.2,191,35.6,191,33.4z"/>
		<path class="st0" d="M196.2,33.4L196.2,33.4c0-3.4,2.4-6.2,5.8-6.2c3.7,0,5.6,2.9,5.6,6.3c0,0.2,0,0.5,0,0.8h-8.7
			c0.3,1.9,1.7,3,3.4,3c1.3,0,2.3-0.5,3.2-1.4l1.6,1.4c-1.1,1.3-2.7,2.2-4.8,2.2C198.8,39.5,196.2,37,196.2,33.4z M204.9,32.5
			c-0.2-1.7-1.2-3.1-3-3.1c-1.7,0-2.8,1.3-3.1,3.1H204.9z"/>
		<path class="st0" d="M216.7,23h2.7v16.3h-2.7V23z"/>
		<path class="st0" d="M221.9,35.9L221.9,35.9c0-2.6,2-3.8,4.9-3.8c1.3,0,2.3,0.2,3.2,0.5v-0.3c0-1.7-1-2.6-2.9-2.6
			c-1.3,0-2.3,0.3-3.4,0.7l-0.7-2.1c1.3-0.6,2.6-1,4.4-1c1.8,0,3.1,0.5,3.9,1.3c0.9,0.8,1.3,2.1,1.3,3.6v7h-2.6v-1.5
			c-0.8,1-2,1.7-3.8,1.7C223.8,39.5,221.9,38.2,221.9,35.9z M229.9,35v-0.8c-0.7-0.3-1.6-0.5-2.7-0.5c-1.7,0-2.8,0.7-2.8,2v0
			c0,1.1,1,1.8,2.3,1.8C228.6,37.5,229.9,36.5,229.9,35z"/>
		<path class="st0" d="M242.2,23.6h2.5l8.4,10.8V23.6h2.7v15.6h-2.3l-8.6-11.1v11.1h-2.7V23.6z"/>
		<path class="st0" d="M258.5,35.9L258.5,35.9c0-2.6,2-3.8,4.9-3.8c1.3,0,2.3,0.2,3.2,0.5v-0.3c0-1.7-1-2.6-2.9-2.6
			c-1.3,0-2.3,0.3-3.4,0.7l-0.7-2.1c1.3-0.6,2.6-1,4.4-1c1.8,0,3.1,0.5,3.9,1.3c0.9,0.8,1.3,2.1,1.3,3.6v7h-2.6v-1.5
			c-0.8,1-2,1.7-3.8,1.7C260.5,39.5,258.5,38.2,258.5,35.9z M266.6,35v-0.8c-0.7-0.3-1.6-0.5-2.7-0.5c-1.7,0-2.8,0.7-2.8,2v0
			c0,1.1,1,1.8,2.3,1.8C265.2,37.5,266.6,36.5,266.6,35z"/>
		<path class="st0" d="M271.5,33.4L271.5,33.4c0-3.4,2.6-6.2,6.1-6.2c2.2,0,3.6,0.8,4.7,2l-1.7,1.8c-0.8-0.9-1.7-1.5-3-1.5
			c-2,0-3.4,1.7-3.4,3.7v0c0,2.1,1.4,3.8,3.5,3.8c1.3,0,2.2-0.6,3.1-1.4l1.6,1.6c-1.2,1.3-2.5,2.2-4.8,2.2
			C274.1,39.5,271.5,36.8,271.5,33.4z"/>
		<path class="st0" d="M284.7,23.1h2.9v2.6h-2.9V23.1z M284.8,27.5h2.7v11.8h-2.7V27.5z"/>
		<path class="st0" d="M290.1,33.4L290.1,33.4c0-3.4,2.7-6.2,6.3-6.2c3.6,0,6.3,2.7,6.3,6.1v0c0,3.3-2.7,6.1-6.3,6.1
			C292.8,39.5,290.1,36.8,290.1,33.4z M300,33.4L300,33.4c0-2.1-1.5-3.8-3.6-3.8c-2.2,0-3.5,1.7-3.5,3.7v0c0,2.1,1.5,3.8,3.6,3.8
			C298.6,37.2,300,35.5,300,33.4z M297.6,22.3l2.5,1.1l-2.7,2.6h-2L297.6,22.3z"/>
		<path class="st0" d="M305.2,27.5h2.7v1.8c0.8-1.1,1.9-2.1,3.7-2.1c2.7,0,4.2,1.8,4.2,4.5v7.5H313v-6.7c0-1.8-0.9-2.9-2.5-2.9
			c-1.6,0-2.7,1.1-2.7,2.9v6.6h-2.7V27.5z"/>
	</g>
	<g>
		<path class="st1" d="M18.4,28.7h-3.3c-0.7,0-1.1-0.3-1.3-0.5c-0.2-0.2-0.3-0.5-0.3-0.8c0,0,0,0,0-0.1c0-0.3,0-0.6,0-1
			c0.4-2.1,1.3-3.5,2-4.4c-0.1,0-0.2-0.1-0.2-0.1c-0.4-0.3-0.7-0.8-0.6-1.3c0.1-0.7,0.8-1.4,0.9-1.5c1.1-1.3,2.8-1.4,3-1.4
			c0.2,0,2.4-0.1,3.6,2.2c1.4,2.7,1.7,5,2,6.8l0,0.1c0,0.3,0,0.6,0,0.8c0,0,0,0,0,0.1c-0.1,0.3-0.2,0.4-0.3,0.6
			c-0.3,0.3-0.7,0.5-1.3,0.6c-0.2,0-0.4,0-0.6,0c-0.1,0-0.1,0-0.1,0h-0.9h0h0h-1.6v4.6h14.5c0-2.7-0.4-5.3-1.2-7.7
			c-0.8-2.4-1.8-4.5-3.2-6.3c-1.4-1.8-3-3.2-4.8-4.2c-1.8-1-3.8-1.5-5.8-1.5c-2,0-4,0.5-5.8,1.5c-1.8,1-3.4,2.4-4.8,4.2
			c-1.4,1.8-2.5,3.9-3.2,6.3c-0.8,2.4-1.2,5-1.2,7.7h14.5V28.7z"/>
		<path class="st2" d="M3.8,33.3c0,2,0.2,4,0.7,5.9c6.5-0.7,10.4-1.5,11.5-2.3c0.8-0.6,1.5-0.9,2.3-0.9v-2.8H3.8z"/>
		<path class="st2" d="M19.3,36.2c0.6,0.1,1,0.3,1.5,0.5c0,0,0.1,0,0.1,0c0.8,0,1.5,0.2,2.5,0.6c0.3,0.1,0.6,0.2,0.9,0.3
			c0.1,0,4.8,1.5,8.8,1.7c0.5-1.9,0.7-3.9,0.7-6H19.3V36.2z"/>
		<path class="st3" d="M17.9,11"/>
		<path class="st3" d="M14.9,11.5"/>
		<path class="st2" d="M25.3,42.5c-0.1,0.1-0.1,0.3-0.3,0.4c-0.2,0.2-0.6,0.4-1,0.4c-0.1,0.1-0.1,0.2-0.2,0.4
			c-0.2,0.3-0.6,0.5-1.3,0.5c-0.1,0.1-0.1,0.2-0.3,0.3c-0.3,0.3-0.8,0.5-1.2,0.4c-0.1,0.1-0.3,0.2-0.5,0.3c-0.3,0.1-0.7,0.2-1.2,0.1
			V49c0,0.3-0.2,0.5-0.5,0.5c-0.3,0-0.5-0.2-0.5-0.5v-3.7c-0.2,0.1-0.4,0.1-0.6,0.1c-0.1,0-0.2,0-0.3,0c-0.3-0.1-0.5-0.2-0.7-0.4
			c-0.3,0.1-0.9,0.1-1.3-0.2c-0.2-0.1-0.3-0.3-0.4-0.5c-0.1,0-0.3,0-0.5-0.1c-0.4-0.1-0.7-0.4-0.9-0.7c-0.1,0-0.2,0-0.3,0
			c-0.4-0.1-0.8-0.2-1-0.6c0-0.1-0.1-0.2-0.1-0.3c-2.1,1.1-4.4,2.1-5.5,2.6c0.4,0.7,0.9,1.4,1.3,2c1.4,1.8,3,3.2,4.8,4.2
			c0.8,0.5,1.7,0.8,2.6,1.1c0.1-0.2,0.2-0.3,0.4-0.4c0.8-0.5,2.4-0.1,2.9,0c0.4-0.1,2-0.5,2.9,0c0.2,0.1,0.3,0.2,0.4,0.4
			c0.9-0.3,1.7-0.6,2.6-1.1c1.8-1,3.4-2.4,4.8-4.2c0.5-0.6,0.9-1.2,1.3-1.9C29.5,44.9,26.9,43.8,25.3,42.5"/>
		<path class="st4" d="M20.2,55.6c0-0.1,0-0.2,0-0.3c0-0.1,0-0.2,0-0.3c0.5-0.1,1.3-0.3,1.7-0.9c0.3-0.3,0.4-0.7,0.3-1.1
			c0-0.4-0.2-0.7-0.5-0.8c-0.8-0.5-2.4-0.1-2.9,0c-0.4-0.1-2-0.5-2.9,0c-0.3,0.2-0.5,0.5-0.5,0.8c0,0.4,0.1,0.8,0.3,1.1
			c0.4,0.5,1.2,0.8,1.7,0.9c0,0.1,0,0.2,0,0.3c0,0.1,0,0.2,0,0.3c-0.4,0.3-1.5,1.3-3.2,1.5c0,0.1,0.2,0.3,0.5,0.6
			c1.5-0.3,2.5-1.1,3-1.5c0,0.1,0.1,0.1,0.2,0.1c-0.1,0.4-0.5,1.4-2.3,1.9c0.3,0.1,0.7,0.2,1.1,0.3c1.2-0.6,1.7-1.4,1.9-1.9
			c0.1,0,0.2,0,0.3,0c0.1,0,0.2,0,0.3,0c0.2,0.5,0.6,1.4,1.9,1.9c0.4-0.1,0.8-0.2,1.1-0.3c-1.8-0.4-2.2-1.5-2.3-1.9
			c0.1,0,0.1-0.1,0.2-0.1c0.5,0.4,1.5,1.2,3,1.5c0.3-0.3,0.4-0.5,0.5-0.6C21.7,56.9,20.6,55.9,20.2,55.6"/>
		<path class="st2" d="M21.4,52.7c0.1,0.1,0.2,0.2,0.2,0.4c0,0.2,0,0.4-0.2,0.6c-0.2,0.2-0.5,0.4-0.8,0.5c0.2-0.3,0.2-0.7,0.1-1
			c-0.1-0.3-0.3-0.5-0.5-0.7C20.6,52.5,21.1,52.5,21.4,52.7"/>
		<path class="st2" d="M17.7,53.4c0.2-0.6,1.2-0.7,1.2-0.7c0,0,0.2,0,0.5,0.1c0.3,0.1,0.6,0.3,0.7,0.6c0.1,0.3-0.1,0.6-0.3,0.8
			c-0.2-0.2-0.6-0.3-0.9-0.3c-0.4,0-0.7,0.1-0.9,0.3C17.8,54.1,17.6,53.7,17.7,53.4"/>
		<path class="st2" d="M17.1,54.2c-0.3-0.1-0.6-0.3-0.8-0.5c-0.1-0.2-0.2-0.4-0.2-0.6c0-0.2,0.1-0.3,0.2-0.4
			c0.2-0.1,0.5-0.2,0.8-0.2c0.1,0,0.3,0,0.4,0c-0.2,0.2-0.4,0.4-0.5,0.7C16.9,53.6,17,53.9,17.1,54.2"/>
		<path class="st2" d="M18.1,55.3c0-0.4,0.3-0.7,0.7-0.7c0.4,0,0.7,0.3,0.7,0.7S19.3,56,18.9,56C18.5,56,18.1,55.7,18.1,55.3"/>
		<path class="st2" d="M22.9,57.7c-1.5-0.3-2.5-1.1-3-1.5c0,0.1-0.1,0.1-0.2,0.1c0.1,0.4,0.6,1.4,2.3,1.9
			C22.4,58,22.7,57.9,22.9,57.7"/>
		<path class="st2" d="M17.8,56.2c-0.5,0.4-1.5,1.2-3,1.5c0.2,0.2,0.5,0.4,0.8,0.5c1.8-0.4,2.2-1.5,2.3-1.9
			C17.9,56.3,17.9,56.2,17.8,56.2"/>
		<path class="st3" d="M37,37.1c0-0.1,0-0.2-0.1-0.3c-0.1-0.1-0.1-0.1-0.2-0.1c0.1-0.1,0.1-0.3,0.2-0.4c0.2-0.6,0.3-1.3,0.4-2.1
			c0-0.1,0-0.2-0.1-0.3C37,34,36.9,34,36.9,34c0-0.1,0.1-0.3,0.1-0.4c0.2-0.6,0.2-1.3,0.1-2.1c0-0.1-0.1-0.2-0.2-0.2
			c-0.1,0-0.1,0-0.2,0c0-0.2,0.1-0.3,0.1-0.5c0.1-0.6,0.1-1.4-0.1-2.1c0-0.1-0.1-0.2-0.2-0.2c-0.1,0-0.1,0-0.2,0c0-0.1,0-0.2,0-0.3
			c0.1-0.6,0-1.4-0.2-2.1c0-0.1-0.1-0.2-0.2-0.2c-0.1,0-0.2,0-0.3,0h0c0-0.2,0-0.3,0-0.5c0-0.7-0.2-1.4-0.5-2.1
			c0-0.1-0.1-0.2-0.2-0.2c-0.1,0-0.2,0-0.2,0c0-0.2,0-0.3,0-0.5c-0.1-0.6-0.3-1.3-0.7-2c0-0.1-0.1-0.2-0.2-0.2c-0.1,0-0.2,0-0.2,0.1
			c0-0.1-0.1-0.3-0.1-0.4c-0.2-0.6-0.5-1.3-0.9-1.9c-0.1-0.1-0.2-0.1-0.3-0.1c-0.1,0-0.2,0.1-0.3,0.1c-0.1-0.2-0.1-0.3-0.2-0.5
			c-0.3-0.6-0.7-1.2-1.2-1.8c-0.1-0.1-0.2-0.1-0.3-0.1c-0.1,0-0.1,0.1-0.2,0.1c-0.1-0.2-0.2-0.3-0.3-0.5c-0.4-0.5-0.8-1.1-1.5-1.5
			c-0.1-0.1-0.2-0.1-0.3,0c-0.1,0-0.1,0.1-0.2,0.2c-0.4-0.5-1-0.9-1.7-1.2c0.1,0,0.3,0,0.4,0c0.9,0.1,1.5-0.1,1.5-0.1
			c0.2-0.1,0.3-0.2,0.3-0.4c0-0.2-0.2-0.3-0.4-0.3c-0.9,0-1.3-0.2-1.7-0.5c-0.1,0-0.2-0.1-0.3-0.1l2.2-0.3c0.2,0,0.3-0.2,0.3-0.4
			c0-0.2-0.1-0.4-0.3-0.4l-2.2-0.3c0.3-0.1,0.5-0.2,0.9-0.3c0.8-0.3,1.3-0.7,1.3-0.7c0.1-0.1,0.2-0.3,0.1-0.5
			C28.4,8.1,28.2,8,28,8.1c-0.9,0.3-1.3,0.3-1.8,0.2c-0.1,0-0.2,0-0.3,0l1.9-1.1C28,7,28.1,6.8,28,6.7c-0.1-0.2-0.3-0.3-0.5-0.2
			L25.4,7c0.2-0.2,0.5-0.4,0.7-0.6c0.6-0.6,0.9-1.1,1-1.1c0.1-0.2,0-0.4-0.1-0.5c-0.2-0.1-0.4-0.1-0.5,0c-0.7,0.6-1.1,0.7-1.6,0.9
			c-0.1,0-0.2,0.1-0.3,0.1L25.9,4c0.1-0.2,0.1-0.4,0-0.5s-0.4-0.2-0.5,0l-1.8,1.3C23.7,4.5,23.8,4.3,24,4c0.4-0.8,0.4-1.4,0.4-1.4
			c0-0.2-0.1-0.4-0.3-0.4c-0.2,0-0.4,0-0.5,0.2c-0.4,0.8-0.7,1.1-1.1,1.4c-0.1,0.1-0.1,0.1-0.2,0.2l0.5-2.1c0-0.2-0.1-0.4-0.2-0.5
			c-0.2-0.1-0.4,0-0.5,0.2L21,3.4c0-0.3,0.1-0.6,0.1-0.9c0-0.9-0.1-1.5-0.1-1.5c-0.1-0.2-0.2-0.3-0.4-0.3c-0.2,0-0.3,0.2-0.3,0.4
			c0,0.9-0.2,1.3-0.5,1.7c0,0.1-0.1,0.2-0.1,0.3l-0.3-2.2c0-0.2-0.2-0.3-0.4-0.3h0c-0.2,0-0.4,0.1-0.4,0.3l-0.3,2.2
			c-0.1-0.3-0.2-0.5-0.3-0.8c-0.3-0.8-0.7-1.3-0.7-1.3c-0.1-0.1-0.3-0.2-0.5-0.1c-0.2,0.1-0.2,0.3-0.2,0.5c0.3,0.9,0.3,1.3,0.2,1.8
			c0,0.1,0,0.2,0,0.3l-1.2-1.9c-0.1-0.2-0.3-0.2-0.5-0.2c-0.2,0.1-0.3,0.3-0.2,0.5l0.5,2.1c-0.2-0.2-0.4-0.4-0.6-0.7
			c-0.6-0.6-1.1-0.9-1.2-1c-0.2-0.1-0.4,0-0.5,0.1c-0.1,0.1-0.1,0.4,0,0.5c0.6,0.7,0.7,1.1,0.9,1.6c0,0.1,0.1,0.2,0.1,0.3l-1.8-1.3
			c-0.2-0.1-0.4-0.1-0.5,0c-0.1,0.1-0.2,0.4,0,0.5l1.3,1.8c-0.2-0.1-0.5-0.3-0.8-0.4C11.6,5,11,4.9,10.9,4.9c-0.2,0-0.4,0.1-0.4,0.3
			c-0.1,0.2,0,0.4,0.2,0.5c0.9,0.4,1.1,0.7,1.4,1.1c0.1,0.1,0.1,0.1,0.2,0.2l-2.2-0.5c-0.2,0-0.4,0-0.5,0.2c-0.1,0.2,0,0.4,0.2,0.5
			l1.9,1.1c-0.3,0-0.6-0.1-0.9-0.1c-0.9-0.1-1.5,0.1-1.5,0.1C9.2,8.4,9.1,8.6,9.1,8.8c0,0.2,0.2,0.3,0.4,0.3c0.9,0,1.3,0.2,1.7,0.5
			c0.1,0,0.2,0.1,0.3,0.1L9.3,10c-0.2,0-0.3,0.2-0.3,0.4c0,0.2,0.1,0.4,0.3,0.4l2.2,0.3c-0.3,0.1-0.6,0.2-0.9,0.3
			c-0.8,0.3-1.3,0.7-1.3,0.7c-0.1,0.1-0.2,0.3-0.1,0.5c0.1,0.2,0.3,0.2,0.5,0.2c0.5-0.2,0.9-0.2,1.2-0.3c-0.5,0.4-0.8,0.7-1,1
			c-0.1,0.1-0.2,0.2-0.2,0.3c0-0.1-0.1-0.1-0.2-0.1c-0.1,0-0.2,0-0.3,0c-0.6,0.5-1.1,1-1.5,1.6c-0.1,0.2-0.2,0.3-0.3,0.5
			c0-0.1-0.1-0.1-0.2-0.1c-0.1,0-0.2,0-0.3,0.1c-0.5,0.6-0.9,1.2-1.2,1.8c-0.1,0.2-0.1,0.3-0.2,0.5c-0.1,0-0.1-0.1-0.2-0.1
			c-0.1,0-0.2,0-0.3,0.1c-0.5,0.6-0.8,1.3-1,1.9c0,0.2-0.1,0.3-0.1,0.5c-0.1-0.1-0.2-0.1-0.3-0.1c-0.1,0-0.2,0.1-0.2,0.2
			c-0.4,0.7-0.6,1.4-0.7,2c0,0.2,0,0.3,0,0.5c-0.1-0.1-0.2-0.1-0.3-0.1c-0.1,0-0.2,0.1-0.2,0.2c-0.3,0.7-0.4,1.4-0.4,2.1
			c0,0.2,0,0.3,0,0.5c-0.1,0-0.2-0.1-0.3,0c-0.1,0-0.2,0.1-0.2,0.2c-0.2,0.8-0.2,1.5-0.2,2.1c0,0.1,0,0.2,0.1,0.4c0,0-0.1,0-0.1,0
			c-0.1,0-0.2,0.1-0.2,0.2c-0.1,0.8-0.2,1.5-0.1,2.1c0,0.2,0.1,0.3,0.1,0.5c0,0-0.1,0-0.1,0c-0.1,0-0.2,0.1-0.2,0.2
			c-0.1,0.8-0.1,1.5,0.1,2.1c0,0.1,0.1,0.3,0.1,0.4c-0.1,0-0.1,0-0.2,0c-0.1,0.1-0.1,0.2-0.1,0.3c0,0.8,0.1,1.5,0.3,2.1
			c0.1,0.2,0.1,0.4,0.2,0.5c0,0,0,0,0,0c-0.1,0-0.2,0-0.3,0.1c-0.1,0.1-0.1,0.2-0.1,0.3c0.1,0.8,0.3,1.5,0.7,2
			c0.1,0.1,0.1,0.2,0.2,0.3c-0.1,0-0.1,0-0.1,0.1c-0.1,0.1-0.1,0.2-0.1,0.3c0.2,0.8,0.5,1.4,0.8,2c0.1,0.1,0.2,0.3,0.3,0.4
			c-0.1,0-0.2,0.1-0.2,0.1C2,42.5,2,42.6,2,42.7c0.3,0.7,0.6,1.4,1,1.9c0.1,0.1,0.2,0.2,0.3,0.3c-0.1,0-0.1,0.1-0.2,0.1
			c-0.1,0.1-0.1,0.2,0,0.3c0.4,0.7,0.8,1.3,1.2,1.7c0.1,0.1,0.2,0.2,0.3,0.3c-0.1,0-0.1,0.1-0.2,0.2c0,0.1,0,0.2,0,0.3
			C5,48.5,5.5,49,6,49.4c0.2,0.1,0.3,0.2,0.5,0.3c0,0-0.1,0-0.1,0c-0.1,0-0.2,0.1-0.2,0.2c0,0.1,0,0.2,0.1,0.3
			c0.5,0.6,1.1,1,1.7,1.3c0.5,0.3,0.9,0.4,1.4,0.5c0.4,0.1,0.8,0.1,1.1,0c0,0,0,0,0.1,0c1,0.7,2,1.2,3.1,1.7
			c0.9,0.4,1.8,0.7,2.7,0.8c0.2,0,0.4,0.1,0.5,0.1c-0.4-0.1-0.8-0.4-1-0.7c0-0.1-0.1-0.1-0.1-0.2c-0.6-0.2-1.3-0.4-1.9-0.6
			c-1-0.4-2-1-2.9-1.6c0,0,0,0,0,0c0-0.3,0-0.6-0.1-0.9c0.7,0.5,1.3,1,1.9,1.3c0.9,0.5,1.8,0.9,2.8,1.1c0-0.1,0-0.1,0-0.2
			c0-0.2,0.1-0.3,0.1-0.4c-0.9-0.3-1.7-0.6-2.6-1.1c-1.8-1-3.4-2.4-4.8-4.2c-0.5-0.6-0.9-1.3-1.3-2c1.1-0.5,3.4-1.5,5.5-2.6
			c0,0.1,0,0.2,0.1,0.3c0.2,0.4,0.6,0.6,1,0.6c0.1,0,0.2,0,0.3,0c0.1,0.3,0.4,0.6,0.9,0.7c0.2,0.1,0.3,0.1,0.5,0.1
			c0.1,0.2,0.2,0.3,0.4,0.5c0.4,0.3,1,0.2,1.3,0.2c0.2,0.2,0.4,0.4,0.7,0.4c0.1,0,0.2,0,0.3,0c0.2,0,0.4-0.1,0.6-0.1V49
			c0,0.3,0.2,0.5,0.5,0.5s0.5-0.2,0.5-0.5v-3.8c0.5,0.1,0.9,0,1.2-0.1c0.2-0.1,0.4-0.2,0.5-0.3c0.5,0.1,0.9,0,1.2-0.4
			c0.1-0.1,0.2-0.2,0.3-0.3c0.7,0,1.1-0.2,1.3-0.5c0.1-0.1,0.2-0.3,0.2-0.4c0.4,0,0.7-0.1,1-0.4c0.1-0.1,0.2-0.2,0.3-0.4
			c1.7,1.3,4.3,2.4,5.4,2.9c-0.4,0.7-0.8,1.3-1.3,1.9c-1.4,1.8-3,3.2-4.8,4.2c-0.8,0.5-1.7,0.8-2.6,1.1c0.1,0.1,0.1,0.3,0.1,0.4
			c0,0.1,0,0.1,0,0.2c0.9-0.3,1.9-0.6,2.8-1.1c0.7-0.4,1.3-0.9,1.9-1.4c-0.1,0.3-0.1,0.6-0.1,1c0,0,0,0,0,0c-0.3,0.2-1,0.8-2.1,1.3
			c-0.8,0.4-1.7,0.7-2.6,1c0,0-0.1,0-0.1,0c0,0-0.1,0.1-0.1,0.1c-0.3,0.3-0.7,0.5-1.1,0.7c0.5-0.1,1-0.2,1.4-0.3
			c0.9-0.2,1.8-0.6,2.7-1c1.2-0.6,1.9-1.1,2.2-1.4c0,0,0,0,0,0c0.3,0.1,0.7,0.1,1.1,0c0.5-0.1,0.9-0.3,1.4-0.5
			c0.6-0.3,1.1-0.8,1.7-1.3c0.1-0.1,0.1-0.2,0.1-0.3c0-0.1-0.1-0.2-0.2-0.2c0,0,0,0,0,0c0.2-0.1,0.3-0.2,0.5-0.3
			c0.5-0.4,1-0.9,1.4-1.6c0.1-0.1,0.1-0.2,0-0.3c0-0.1-0.1-0.1-0.2-0.2c0.1-0.1,0.2-0.2,0.3-0.3c0.5-0.5,0.9-1,1.3-1.7
			c0-0.1,0-0.2,0-0.3c0-0.1-0.1-0.1-0.2-0.2c0.1-0.1,0.2-0.2,0.3-0.3c0.4-0.5,0.8-1.1,1-1.9c0-0.1,0-0.2,0-0.3
			c-0.1-0.1-0.1-0.1-0.2-0.1c0.1-0.1,0.2-0.2,0.3-0.4c0.4-0.5,0.7-1.2,0.8-2c0-0.1,0-0.2-0.1-0.3c-0.1-0.1-0.2-0.1-0.3-0.1
			c0.1-0.1,0.2-0.3,0.2-0.4C36.7,38.6,36.9,37.9,37,37.1 M36.7,34.7C36.7,34.7,36.7,34.7,36.7,34.7c0,0.5-0.1,1-0.3,1.5
			c-0.2,0.4-0.4,0.8-0.6,1.1c-0.3,0.4-0.6,0.6-0.8,0.6l0,0c0,0,0,0,0,0c-0.4-0.6-0.6-1.3-0.6-2.1c0-0.3,0-0.5,0.1-0.8c0,0,0,0,0,0
			c0,0,0,0,0,0c0.4,0.5,0.6,1.1,0.6,1.1c0,0.1,0.1,0.1,0.2,0.2c0.1,0,0.2,0,0.2-0.1C35.8,35.4,36.3,34.9,36.7,34.7
			C36.6,34.7,36.7,34.7,36.7,34.7 M36.6,31.9C36.6,31.9,36.6,31.9,36.6,31.9C36.6,31.9,36.6,31.9,36.6,31.9c0,0.5,0,1-0.1,1.5
			c-0.1,0.4-0.3,0.8-0.5,1.2c-0.3,0.4-0.6,0.6-0.7,0.7l0,0c0,0,0,0,0,0c-0.8-0.9-0.8-2.1-0.8-2.8c0,0,0,0,0,0c0,0,0,0,0,0
			c0.4,0.4,0.7,1,0.7,1c0,0.1,0.1,0.1,0.2,0.1c0.1,0,0.2-0.1,0.2-0.2C35.8,32.7,36.3,32.2,36.6,31.9 M36.3,29.1
			C36.3,29.1,36.3,29.1,36.3,29.1C36.3,29.1,36.3,29.1,36.3,29.1c0.1,0.5,0.1,1,0,1.5c-0.1,0.5-0.2,0.9-0.4,1.2
			c-0.2,0.4-0.5,0.7-0.6,0.8c0,0,0,0,0,0s0,0,0,0c-0.7-0.6-1-2-1-2.7c0,0,0,0,0,0c0,0,0,0,0,0c0.4,0.4,0.8,0.9,0.8,0.9
			c0,0.1,0.1,0.1,0.2,0.1c0.1,0,0.2-0.1,0.2-0.2C35.6,29.9,36,29.4,36.3,29.1 M35.9,26.4C35.9,26.4,35.9,26.4,35.9,26.4
			C35.9,26.4,35.9,26.4,35.9,26.4c0.1,0.5,0.1,1,0.1,1.5c0,0.5-0.2,0.9-0.4,1.3c-0.2,0.4-0.5,0.7-0.6,0.8c0,0,0,0,0,0s0,0,0,0
			c-0.6-0.5-0.9-1.3-1.1-1.9c-0.1-0.3-0.1-0.5-0.1-0.8c0,0,0,0,0,0c0,0,0,0,0,0c0.5,0.4,0.8,0.9,0.8,0.9c0.1,0.1,0.1,0.1,0.2,0.1
			c0.1,0,0.2-0.1,0.2-0.2C35.2,27.3,35.6,26.7,35.9,26.4 M14.3,26.6c0,0,0-0.1,0-0.1c0.4-1.8,1.1-3.1,1.6-3.8c0.4-0.5,0.8-0.9,1-1
			c0.1,0,0.1-0.1,0.2-0.1c0.2-0.2,0.2-0.4,0.1-0.6c-0.1-0.2-0.4-0.2-0.6-0.1c0,0-0.1,0.1-0.2,0.1c-0.4,0.3-0.6,0.2-0.7,0.2
			c-0.1-0.1-0.2-0.3-0.2-0.5c0.1-0.4,0.5-0.9,0.7-1.1c0,0,0,0,0,0c0.9-1.1,2.4-1.1,2.4-1.1c0,0,0,0,0.1,0c0,0,0.5,0,1,0.1
			c0.8,0.3,1.4,0.8,1.8,1.6c0.6,1.1,1,2.2,1.3,3.4c-0.8-0.3-1.5-0.8-1.5-0.8c-0.2-0.2-0.5-0.1-0.6,0.1c-0.1,0.1-0.1,0.2-0.1,0.3
			c0,0.1,0.1,0.2,0.2,0.3c0,0,1,0.8,2.3,1.1c0.1,0.4,0.2,0.8,0.2,1.3c-0.4-0.2-0.8-0.3-1.2-0.4c-0.3-0.1-0.5-0.1-0.7-0.2
			c-0.8-0.3-1.5-0.9-1.5-0.9c-0.2-0.2-0.5-0.1-0.6,0.1c-0.2,0.2-0.1,0.5,0.1,0.6c0,0,0.8,0.6,1.8,1c0.2,0.1,0.5,0.2,0.8,0.2
			c1.1,0.3,1.5,0.5,1.5,1c0,0.1-0.1,0.2-0.1,0.2c-0.3,0.4-1.1,0.4-1.3,0.4h0h-1c-0.2,0-1.2,0-2.1-0.6C16.6,25.8,15.6,26.1,14.3,26.6
			 M18.1,27.9h-3c-0.3,0-0.5-0.1-0.6-0.2c0,0-0.1-0.1-0.1-0.1C15.7,27,16.3,26.8,18.1,27.9 M19.3,33.3v-4.6h1.6h0c0,0,0,0,0,0h0.9
			c0,0,0.1,0,0.1,0c0.1,0,0.3,0,0.6,0c0.6-0.1,1-0.3,1.3-0.6c0.1-0.1,0.2-0.3,0.3-0.6c0,0,0,0,0-0.1c0.1-0.2,0.1-0.5,0-0.8l0-0.1
			c-0.3-1.8-0.6-4.1-2-6.8c-1.2-2.3-3.4-2.2-3.6-2.2c-0.2,0-1.9,0.1-3,1.4c-0.1,0.1-0.8,0.8-0.9,1.5c-0.1,0.6,0.1,1.1,0.6,1.3
			c0.1,0,0.1,0.1,0.2,0.1c-0.7,0.9-1.6,2.3-2,4.4c-0.1,0.4-0.1,0.7,0,1c0,0,0,0,0,0.1c0.1,0.3,0.2,0.6,0.3,0.8
			c0.2,0.2,0.6,0.5,1.3,0.5h3.3v4.6v2.8c-0.9,0-1.5,0.3-2.3,0.9c-1.2,0.8-5,1.5-11.5,2.3c-0.5-1.9-0.7-3.9-0.7-5.9
			c0-2.7,0.4-5.3,1.2-7.7c0.8-2.4,1.8-4.5,3.2-6.3c1.4-1.8,3-3.2,4.8-4.2c1.8-1,3.8-1.5,5.8-1.5s4,0.5,5.8,1.5
			c1.8,1,3.4,2.4,4.8,4.2c1.4,1.8,2.5,3.9,3.2,6.3c0.8,2.4,1.2,5,1.2,7.7c0,2.1-0.2,4.1-0.7,6c-4-0.2-8.6-1.7-8.8-1.7
			c-0.3-0.1-0.6-0.2-0.9-0.3c-1-0.4-1.7-0.6-2.5-0.6c0,0-0.1,0-0.1,0c-0.5-0.2-0.9-0.4-1.5-0.5V33.3z M25.5,12.6
			c-0.2,0.1-0.6,0.2-1,0.3C24.2,13,23.9,13,23.7,13c-0.6,0-1.1-0.1-1.5-0.4c0,0,0,0,0,0c0,0,0,0,0,0c0.2-0.1,0.5-0.2,0.9-0.3
			c0.4-0.1,0.8-0.1,1.2,0C24.7,12.2,25.1,12.4,25.5,12.6C25.5,12.6,25.5,12.6,25.5,12.6C25.5,12.6,25.5,12.6,25.5,12.6 M26.1,14.2
			C26.1,14.2,26.1,14.2,26.1,14.2C26.1,14.2,26.1,14.2,26.1,14.2c-0.2,0.1-0.4,0.2-0.8,0.2c0,0-0.1,0-0.1,0c-0.7,0-1.3-0.2-2-0.7
			c0,0,0,0,0,0c0,0,0,0,0,0c0.3-0.1,0.6-0.1,0.8-0.2C24.9,13.4,25.5,13.7,26.1,14.2 M22.9,11.7c-0.3,0.1-0.7,0.3-1.4,0.4
			c-0.1,0-0.2,0.1-0.2,0.2c0,0.1,0,0.2,0.1,0.2c0,0,0.5,0.4,0.9,0.9c0,0,0,0,0,0c0,0,0,0,0,0c-0.6,0-1.9-0.2-2.7-1.2c0,0,0,0,0,0
			c0.1-0.1,0.4-0.3,0.7-0.5C21.1,11.4,21.9,11.4,22.9,11.7C22.9,11.7,23,11.7,22.9,11.7C23,11.7,23,11.7,22.9,11.7 M20,11.3
			c-0.2,0.2-0.6,0.4-1.3,0.6c-0.1,0-0.2,0.1-0.2,0.2c0,0.1,0.1,0.2,0.2,0.2c0,0,0.6,0.2,1,0.6c0,0,0,0,0,0c0,0,0,0,0,0
			c-0.2,0-0.4,0-0.6,0c-0.7,0-1.6-0.1-2.3-0.7c0,0,0,0,0,0c0.1-0.2,0.3-0.4,0.6-0.6C18.1,11.3,19,11.2,20,11.3
			C20,11.2,20,11.2,20,11.3C20,11.3,20,11.3,20,11.3 M17.1,11.3c-0.2,0.2-0.5,0.6-1.2,0.9c-0.1,0-0.1,0.1-0.1,0.2
			c0,0.1,0.1,0.2,0.2,0.2c0,0,0.6,0.1,1.2,0.4c0,0,0,0,0,0c0,0,0,0,0,0c-0.3,0.1-0.5,0.1-0.8,0.2c-0.2,0-0.5,0.1-0.8,0.1
			c-0.4,0-0.9-0.1-1.4-0.3c0,0,0,0,0,0c0.1-0.2,0.2-0.4,0.5-0.7C15.1,11.8,16,11.4,17.1,11.3C17.1,11.3,17.1,11.3,17.1,11.3
			C17.1,11.3,17.1,11.3,17.1,11.3 M13.2,13.1c-0.1,0.1-0.1,0.2-0.1,0.3c0,0.1,0.1,0.1,0.2,0.1h0c0,0,0.3,0,0.6,0
			c0.2,0,0.4,0.1,0.6,0.1c0,0,0,0,0,0c0,0,0,0,0,0c-0.2,0.1-0.5,0.2-0.7,0.3c-0.5,0.2-1,0.3-1.4,0.3c-0.3,0-0.6,0-0.8-0.1
			c0,0,0,0,0,0c0.1-0.5,0.6-1.7,2.6-2.4c0,0,0,0,0,0c0,0,0,0,0,0C14.1,12.1,13.8,12.6,13.2,13.1 M34.4,25.5c0.1-0.8,0.3-1.4,0.6-1.8
			c0,0,0,0,0,0s0,0,0,0c0.2,0.5,0.3,1,0.3,1.5c0,0.5,0,0.9-0.2,1.3c-0.2,0.5-0.4,0.8-0.5,0.9c0,0,0,0,0,0s0,0,0,0
			c-0.6-0.4-1-0.9-1.3-1.7c-0.1-0.2-0.2-0.5-0.2-0.8c0,0,0,0,0,0c0,0,0,0,0,0c0.5,0.3,0.9,0.8,1,0.8c0.1,0.1,0.2,0.1,0.2,0.1
			C34.4,25.7,34.4,25.6,34.4,25.5 M33.5,22.9c0-0.8,0.2-1.4,0.4-1.8c0,0,0,0,0,0c0,0,0,0,0,0c0.2,0.5,0.4,1,0.4,1.4
			c0.1,0.5,0,0.9,0,1.3c-0.1,0.5-0.3,0.8-0.4,0.9c0,0,0,0,0,0l0,0c-0.6-0.3-1.1-0.8-1.5-1.6c-0.1-0.2-0.2-0.5-0.3-0.7c0,0,0,0,0,0
			c0,0,0,0,0,0c0.6,0.3,1,0.7,1,0.7c0.1,0.1,0.2,0.1,0.3,0C33.4,23.1,33.5,23,33.5,22.9 M32.2,20.8L32.2,20.8c0.1,0,0.1-0.1,0.1-0.2
			c-0.1-0.8,0-1.4,0.2-1.8c0,0,0,0,0,0c0,0,0,0,0,0c0.3,0.5,0.5,0.9,0.6,1.4c0.1,0.4,0.2,0.9,0.1,1.3c0,0.5-0.2,0.8-0.3,1
			c0,0,0,0,0,0l0,0c-0.7-0.2-1.3-0.7-1.7-1.4c-0.1-0.2-0.3-0.5-0.4-0.7c0,0,0,0,0,0c0,0,0,0,0,0c0.6,0.2,1.1,0.6,1.1,0.6
			C32,20.8,32.1,20.8,32.2,20.8 M30.5,18.5c0.1,0.1,0.2,0.1,0.3,0c0.1-0.1,0.1-0.2,0.1-0.3c-0.2-0.7-0.2-1.4-0.1-1.8c0,0,0,0,0,0
			c0,0,0,0,0,0c0.3,0.4,0.6,0.8,0.8,1.2c0.2,0.4,0.3,0.8,0.3,1.3c0,0.5-0.1,0.8-0.1,1c0,0,0,0,0,0l0,0c-0.7-0.1-1.3-0.5-1.9-1.1
			c-0.2-0.2-0.4-0.4-0.5-0.7c0,0,0,0,0,0c0,0,0,0,0,0C29.9,18.2,30.5,18.5,30.5,18.5 M28.7,16.6c0.1,0,0.2,0,0.3-0.1
			c0.1-0.1,0.1-0.2,0-0.3c-0.4-0.7-0.4-1.4-0.4-1.8c0,0,0,0,0,0c0,0,0,0,0,0c0.4,0.3,0.7,0.7,1,1.1c0.3,0.4,0.4,0.8,0.5,1.2
			c0.1,0.5,0.1,0.9,0.1,1c0,0,0,0,0,0c0,0,0,0,0,0c-0.8,0-1.5-0.4-2-0.8c-0.2-0.2-0.5-0.4-0.7-0.6c0,0,0,0,0,0c0,0,0,0,0,0
			c0,0,0.1,0,0.1,0C28.2,16.4,28.7,16.6,28.7,16.6 M28,14.8c0.2,0.5,0.2,0.9,0.2,1.1c0,0,0,0,0,0c0,0-0.1,0-0.1,0
			c-1,0-2.1-0.6-2.7-1c0,0,0,0,0,0c0,0,0,0,0,0c0.6-0.1,1.2,0,1.2,0c0.1,0,0.2,0,0.2-0.1s0-0.2,0-0.3c-0.4-0.5-0.6-1-0.7-1.4
			c0,0,0,0,0,0c0,0,0,0,0,0C27.1,13.4,27.7,14,28,14.8 M10.7,12c0,0,0.1,0,0.1,0c0.6-0.2,1.1-0.3,1.4-0.4c0.6-0.1,1.1-0.4,1.1-0.4
			c0.1,0,0.1-0.1,0.1-0.2c0-0.1-0.1-0.1-0.1-0.1l-2.8-0.4l2.8-0.4c0.1,0,0.1-0.1,0.1-0.2c0-0.1-0.1-0.1-0.1-0.2c0,0-0.6-0.1-1.2-0.4
			c-0.2-0.1-0.3-0.2-0.5-0.2C11.3,9,11,8.8,10.7,8.7c0,0,0.1,0,0.1,0c0.6,0,1.1,0.1,1.4,0.2c0.6,0.1,1.1,0,1.2,0
			c0.1,0,0.1-0.1,0.1-0.1c0-0.1,0-0.1-0.1-0.2l-2.4-1.4l2.7,0.7c0.1,0,0.2,0,0.2-0.1c0-0.1,0-0.2-0.1-0.2c0,0-0.5-0.3-1-0.8
			c-0.1-0.1-0.2-0.3-0.4-0.4C12.4,6.2,12.3,6,12,5.8c0,0,0.1,0,0.1,0.1c0.5,0.3,1,0.5,1.2,0.7c0.5,0.3,1,0.5,1.1,0.5
			c0.1,0,0.1,0,0.2-0.1c0-0.1,0-0.1,0-0.2l-1.7-2.2l2.2,1.6c0.1,0,0.2,0,0.2,0c0.1-0.1,0.1-0.1,0-0.2c0-0.1-0.4-0.5-0.6-1.1
			c-0.1-0.2-0.1-0.4-0.2-0.5c-0.1-0.3-0.2-0.5-0.3-0.8c0,0,0.1,0.1,0.1,0.1c0.4,0.4,0.7,0.9,0.9,1.1c0.4,0.5,0.8,0.8,0.8,0.8
			c0.1,0,0.1,0,0.2,0c0.1,0,0.1-0.1,0.1-0.2l-0.7-2.7l1.4,2.4c0,0.1,0.1,0.1,0.2,0.1c0.1,0,0.1-0.1,0.1-0.2c0,0-0.1-0.6-0.1-1.3
			c0-0.2,0-0.4,0-0.5c0-0.3,0.1-0.5,0-0.9c0,0,0,0.1,0,0.1c0.2,0.6,0.3,1.1,0.4,1.4c0.1,0.6,0.4,1,0.4,1.1c0,0.1,0.1,0.1,0.2,0.1
			c0.1,0,0.1-0.1,0.1-0.1l0.4-2.7l0.4,2.7c0,0.1,0.1,0.1,0.2,0.1c0.1,0,0.1-0.1,0.2-0.1c0,0,0.1-0.6,0.4-1.2
			c0.1-0.2,0.2-0.3,0.2-0.5c0.1-0.2,0.3-0.5,0.4-0.8c0,0,0,0.1,0,0.1c0,0.6-0.1,1.1-0.2,1.4c-0.1,0.6,0,1.1,0,1.1
			c0,0.1,0.1,0.1,0.1,0.1c0.1,0,0.1,0,0.2-0.1l1.4-2.4l-0.7,2.7c0,0.1,0,0.2,0.1,0.2c0.1,0,0.2,0,0.2-0.1c0-0.1,0.3-0.5,0.8-1
			c0.1-0.1,0.3-0.2,0.4-0.4c0.2-0.2,0.4-0.3,0.6-0.6c0,0,0,0.1-0.1,0.1c-0.3,0.5-0.5,1-0.7,1.2c-0.3,0.5-0.5,1-0.5,1.1
			c0,0.1,0,0.1,0.1,0.2c0.1,0,0.1,0,0.2,0l2.2-1.7l-1.7,2.2c0,0.1,0,0.1,0,0.2C23.2,7,23.3,7,23.4,7c0,0,0.5-0.4,1.1-0.6
			c0.2-0.1,0.3-0.1,0.5-0.2c0.3-0.1,0.5-0.2,0.8-0.3c0,0-0.1,0.1-0.1,0.1c-0.4,0.4-0.9,0.7-1.1,0.9c-0.5,0.4-0.8,0.8-0.8,0.8
			c0,0.1,0,0.1,0,0.2c0,0.1,0.1,0.1,0.2,0.1l2.7-0.7l-2.4,1.4c-0.1,0-0.1,0.1-0.1,0.2c0,0.1,0.1,0.1,0.2,0.1c0.1,0,0.6-0.1,1.3-0.1
			c0.2,0,0.4,0,0.5,0c0.3,0,0.5,0.1,0.9,0c0,0-0.1,0-0.1,0c-0.6,0.2-1.1,0.3-1.4,0.4c-0.6,0.1-1.1,0.4-1.1,0.4
			c-0.1,0-0.1,0.1-0.1,0.2c0,0.1,0.1,0.1,0.1,0.1l2.7,0.4l-2.7,0.4c-0.1,0-0.1,0.1-0.1,0.2c0,0.1,0.1,0.1,0.1,0.2
			c0.1,0,0.6,0.1,1.2,0.4c0.2,0.1,0.3,0.2,0.5,0.2c0.2,0.1,0.5,0.3,0.8,0.4c0,0-0.1,0-0.1,0c-0.6,0-1.1-0.1-1.4-0.2l-0.1,0
			c-0.5-0.2-1-0.3-1.5-0.3c0,0,0,0,0,0c0-0.1-0.1-0.2-0.2-0.2c-0.7-0.3-1.4-0.4-2.1-0.4c-0.2,0-0.5,0-0.7,0c0,0,0-0.1,0-0.1
			c0-0.1-0.1-0.2-0.2-0.2c-0.8-0.1-1.5-0.1-2.1,0c-0.2,0-0.5,0.1-0.7,0.2c0-0.1,0-0.1-0.1-0.2c-0.1-0.1-0.2-0.1-0.3-0.1
			c-0.8,0.1-1.5,0.2-2.1,0.5c-0.2,0.1-0.3,0.1-0.4,0.2c0-0.1,0-0.2-0.1-0.2c-0.1-0.1-0.2-0.1-0.3-0.1c-0.8,0.2-1.4,0.5-2,0.9l0,0
			c-0.1,0-0.3,0-0.4,0c-0.1,0-0.5,0-0.5,0C11.3,12,11,11.9,10.7,12 M11.4,12.8C11.5,12.8,11.5,12.8,11.4,12.8
			C11.5,12.8,11.5,12.8,11.4,12.8c0,0.4-0.1,1.1-0.6,1.8c-0.1,0.1,0,0.2,0,0.3c0.1,0.1,0.1,0.1,0.2,0.1c0,0,0.6-0.1,1.2-0.1
			c0,0,0,0,0,0c0,0,0,0,0,0c-0.5,0.4-1.5,1.1-2.6,1.1c0,0-0.1,0-0.1,0c0,0,0,0,0,0C9.5,15.4,9.7,14,11.4,12.8 M7.7,16.7
			c0.1-0.4,0.3-0.8,0.5-1.2c0.3-0.4,0.6-0.8,1-1.1c0,0,0,0,0,0c0,0,0,0,0,0c0,0.4,0,1.1-0.4,1.8c0,0.1,0,0.2,0,0.3
			c0.1,0.1,0.2,0.1,0.3,0.1c0,0,0.6-0.2,1.2-0.2c0,0,0,0,0,0c0,0,0,0,0,0C10,16.6,9.8,16.8,9.6,17c-0.5,0.4-1.2,0.8-1.8,0.8
			c0,0-0.1,0-0.1,0c0,0,0,0,0,0C7.6,17.6,7.6,17.2,7.7,16.7 M7.1,16.4C7.1,16.4,7.1,16.4,7.1,16.4C7.1,16.4,7.1,16.4,7.1,16.4
			c0.1,0.4,0.2,1.1-0.1,1.9c0,0.1,0,0.2,0.1,0.3c0.1,0.1,0.2,0.1,0.3,0c0,0,0.5-0.3,1.2-0.4c0,0,0,0,0,0c0,0,0,0,0,0
			c-0.4,0.6-1.3,1.6-2.4,1.8h0c0,0,0,0,0,0C5.9,19.4,5.6,18.1,7.1,16.4 M4.6,20c0.1-0.4,0.4-0.9,0.6-1.3c0,0,0,0,0,0c0,0,0,0,0,0
			c0.1,0.4,0.3,1,0.1,1.9c0,0.1,0,0.2,0.1,0.2c0.1,0,0.2,0,0.3,0c0,0,0.5-0.5,1.1-0.5c0,0,0,0,0,0c0,0,0,0,0,0
			c-0.1,0.2-0.2,0.5-0.5,0.8c-0.5,0.7-1.1,1.1-1.8,1.3l0,0c0,0,0,0,0,0c-0.1-0.1-0.2-0.5-0.2-1C4.4,20.9,4.5,20.5,4.6,20 M3.3,22.5
			c0.1-0.5,0.2-0.9,0.4-1.4c0,0,0,0,0,0h0c0,0,0,0,0,0c0.2,0.4,0.4,1,0.4,1.8c0,0.1,0,0.2,0.1,0.2c0.1,0,0.2,0,0.3,0
			c0,0,0.5-0.4,1.1-0.7c0,0,0,0,0,0c0,0,0,0,0,0c-0.1,0.2-0.1,0.5-0.2,0.7c-0.4,0.7-0.9,1.3-1.7,1.6l0,0c0,0,0,0,0,0
			c-0.1-0.1-0.3-0.5-0.4-0.9C3.3,23.4,3.3,23,3.3,22.5 M2.6,23.7C2.6,23.7,2.6,23.7,2.6,23.7C2.6,23.7,2.6,23.7,2.6,23.7
			c0.3,0.3,0.6,0.9,0.6,1.8c0,0.1,0.1,0.2,0.2,0.2c0.1,0,0.2,0,0.2-0.1c0,0,0.4-0.5,1-0.8c0,0,0,0,0,0c0,0,0,0,0,0
			c0,0.2-0.1,0.5-0.2,0.7c-0.3,0.8-0.7,1.4-1.4,1.8c0,0,0,0,0,0c0,0,0,0,0,0c-0.1-0.1-0.3-0.4-0.5-0.9c-0.1-0.4-0.2-0.8-0.2-1.3
			C2.4,24.7,2.5,24.2,2.6,23.7 M1.8,26.4C1.8,26.4,1.8,26.4,1.8,26.4C1.8,26.4,1.8,26.4,1.8,26.4c0.3,0.3,0.7,0.9,0.8,1.7
			c0,0.1,0.1,0.2,0.2,0.2c0.1,0,0.2,0,0.2-0.1c0,0,0.4-0.5,0.9-0.9c0,0,0,0,0,0c0,0,0,0,0,0c0,0.2,0,0.5-0.1,0.7
			c-0.2,0.8-0.6,1.4-1.1,2c0,0,0,0,0,0c0,0,0,0,0,0c-0.1-0.1-0.4-0.4-0.6-0.8c-0.2-0.4-0.3-0.8-0.4-1.3C1.7,27.4,1.7,26.9,1.8,26.4
			 M1.4,29.1C1.4,29.1,1.4,29.1,1.4,29.1C1.4,29.1,1.4,29.1,1.4,29.1c0.3,0.3,0.7,0.8,0.9,1.6c0,0.1,0.1,0.2,0.2,0.2
			c0.1,0,0.2,0,0.2-0.1c0,0,0.3-0.5,0.7-0.9c0,0,0,0,0,0s0,0,0,0c0,0.3,0,0.5-0.1,0.8c-0.1,0.8-0.5,1.5-1,1.9c0,0,0,0,0,0s0,0,0,0
			c-0.1-0.1-0.4-0.4-0.6-0.8c-0.2-0.4-0.3-0.8-0.4-1.2C1.3,30.1,1.3,29.6,1.4,29.1 M1.2,32C1.2,32,1.2,32,1.2,32
			C1.2,31.9,1.2,31.9,1.2,32c0.1,0,0.1,0.1,0.2,0.2c0.3,0.3,0.6,0.7,0.8,1.4c0,0.1,0.1,0.2,0.2,0.2c0.1,0,0.2-0.1,0.2-0.2
			c0,0,0.1-0.6,0.6-1c0,0,0,0,0,0c0,0,0,0,0,0c0.1,0.3,0.1,0.8,0,1.3c-0.1,0.6-0.4,1.2-0.8,1.6c0,0,0,0,0,0s0,0,0,0
			C2,35.1,1,34.1,1.2,32 M1.1,34.7C1.1,34.7,1.1,34.7,1.1,34.7c0.1,0,0.1,0.1,0.2,0.2c0.3,0.2,0.7,0.7,1,1.3c0,0.1,0.1,0.1,0.2,0.1
			h0c0.1,0,0.2-0.1,0.2-0.1c0,0,0.3-0.6,0.7-1.1c0,0,0,0,0,0c0,0,0,0,0,0c0.1,0.6,0.2,1.7-0.7,2.9c0,0,0,0,0,0l0,0
			C2.2,37.8,1.1,36.9,1.1,34.7C1.1,34.7,1.1,34.7,1.1,34.7 M1.2,37.6C1.2,37.6,1.2,37.6,1.2,37.6C1.2,37.6,1.2,37.6,1.2,37.6
			c0.4,0.2,1,0.5,1.4,1.2c0.1,0.1,0.1,0.1,0.2,0.1C3,38.9,3,38.9,3,38.8l0,0l0,0c0,0,0.2-0.7,0.5-1.2c0,0,0,0,0,0s0,0,0,0
			c0.1,0.2,0.2,0.5,0.3,0.7c0.2,0.8,0,1.5-0.4,2.3c0,0,0,0,0,0l0,0c-0.1,0-0.5-0.2-0.9-0.5c-0.3-0.3-0.6-0.6-0.8-1
			C1.5,38.6,1.3,38.1,1.2,37.6 M1.9,40.3C1.9,40.3,1.9,40.3,1.9,40.3C1.9,40.3,1.9,40.3,1.9,40.3c0.1,0,0.2,0,0.2,0.1
			c0.3,0.2,0.8,0.5,1.3,1c0.1,0.1,0.2,0.1,0.2,0.1c0.1,0,0.2-0.1,0.2-0.2c0,0,0.1-0.6,0.4-1.2c0,0,0,0,0,0h0c0,0,0,0,0,0
			c0.3,0.6,0.6,1.8,0.1,3c0,0,0,0,0,0l0,0C3.8,42.9,2.5,42.4,1.9,40.3 M3.5,44.2c-0.3-0.4-0.5-0.8-0.8-1.3c0,0,0,0,0,0c0,0,0,0,0,0
			C2.8,43,2.9,43,3,43c0.4,0.1,0.9,0.4,1.4,0.9C4.4,44,4.5,44,4.6,44c0.1,0,0.1-0.1,0.1-0.2c0,0,0-0.6,0.2-1.2c0,0,0,0,0,0
			c0,0,0,0,0,0c0.1,0.2,0.2,0.5,0.3,0.7c0.3,0.8,0.3,1.5,0.1,2.2c0,0,0,0,0,0l0,0c-0.1,0-0.5-0.1-0.9-0.4
			C4.1,44.9,3.8,44.6,3.5,44.2 M3.9,45.5C3.9,45.5,3.9,45.5,3.9,45.5C3.9,45.5,3.9,45.5,3.9,45.5c0.4,0,1.1,0.2,1.7,0.8
			c0.1,0.1,0.2,0.1,0.3,0c0.1,0,0.1-0.1,0.1-0.2c0,0-0.1-0.6,0.1-1.2c0,0,0,0,0,0c0,0,0,0,0,0c0.2,0.2,0.3,0.5,0.4,0.7
			c0.3,0.5,0.5,1.3,0.4,2.1c0,0,0,0,0,0h0c-0.2,0-0.5-0.1-1-0.2c-0.4-0.2-0.8-0.4-1.1-0.7C4.5,46.4,4.1,46,3.9,45.5 M9.2,50.1
			c0,0-0.2-0.6-0.3-1.2c0,0,0,0,0,0c0,0,0,0,0,0c0.5,0.4,1.4,1.4,1.4,2.6c0,0,0,0,0,0c-0.1,0-0.2,0-0.4,0c-0.2,0-0.3,0-0.6-0.1
			C8.6,51.4,7.8,51,7,50.2c0,0,0,0,0,0c0,0,0,0,0,0c0.4-0.1,1.1-0.1,1.9,0.2c0.1,0,0.2,0,0.3-0.1C9.2,50.3,9.3,50.2,9.2,50.1
			 M7.1,48.5c0.1,0.1,0.2,0,0.3,0c0.1-0.1,0.1-0.2,0.1-0.2c0,0-0.1-0.6-0.1-1.2c0,0,0,0,0,0s0,0,0,0c0.4,0.5,1.2,1.6,1.1,2.7
			c0,0,0,0,0,0c0,0-0.1,0-0.1,0c-0.2,0-0.5,0-0.9-0.1c-0.4-0.1-0.8-0.3-1.2-0.6c-0.4-0.3-0.7-0.6-1-1.1c0,0,0,0,0,0c0,0,0,0,0,0
			C5.8,47.9,6.4,48,7.1,48.5 M16.2,42.4c-0.1,0-0.1,0.1-0.2,0.1c-0.5,0.3-0.8,0.7-0.9,1.1c-0.1,0-0.1,0-0.2,0
			c-0.4-0.1-0.4-0.3-0.4-0.4c0-0.2,0.1-0.4,0.4-0.6c0.3-0.3,0.6-0.5,0.9-0.5c0.1,0,0.2,0,0.2,0.1C16.1,42.2,16.2,42.3,16.2,42.4
			C16.2,42.4,16.2,42.4,16.2,42.4 M16.7,44.3c-0.2,0-0.6,0.1-0.8-0.1c0,0-0.1-0.1-0.1-0.2c0-0.3,0.4-0.7,0.6-0.8
			c0.4-0.3,0.7-0.4,0.9-0.4c0.1,0,0.2,0,0.3,0.1c0.1,0.1,0.1,0.1,0.1,0.2c0,0.1-0.1,0.3-0.3,0.3C17.1,43.7,16.8,44,16.7,44.3
			 M18.6,44.4c-0.1,0.1-0.7,0.4-1,0.4c-0.1,0-0.1,0-0.2-0.1c0.2-0.3,0.5-0.6,0.9-0.8c0.4-0.3,0.6-0.1,0.6-0.1C19,43.9,19,43.9,19,44
			C19,44.1,18.8,44.3,18.6,44.4C18.7,44.4,18.7,44.4,18.6,44.4 M14.5,41.9c-0.1,0-0.1,0.1-0.2,0.2c-0.2,0.2-0.5,0.5-0.6,0.8
			c-0.1,0-0.1,0-0.2,0c-0.2,0-0.4-0.1-0.4-0.2c0,0-0.1-0.1,0.1-0.3c0.2-0.3,0.7-0.5,1-0.5c0,0,0.1,0,0.1,0c0,0,0,0,0,0
			C14.4,41.8,14.5,41.8,14.5,41.9 M24.5,42.3c-0.1,0.1-0.3,0.2-0.5,0.2c-0.3-0.4-1.2-1.5-2.2-2c-0.1,0-0.2-0.1-0.3,0
			c-0.1,0-0.2,0.1-0.2,0.2c0,0.1-0.1,0.2,0,0.3c0,0.1,0.1,0.2,0.2,0.2c0.9,0.4,1.7,1.3,1.9,1.7c0,0.1-0.1,0.1-0.1,0.2
			c-0.1,0.2-0.4,0.2-0.6,0.2c-0.1-0.2-0.3-0.5-0.5-0.7c-0.3-0.4-1-0.8-1-0.9c-0.1-0.1-0.2-0.1-0.3-0.1c-0.1,0-0.2,0.1-0.2,0.2
			c-0.1,0.1-0.1,0.2-0.1,0.3c0,0.1,0.1,0.2,0.2,0.2c0.2,0.1,0.7,0.5,0.9,0.7c0.3,0.3,0.4,0.5,0.4,0.6c0,0.1-0.1,0.2-0.2,0.2
			c-0.1,0.1-0.3,0.2-0.5,0.2c-0.1-0.2-0.3-0.6-0.7-1.1c-0.1-0.2-0.4-0.2-0.5,0c-0.1,0.1-0.1,0.2-0.1,0.3c0,0.1,0,0.2,0.1,0.3
			c0.3,0.3,0.4,0.6,0.5,0.8c-0.1,0-0.1,0.1-0.2,0.1c-0.2,0.1-0.4,0.1-0.6,0.1c0.1-0.1,0.2-0.3,0.2-0.5c0-0.2,0-0.5-0.3-0.9
			c-0.2-0.2-0.5-0.3-0.9-0.3c0-0.2-0.2-0.4-0.4-0.6c-0.4-0.3-0.8-0.4-1.2-0.2c-0.1-0.2-0.2-0.4-0.6-0.6c-0.3-0.2-0.7-0.2-1-0.1
			c-0.3-0.3-0.7-0.3-0.8-0.3c-0.5-0.1-1.2,0.2-1.6,0.6c-2.2,1.2-5.1,2.4-6.2,3C6,43.5,5.5,42.3,5.1,41c-0.1-0.3-0.2-0.7-0.3-1.1
			c3.3-0.4,5.9-0.7,7.8-1.1c2-0.4,3.3-0.8,3.9-1.2c0.8-0.5,1.3-0.8,2-0.7c0.2,0,0.3,0,0.5,0.1c-0.1,0.1-0.3,0.1-0.4,0.2
			c-0.3,0.2-0.5,0.4-0.7,0.5c-0.2,0.1-0.3,0.2-0.5,0.4c-0.1,0.1-0.3,0.2-0.5,0.3c-0.5,0.2-0.8,0.4-0.9,0.7c-0.1,0.3-0.1,0.6,0.2,0.9
			c0.3,0.5,0.9,0.5,1.4,0.4c0.5,0,1.1-0.2,1.6-0.5c0.2-0.1,0.3-0.2,0.4-0.3c0.2-0.1,0.4-0.2,0.5-0.3c0,0,0,0,0,0
			c0.4-0.1,0.8-0.1,1.4,0.1c0.5,0.2,0.9,0.5,1.4,0.7c1,0.7,1.8,1.5,2,1.8C24.6,42.1,24.6,42.2,24.5,42.3 M25.9,42
			c-0.3-0.2-0.6-0.5-0.7-0.6l0,0l0,0c0,0,0-0.1-0.1-0.1c-0.3-0.4-1.1-1.2-2-1.8c-0.7-0.5-2-1.3-3.3-1c-0.3,0.1-0.5,0.2-0.7,0.4
			c-0.1,0.1-0.2,0.2-0.4,0.2c-0.4,0.2-0.9,0.4-1.2,0.4c-0.4,0-0.6,0-0.7-0.1c-0.1-0.1-0.1-0.2-0.1-0.2c0.1-0.1,0.4-0.2,0.5-0.3
			c0.2-0.1,0.4-0.2,0.6-0.3c0.2-0.2,0.4-0.3,0.6-0.4c0.2-0.1,0.3-0.3,0.6-0.5c0.4-0.3,0.8-0.3,1.4-0.3h0c0.1,0,0.2,0,0.3,0
			c0.1,0,0.2,0,0.2,0c0.7,0,1.3,0.2,2.2,0.5c0.3,0.1,0.6,0.2,0.9,0.3c0.1,0,1.3,0.4,3,0.8c1.5,0.4,3.7,0.8,5.7,0.9
			c-0.1,0.3-0.2,0.7-0.3,1c-0.4,1.3-1,2.6-1.6,3.8C30,44.3,27.5,43.2,25.9,42 M30.7,50.2c-1,0.9-1.8,1.2-2.4,1.4
			c-0.2,0-0.4,0.1-0.6,0.1c-0.2,0-0.3,0-0.4,0c0,0,0,0,0,0c0-0.7,0.2-1.4,0.8-2c0.2-0.2,0.4-0.4,0.6-0.6c0,0,0,0,0,0c0,0,0,0,0,0
			c-0.1,0.6-0.3,1.1-0.3,1.2c0,0.1,0,0.2,0,0.3c0.1,0.1,0.2,0.1,0.3,0.1C29.6,50.1,30.2,50.1,30.7,50.2
			C30.7,50.2,30.7,50.2,30.7,50.2C30.7,50.2,30.7,50.2,30.7,50.2 M32.4,47.9c-0.3,0.4-0.7,0.8-1,1.1c-0.4,0.3-0.8,0.5-1.2,0.6
			c-0.4,0.1-0.7,0.1-0.9,0.1c0,0-0.1,0-0.1,0c0,0,0,0,0,0c0-0.7,0.2-1.4,0.6-2.1c0.1-0.2,0.3-0.4,0.5-0.6c0,0,0,0,0,0c0,0,0,0,0,0
			c0.1,0.6-0.1,1.2-0.1,1.2c0,0.1,0,0.2,0.1,0.2c0.1,0.1,0.2,0.1,0.3,0C31.3,48,32,47.9,32.4,47.9C32.4,47.9,32.4,47.9,32.4,47.9
			C32.4,47.9,32.4,47.9,32.4,47.9 M33,46.7c-0.3,0.3-0.7,0.6-1.1,0.7c-0.5,0.2-0.8,0.2-1,0.2c0,0,0,0,0,0c-0.1-0.7,0-1.4,0.4-2.1
			c0.1-0.2,0.3-0.5,0.4-0.7c0,0,0,0,0,0c0,0,0,0,0,0c0.1,0.6,0.1,1.2,0.1,1.2c0,0.1,0,0.2,0.1,0.2c0.1,0,0.2,0,0.3,0
			c0.6-0.5,1.3-0.7,1.7-0.8c0,0,0,0,0,0c0,0,0,0,0,0C33.6,46,33.3,46.4,33,46.7 M34.3,44.2c-0.3,0.4-0.6,0.7-1,0.9
			c-0.4,0.2-0.8,0.3-0.9,0.4h0c0,0,0,0,0,0c-0.2-0.7-0.2-1.4,0.1-2.2c0.1-0.2,0.2-0.5,0.3-0.7c0,0,0,0,0,0s0,0,0,0
			c0.2,0.6,0.2,1.2,0.2,1.2c0,0.1,0.1,0.2,0.2,0.2c0.1,0,0.2,0,0.2-0.1c0.5-0.6,1-0.8,1.4-0.9c0.1,0,0.2-0.1,0.2-0.1c0,0,0,0,0,0
			c0,0,0,0,0,0C34.8,43.4,34.6,43.8,34.3,44.2 M35.2,41.6c-0.3,0.4-0.6,0.7-0.9,1c-0.4,0.3-0.8,0.4-0.9,0.4h0c0,0,0,0,0,0
			c-0.3-0.8-0.2-1.6-0.1-2.2c0.1-0.3,0.1-0.5,0.2-0.8c0,0,0,0,0,0h0c0,0,0,0,0,0c0.2,0.6,0.3,1.2,0.3,1.2c0,0.1,0.1,0.2,0.2,0.2
			c0.1,0,0.2,0,0.2-0.1c0.5-0.6,1.1-1,1.5-1.1c0,0,0,0,0,0c0,0,0,0,0,0C35.7,40.8,35.5,41.2,35.2,41.6 M36,38.9
			c-0.2,0.4-0.5,0.8-0.8,1.1c-0.3,0.3-0.7,0.5-0.8,0.6l0,0c0,0,0,0,0,0c-0.4-0.6-0.5-1.4-0.4-2.2c0-0.3,0.1-0.5,0.2-0.8c0,0,0,0,0,0
			c0,0,0,0,0,0c0.3,0.5,0.5,1.2,0.5,1.2c0,0.1,0.1,0.2,0.2,0.2c0.1,0,0.2,0,0.2-0.1c0.4-0.7,1-1.1,1.4-1.3c0,0,0,0,0,0c0,0,0,0,0,0
			C36.3,38,36.2,38.5,36,38.9"/>
		<path class="st5" d="M23.8,11.6c0.5,0,1,0.1,1.5,0.3l0.1,0c0.3,0,0.8,0.1,1.4,0.2c0,0,0.1,0,0.1,0c-0.3-0.1-0.5-0.2-0.8-0.4
			c-0.2-0.1-0.3-0.2-0.5-0.2c-0.6-0.3-1.2-0.4-1.2-0.4c-0.1,0-0.1-0.1-0.1-0.2c0-0.1,0.1-0.1,0.1-0.2l2.7-0.4L24.5,10
			c-0.1,0-0.1-0.1-0.1-0.1c0-0.1,0-0.1,0.1-0.2c0,0,0.5-0.3,1.1-0.4c0.3-0.1,0.8-0.2,1.4-0.4c0,0,0.1,0,0.1,0c-0.3,0-0.6,0-0.9,0
			c-0.2,0-0.3,0-0.5,0c-0.6,0-1.2,0.1-1.3,0.1c-0.1,0-0.2,0-0.2-0.1c0-0.1,0-0.2,0.1-0.2l2.4-1.4l-2.7,0.7c-0.1,0-0.1,0-0.2-0.1
			c0-0.1,0-0.1,0-0.2c0,0,0.3-0.4,0.8-0.8c0.2-0.2,0.7-0.5,1.1-0.9c0,0,0.1-0.1,0.1-0.1C25.5,6,25.3,6.1,25,6.2
			c-0.2,0-0.3,0.1-0.5,0.2C23.8,6.6,23.4,7,23.4,7c-0.1,0-0.2,0-0.2,0c-0.1-0.1-0.1-0.1,0-0.2l1.7-2.2l-2.2,1.7c-0.1,0-0.1,0-0.2,0
			c-0.1,0-0.1-0.1-0.1-0.2c0,0,0.1-0.5,0.5-1.1c0.1-0.2,0.4-0.7,0.7-1.2c0,0,0-0.1,0.1-0.1c-0.2,0.2-0.4,0.4-0.6,0.6
			c-0.1,0.1-0.3,0.2-0.4,0.4c-0.5,0.4-0.8,0.9-0.8,1c0,0.1-0.1,0.1-0.2,0.1s-0.1-0.1-0.1-0.2l0.7-2.7l-1.4,2.4
			c0,0.1-0.1,0.1-0.2,0.1c-0.1,0-0.1-0.1-0.1-0.1c0,0-0.1-0.5,0-1.1c0-0.3,0.1-0.8,0.2-1.4c0,0,0-0.1,0-0.1
			c-0.1,0.3-0.2,0.5-0.4,0.8c-0.1,0.1-0.2,0.3-0.2,0.5c-0.3,0.6-0.4,1.2-0.4,1.2c0,0.1-0.1,0.1-0.2,0.1c-0.1,0-0.1-0.1-0.2-0.1
			l-0.4-2.7l-0.4,2.7c0,0.1-0.1,0.1-0.1,0.1c-0.1,0-0.1,0-0.2-0.1c0,0-0.3-0.5-0.4-1.1c-0.1-0.3-0.2-0.8-0.4-1.4c0,0,0-0.1,0-0.1
			c0,0.3,0,0.6,0,0.9c0,0.2,0,0.3,0,0.5c0,0.7,0.1,1.2,0.1,1.3c0,0.1,0,0.2-0.1,0.2c-0.1,0-0.2,0-0.2-0.1l-1.4-2.4l0.7,2.7
			c0,0.1,0,0.1-0.1,0.2c-0.1,0-0.1,0-0.2,0c0,0-0.4-0.3-0.8-0.8c-0.2-0.2-0.5-0.7-0.9-1.1c0,0-0.1-0.1-0.1-0.1
			c0.2,0.3,0.2,0.5,0.3,0.8c0,0.2,0.1,0.3,0.2,0.5c0.2,0.6,0.6,1.1,0.6,1.1c0,0.1,0,0.1,0,0.2c-0.1,0.1-0.1,0.1-0.2,0l-2.2-1.6
			l1.7,2.2c0,0.1,0,0.1,0,0.2C14.6,7,14.5,7,14.4,7c0,0-0.5-0.1-1.1-0.5c-0.2-0.1-0.7-0.4-1.2-0.7c0,0-0.1,0-0.1-0.1
			c0.2,0.2,0.4,0.4,0.6,0.6c0.1,0.1,0.2,0.3,0.4,0.4c0.5,0.5,1,0.8,1,0.8C14,7.7,14,7.7,14,7.8c0,0.1-0.1,0.1-0.2,0.1l-2.7-0.7
			l2.4,1.4c0.1,0,0.1,0.1,0.1,0.2c0,0.1-0.1,0.1-0.1,0.1c0,0-0.5,0.1-1.2,0c-0.3,0-0.8-0.1-1.4-0.2c0,0-0.1,0-0.1,0
			C11,8.8,11.3,9,11.5,9.1c0.1,0.1,0.3,0.2,0.5,0.2c0.6,0.3,1.2,0.4,1.2,0.4c0.1,0,0.1,0.1,0.1,0.2c0,0.1-0.1,0.1-0.1,0.2l-2.8,0.4
			l2.8,0.4c0.1,0,0.1,0.1,0.1,0.1c0,0.1,0,0.1-0.1,0.2c0,0-0.5,0.3-1.1,0.4c-0.3,0.1-0.8,0.2-1.4,0.4c0,0-0.1,0-0.1,0
			c0.3,0,0.6,0,0.9,0c0,0,0.4,0,0.5,0c0.1,0,0.3,0,0.4,0l0,0c0.5-0.4,1.2-0.7,2-0.9c0.1,0,0.2,0,0.3,0.1c0.1,0.1,0.1,0.1,0.1,0.2
			c0.1-0.1,0.3-0.2,0.4-0.2c0.6-0.3,1.3-0.4,2.1-0.5c0.1,0,0.2,0,0.3,0.1c0,0.1,0.1,0.1,0.1,0.2c0.2-0.1,0.5-0.2,0.7-0.2
			c0.6-0.1,1.3-0.1,2.1,0c0.1,0,0.2,0.1,0.2,0.2c0,0,0,0.1,0,0.1c0.2,0,0.4,0,0.7,0c0.6,0,1.3,0.1,2.1,0.4
			C23.7,11.4,23.8,11.5,23.8,11.6C23.8,11.6,23.8,11.6,23.8,11.6"/>
		<path class="st3" d="M19.8,8.1c2.7-0.4,3,0.3,3,0.3s0.1,0.2,0.3,0.1c0,0,0.2,0,0.1-0.2c0,0-0.3-0.9-1.7-1c0,0-0.7-0.1-1.5,0
			c-0.2,0-0.3,0.6-0.3,0.6C19.6,8.2,19.8,8.1,19.8,8.1"/>
		<path class="st3" d="M17.6,8.7c-0.3-0.1-1.1-0.1-1.1-0.1c-1.2,0-1.5,0.8-1.5,0.8c-0.1,0.2,0.1,0.3,0.1,0.3
			c0.3,0.1,0.3-0.1,0.3-0.1s0.1-0.2,0.6-0.3c0,0.1,0,0.1,0,0.2c0,0.3,0.3,0.6,0.6,0.6s0.6-0.3,0.6-0.6c0-0.1,0-0.2,0-0.2
			c0.2,0.1,0.3,0.2,0.4,0.4c0,0.1,0.1,0.1,0.4,0.1c0.2,0,0.2-0.2,0.2-0.2C18,8.8,17.6,8.7,17.6,8.7"/>
		<path class="st3" d="M19.8,9.6c0.2,0,0.3,0,0.4-0.1c0.1-0.2,0.3-0.3,0.4-0.4c0,0.1,0,0.2,0,0.2c0,0.3,0.3,0.6,0.6,0.6
			s0.6-0.3,0.6-0.6c0-0.1,0-0.2,0-0.2c0.5,0.1,0.6,0.3,0.6,0.3s0.1,0.2,0.3,0.1c0,0,0.2,0,0.1-0.3c0,0-0.3-0.7-1.5-0.8
			c0,0-0.7,0-1.1,0.1c0,0-0.4,0.2-0.5,0.8C19.6,9.5,19.5,9.6,19.8,9.6"/>
		<path class="st3" d="M14.6,8.6c0.2,0.1,0.3-0.1,0.3-0.1s0.3-0.8,3-0.3c0,0,0.2,0,0.2-0.2c0,0-0.1-0.5-0.3-0.6
			c-0.8-0.1-1.5,0-1.5,0c-1.4,0.1-1.7,1-1.7,1C14.4,8.6,14.6,8.6,14.6,8.6"/>
		<path class="st6" d="M30.7,50.2c-0.4-0.1-1.1-0.1-1.9,0.2c-0.1,0-0.2,0-0.3-0.1c-0.1-0.1-0.1-0.2,0-0.3c0,0,0.2-0.6,0.3-1.2
			c0,0,0,0,0,0c0,0,0,0,0,0c-0.2,0.2-0.4,0.4-0.6,0.6c-0.6,0.7-0.8,1.3-0.8,2c0,0,0,0,0,0c0.1,0,0.2,0,0.4,0c0.2,0,0.3,0,0.6-0.1
			C28.8,51.5,29.7,51.1,30.7,50.2C30.7,50.2,30.7,50.2,30.7,50.2C30.7,50.2,30.7,50.2,30.7,50.2"/>
		<path class="st6" d="M9,49C9,49,9,48.9,9,49C8.9,49,8.9,49,9,49c0,0.6,0.3,1.2,0.3,1.2c0,0.1,0,0.2,0,0.3S9,50.5,8.9,50.4
			c-0.8-0.3-1.4-0.3-1.9-0.2c0,0,0,0,0,0c0,0,0,0,0,0c0.8,0.7,1.6,1.2,2.4,1.4c0.2,0,0.4,0.1,0.6,0.1c0.2,0,0.3,0,0.4,0c0,0,0,0,0,0
			C10.4,50.3,9.5,49.4,9,49"/>
		<path class="st6" d="M32.4,47.9c-0.4,0-1.1,0.2-1.8,0.6c-0.1,0.1-0.2,0-0.3,0c-0.1-0.1-0.1-0.1-0.1-0.2c0,0,0.1-0.6,0.1-1.2
			c0,0,0,0,0,0c0,0,0,0,0,0c-0.2,0.2-0.3,0.4-0.5,0.6c-0.5,0.7-0.7,1.4-0.6,2.1c0,0,0,0,0,0c0,0,0.1,0,0.1,0c0.2,0,0.5,0,0.9-0.1
			c0.4-0.1,0.8-0.3,1.2-0.6C31.8,48.7,32.1,48.3,32.4,47.9C32.4,47.9,32.4,47.9,32.4,47.9C32.4,47.9,32.4,47.9,32.4,47.9"/>
		<path class="st6" d="M33.9,45.5c-0.4,0.1-1.1,0.3-1.7,0.8c-0.1,0.1-0.2,0.1-0.3,0c-0.1,0-0.1-0.1-0.1-0.2c0,0,0.1-0.6-0.1-1.2
			c0,0,0,0,0,0c0,0,0,0,0,0c-0.2,0.2-0.3,0.4-0.4,0.7c-0.4,0.7-0.5,1.5-0.4,2.1c0,0,0,0,0,0h0c0.1,0,0.5,0,1-0.2
			c0.4-0.2,0.8-0.4,1.1-0.7C33.3,46.4,33.6,46,33.9,45.5C33.9,45.5,33.9,45.5,33.9,45.5C33.9,45.5,33.9,45.5,33.9,45.5"/>
		<path class="st6" d="M35,42.9c-0.1,0-0.2,0-0.2,0.1c-0.3,0.1-0.9,0.4-1.4,0.9c-0.1,0.1-0.2,0.1-0.3,0.1c-0.1,0-0.1-0.1-0.2-0.2
			c0,0,0-0.6-0.2-1.2c0,0,0,0,0,0c0,0,0,0,0,0c-0.1,0.2-0.2,0.5-0.3,0.7c-0.3,0.8-0.3,1.5-0.1,2.2c0,0,0,0,0,0h0
			c0.2,0,0.5-0.1,0.9-0.4c0.4-0.2,0.7-0.5,1-0.9C34.6,43.8,34.8,43.4,35,42.9C35,42.9,35,42.9,35,42.9C35,42.9,35,42.9,35,42.9"/>
		<path class="st6" d="M35.8,40.3c-0.4,0.2-1,0.5-1.5,1.1c-0.1,0.1-0.2,0.1-0.2,0.1c-0.1,0-0.2-0.1-0.2-0.2c0,0-0.1-0.7-0.3-1.2
			c0,0,0,0,0,0h0c0,0,0,0,0,0c-0.1,0.3-0.2,0.5-0.2,0.8c-0.1,0.6-0.2,1.4,0.1,2.2c0,0,0,0,0,0h0c0.1,0,0.5-0.2,0.9-0.4
			c0.3-0.2,0.6-0.6,0.9-1C35.5,41.2,35.7,40.8,35.8,40.3C35.9,40.3,35.9,40.3,35.8,40.3C35.9,40.3,35.9,40.3,35.8,40.3"/>
		<path class="st6" d="M36.4,37.5c-0.4,0.2-0.9,0.6-1.4,1.3c0,0.1-0.1,0.1-0.2,0.1c-0.1,0-0.2-0.1-0.2-0.2c0,0-0.2-0.7-0.5-1.2
			c0,0,0,0,0,0c0,0,0,0,0,0C34,37.8,34,38,33.9,38.3c-0.1,0.8,0,1.6,0.4,2.2c0,0,0,0,0,0h0c0.2-0.1,0.5-0.2,0.8-0.6
			c0.3-0.3,0.6-0.6,0.8-1.1C36.2,38.5,36.3,38,36.4,37.5C36.4,37.5,36.4,37.5,36.4,37.5C36.4,37.5,36.4,37.5,36.4,37.5"/>
		<path class="st6" d="M35.4,36.1c0,0.1-0.1,0.1-0.2,0.1c-0.1,0-0.2-0.1-0.2-0.2c0,0-0.2-0.6-0.6-1.1c0,0,0,0,0,0c0,0,0,0,0,0
			c-0.1,0.3-0.1,0.5-0.1,0.8c0,0.8,0.2,1.5,0.6,2.1c0,0,0,0,0,0l0,0c0.1-0.1,0.5-0.3,0.8-0.6c0.3-0.3,0.5-0.7,0.6-1.1
			c0.2-0.4,0.3-0.9,0.3-1.5c0,0,0,0,0,0c0,0,0,0,0,0C36.3,34.9,35.8,35.4,35.4,36.1"/>
		<path class="st6" d="M35.3,33.6c-0.1,0-0.2,0-0.2-0.1c0,0-0.3-0.5-0.7-1c0,0,0,0,0,0c0,0,0,0,0,0c0,0.7,0,1.9,0.8,2.8c0,0,0,0,0,0
			l0,0c0.1-0.1,0.4-0.3,0.7-0.7c0.2-0.3,0.4-0.7,0.5-1.2c0.1-0.4,0.2-0.9,0.1-1.5c0,0,0,0,0,0c0,0,0,0,0,0c-0.3,0.3-0.8,0.8-1,1.5
			C35.5,33.5,35.4,33.6,35.3,33.6"/>
		<path class="st6" d="M35.2,30.9c-0.1,0-0.2,0-0.2-0.1c0,0-0.3-0.5-0.8-0.9c0,0,0,0,0,0c0,0,0,0,0,0c0.1,0.7,0.3,2.1,1,2.7
			c0,0,0,0,0,0s0,0,0,0c0.1-0.1,0.4-0.4,0.6-0.8c0.2-0.4,0.3-0.8,0.4-1.2c0.1-0.5,0.1-1,0-1.5c0,0,0,0,0,0s0,0,0,0
			c-0.3,0.3-0.7,0.8-0.9,1.6C35.4,30.8,35.3,30.9,35.2,30.9"/>
		<path class="st6" d="M34.9,28.3c-0.1,0-0.2,0-0.2-0.1c0,0-0.4-0.5-0.8-0.9c0,0,0,0,0,0c0,0,0,0,0,0c0,0.3,0.1,0.5,0.1,0.8
			c0.1,0.6,0.4,1.3,1.1,1.9c0,0,0,0,0,0s0,0,0,0c0.1-0.1,0.4-0.4,0.6-0.8c0.2-0.4,0.3-0.8,0.4-1.3c0-0.5,0-1-0.1-1.5c0,0,0,0,0,0
			c0,0,0,0,0,0c-0.3,0.3-0.6,0.9-0.8,1.7C35,28.2,34.9,28.3,34.9,28.3"/>
		<path class="st6" d="M34.3,25.7c-0.1,0-0.2,0-0.2-0.1c0,0-0.4-0.5-1-0.8c0,0,0,0,0,0c0,0,0,0,0,0c0.1,0.3,0.1,0.5,0.2,0.8
			c0.3,0.8,0.8,1.4,1.3,1.7c0,0,0,0,0,0c0,0,0,0,0,0c0.1-0.1,0.3-0.4,0.5-0.9c0.1-0.4,0.2-0.8,0.2-1.3c0-0.5-0.1-0.9-0.3-1.5
			c0,0,0,0,0,0c0,0,0,0,0,0c-0.2,0.4-0.5,1-0.6,1.8C34.4,25.6,34.4,25.7,34.3,25.7"/>
		<path class="st6" d="M33.1,23.1c0,0-0.5-0.4-1-0.7c0,0,0,0,0,0c0,0,0,0,0,0c0.1,0.3,0.2,0.5,0.3,0.7c0.4,0.7,0.9,1.3,1.5,1.6
			c0,0,0,0,0,0s0,0,0,0c0.1-0.1,0.3-0.4,0.4-0.9c0.1-0.4,0.1-0.8,0-1.3c-0.1-0.5-0.2-0.9-0.4-1.4c0,0,0,0,0,0c0,0,0,0,0,0
			c-0.2,0.4-0.4,1-0.4,1.8c0,0.1,0,0.2-0.1,0.2C33.3,23.2,33.2,23.2,33.1,23.1"/>
		<path class="st6" d="M30.8,20.2C30.8,20.2,30.8,20.2,30.8,20.2c0.1,0.3,0.2,0.5,0.4,0.7c0.5,0.7,1,1.2,1.7,1.4h0c0,0,0,0,0,0
			c0.1-0.1,0.2-0.5,0.3-1c0-0.4,0-0.8-0.1-1.3c-0.1-0.4-0.3-0.9-0.6-1.4c0,0,0,0,0,0c0,0,0,0,0,0c-0.1,0.4-0.3,1-0.2,1.8
			c0,0.1,0,0.2-0.1,0.2c-0.1,0-0.2,0-0.3,0C31.9,20.7,31.4,20.3,30.8,20.2C30.8,20.2,30.8,20.2,30.8,20.2"/>
		<path class="st6" d="M29.3,18.1C29.3,18.1,29.3,18.2,29.3,18.1c0.2,0.3,0.3,0.5,0.5,0.7c0.6,0.6,1.2,1,1.9,1.1h0c0,0,0,0,0,0
			c0.1-0.2,0.1-0.5,0.1-1c0-0.4-0.1-0.8-0.3-1.3c-0.2-0.4-0.5-0.8-0.8-1.2c0,0,0,0,0,0c0,0,0,0,0,0c-0.1,0.4-0.1,1.1,0.1,1.8
			c0,0.1,0,0.2-0.1,0.3c-0.1,0.1-0.2,0.1-0.3,0C30.5,18.5,29.9,18.2,29.3,18.1C29.3,18.1,29.3,18.1,29.3,18.1"/>
		<path class="st6" d="M29,16.5c-0.1,0.1-0.2,0.1-0.3,0.1c0,0-0.5-0.2-1.1-0.2c0,0-0.1,0-0.1,0c0,0,0,0,0,0c0,0,0,0,0,0
			c0.2,0.2,0.4,0.4,0.7,0.6c0.5,0.4,1.2,0.8,2,0.8h0c0,0,0,0,0,0c0-0.1,0-0.5-0.1-1c-0.1-0.4-0.3-0.8-0.5-1.2
			c-0.2-0.4-0.6-0.8-1-1.1c0,0,0,0,0,0c0,0,0,0,0,0c0,0.4,0.1,1.1,0.4,1.8C29.1,16.3,29,16.4,29,16.5"/>
		<path class="st6" d="M8.4,49.8c0,0,0.1,0,0.1,0c0,0,0,0,0,0c0.1-1.1-0.7-2.2-1.1-2.7c0,0,0,0,0,0c0,0,0,0,0,0
			c-0.1,0.6,0.1,1.2,0.1,1.2c0,0.1,0,0.2-0.1,0.2c-0.1,0.1-0.2,0.1-0.3,0c-0.7-0.4-1.4-0.6-1.8-0.6c0,0,0,0,0,0c0,0,0,0,0,0
			c0.3,0.4,0.7,0.8,1,1.1c0.4,0.3,0.8,0.5,1.2,0.6C7.9,49.7,8.2,49.8,8.4,49.8"/>
		<path class="st6" d="M6.9,47.7L6.9,47.7C6.9,47.7,6.9,47.7,6.9,47.7c0.2-0.8-0.1-1.6-0.4-2.1c-0.1-0.2-0.3-0.5-0.4-0.7
			c0,0,0,0,0,0c0,0,0,0,0,0C5.9,45.5,6,46,6,46.1c0,0.1,0,0.2-0.1,0.2c-0.1,0-0.2,0-0.3,0c-0.7-0.5-1.3-0.7-1.7-0.8c0,0,0,0,0,0
			c0,0,0,0,0,0c0.3,0.5,0.6,0.9,0.9,1.2c0.3,0.3,0.7,0.6,1.1,0.7C6.3,47.6,6.7,47.7,6.9,47.7"/>
		<path class="st6" d="M5.4,45.5L5.4,45.5C5.4,45.5,5.4,45.5,5.4,45.5c0.2-0.7,0.2-1.4-0.1-2.2C5.2,43,5.1,42.8,5,42.6c0,0,0,0,0,0
			c0,0,0,0,0,0c-0.2,0.6-0.2,1.2-0.2,1.2c0,0.1-0.1,0.2-0.1,0.2c-0.1,0-0.2,0-0.2-0.1c-0.5-0.5-1-0.8-1.4-0.9C2.9,43,2.8,43,2.7,43
			c0,0,0,0,0,0c0,0,0,0,0,0c0.2,0.5,0.5,0.9,0.8,1.3c0.3,0.4,0.6,0.7,1,0.9C4.9,45.4,5.3,45.4,5.4,45.5"/>
		<path class="st6" d="M4.3,43.1L4.3,43.1C4.3,43.1,4.3,43.1,4.3,43.1c0.6-1.2,0.2-2.4-0.1-3c0,0,0,0,0,0h0c0,0,0,0,0,0
			c-0.3,0.6-0.4,1.2-0.4,1.2c0,0.1-0.1,0.2-0.2,0.2c-0.1,0-0.2,0-0.2-0.1c-0.4-0.6-0.9-0.9-1.3-1c-0.1,0-0.1-0.1-0.2-0.1
			c0,0,0,0,0,0c0,0,0,0,0,0C2.5,42.4,3.7,42.9,4.3,43.1"/>
		<path class="st6" d="M2.5,40c0.4,0.3,0.7,0.5,0.9,0.5l0,0c0,0,0,0,0,0c0.4-0.7,0.6-1.5,0.4-2.3c-0.1-0.3-0.1-0.5-0.3-0.7
			c0,0,0,0,0,0s0,0,0,0c-0.3,0.5-0.5,1.2-0.5,1.2l0,0l0,0c0,0.1-0.1,0.2-0.2,0.2c-0.1,0-0.2,0-0.2-0.1c-0.5-0.7-1-1.1-1.4-1.2
			c0,0,0,0,0,0c0,0,0,0,0,0c0.1,0.5,0.3,1,0.5,1.4C1.9,39.4,2.2,39.8,2.5,40"/>
		<path class="st6" d="M2.7,38L2.7,38C2.7,38,2.7,38,2.7,38c0.9-1.2,0.8-2.3,0.7-2.9c0,0,0,0,0,0c0,0,0,0,0,0
			c-0.4,0.5-0.7,1.1-0.7,1.1c0,0.1-0.1,0.1-0.2,0.1h0c-0.1,0-0.2-0.1-0.2-0.1c-0.3-0.6-0.7-1.1-1-1.3c-0.1-0.1-0.1-0.1-0.2-0.2
			c0,0,0,0,0,0c0,0,0,0,0,0C1.1,36.9,2.2,37.8,2.7,38"/>
		<path class="st6" d="M2.4,35.4C2.4,35.4,2.5,35.4,2.4,35.4C2.5,35.4,2.5,35.4,2.4,35.4c0.4-0.4,0.7-0.9,0.8-1.6c0.1-0.5,0-1,0-1.3
			c0,0,0,0,0,0c0,0,0,0,0,0c-0.5,0.4-0.6,1-0.6,1c0,0.1-0.1,0.2-0.2,0.2c-0.1,0-0.2-0.1-0.2-0.2c-0.2-0.7-0.6-1.1-0.8-1.4
			C1.3,32.1,1.3,32,1.2,32c0,0,0,0,0,0c0,0,0,0,0,0C1,34.1,2,35.1,2.4,35.4"/>
		<path class="st6" d="M1.8,31.8c0.2,0.4,0.5,0.7,0.6,0.8c0,0,0,0,0,0s0,0,0,0c0.5-0.5,0.8-1.1,1-1.9c0-0.3,0.1-0.5,0.1-0.8
			c0,0,0,0,0,0c0,0,0,0,0,0c-0.5,0.4-0.7,0.9-0.7,0.9c0,0.1-0.1,0.1-0.2,0.1c-0.1,0-0.2-0.1-0.2-0.2c-0.2-0.8-0.6-1.3-0.9-1.6
			c0,0,0,0,0,0c0,0,0,0,0,0c-0.1,0.5-0.1,1,0,1.5C1.5,31.1,1.6,31.5,1.8,31.8"/>
		<path class="st6" d="M2.1,29.1c0.2,0.4,0.5,0.7,0.6,0.8c0,0,0,0,0,0s0,0,0,0c0.6-0.5,1-1.2,1.1-2c0.1-0.2,0.1-0.5,0.1-0.7
			c0,0,0,0,0,0c0,0,0,0,0,0c-0.5,0.4-0.8,0.9-0.9,0.9c-0.1,0.1-0.1,0.1-0.2,0.1c-0.1,0-0.2-0.1-0.2-0.2c-0.2-0.8-0.5-1.4-0.8-1.7
			c0,0,0,0,0,0c0,0,0,0,0,0c-0.1,0.5-0.1,1-0.1,1.5C1.8,28.3,1.9,28.8,2.1,29.1"/>
		<path class="st6" d="M3,27.3C3,27.3,3.1,27.3,3,27.3C3.1,27.3,3.1,27.3,3,27.3c0.7-0.4,1.2-1,1.5-1.8c0.1-0.2,0.1-0.5,0.2-0.7
			c0,0,0,0,0,0c0,0,0,0,0,0c-0.6,0.3-1,0.8-1,0.8c-0.1,0.1-0.2,0.1-0.2,0.1c-0.1,0-0.2-0.1-0.2-0.2c-0.1-0.8-0.4-1.4-0.6-1.8
			c0,0,0,0,0,0c0,0,0,0,0,0c-0.2,0.5-0.2,1-0.3,1.5c0,0.5,0.1,0.9,0.2,1.3C2.7,26.9,3,27.2,3,27.3"/>
		<path class="st6" d="M3.7,24.7C3.7,24.7,3.7,24.8,3.7,24.7L3.7,24.7c0.8-0.4,1.3-0.9,1.7-1.6c0.1-0.2,0.2-0.4,0.3-0.7c0,0,0,0,0,0
			c0,0,0,0,0,0c-0.6,0.2-1.1,0.7-1.1,0.7c-0.1,0.1-0.2,0.1-0.3,0c-0.1,0-0.1-0.1-0.1-0.2c0-0.8-0.2-1.4-0.4-1.8c0,0,0,0,0,0h0
			c0,0,0,0,0,0c-0.2,0.5-0.4,1-0.4,1.4c-0.1,0.5-0.1,0.9,0,1.3C3.4,24.3,3.6,24.6,3.7,24.7"/>
		<path class="st6" d="M4.7,22.3C4.7,22.3,4.7,22.3,4.7,22.3L4.7,22.3C5.4,22.1,6,21.7,6.5,21c0.2-0.3,0.4-0.6,0.5-0.8c0,0,0,0,0,0
			c0,0,0,0,0,0c-0.7,0.1-1.1,0.5-1.1,0.5c-0.1,0.1-0.2,0.1-0.3,0c-0.1,0-0.1-0.1-0.1-0.2c0.2-0.8,0-1.5-0.1-1.9c0,0,0,0,0,0s0,0,0,0
			C5,19.1,4.8,19.6,4.6,20c-0.1,0.4-0.2,0.9-0.2,1.3C4.5,21.8,4.6,22.2,4.7,22.3"/>
		<path class="st6" d="M6.1,19.9L6.1,19.9c1.1-0.2,2-1.2,2.4-1.8c0,0,0,0,0,0c0,0,0,0,0,0c-0.7,0.1-1.2,0.4-1.2,0.4
			c-0.1,0.1-0.2,0.1-0.3,0c-0.1-0.1-0.1-0.2-0.1-0.3c0.3-0.8,0.2-1.4,0.1-1.8c0,0,0,0,0,0c0,0,0,0,0,0C5.6,18.1,5.9,19.4,6.1,19.9
			C6,19.9,6,19.9,6.1,19.9"/>
		<path class="st6" d="M7.6,17.8C7.7,17.8,7.7,17.8,7.6,17.8c0.7,0,1.4-0.4,1.9-0.8c0.2-0.2,0.5-0.4,0.7-0.6c0,0,0,0,0,0
			c0,0,0,0,0,0c-0.6,0-1.2,0.2-1.2,0.2c-0.1,0-0.2,0-0.3-0.1c-0.1-0.1-0.1-0.2,0-0.3c0.4-0.7,0.4-1.4,0.4-1.8c0,0,0,0,0,0
			c0,0,0,0,0,0c-0.4,0.4-0.7,0.7-1,1.1c-0.3,0.4-0.4,0.8-0.5,1.2C7.6,17.2,7.6,17.6,7.6,17.8C7.6,17.8,7.6,17.8,7.6,17.8"/>
		<path class="st6" d="M12.3,14.8c-0.6,0-1.2,0.1-1.2,0.1c-0.1,0-0.2,0-0.2-0.1c-0.1-0.1-0.1-0.2,0-0.3c0.5-0.7,0.6-1.3,0.6-1.8
			c0,0,0,0,0,0c0,0,0,0,0,0c-1.8,1.3-1.9,2.6-1.9,3.1c0,0,0,0,0,0c0,0,0.1,0,0.1,0C10.8,15.9,11.8,15.2,12.3,14.8
			C12.3,14.8,12.3,14.8,12.3,14.8C12.3,14.8,12.3,14.8,12.3,14.8"/>
		<path class="st6" d="M14.6,13.7c-0.2-0.1-0.4-0.1-0.6-0.1c-0.3,0-0.6,0-0.6,0h0c-0.1,0-0.2-0.1-0.2-0.1c0-0.1,0-0.2,0.1-0.3
			c0.6-0.5,0.9-1,1-1.3c0,0,0,0,0,0c0,0,0,0,0,0c-2.1,0.7-2.5,1.9-2.6,2.4c0,0,0,0,0,0c0.2,0.1,0.5,0.1,0.8,0.1
			c0.4,0,0.9-0.1,1.4-0.3C14.1,14,14.4,13.9,14.6,13.7C14.6,13.7,14.6,13.7,14.6,13.7C14.6,13.7,14.6,13.7,14.6,13.7"/>
		<path class="st6" d="M17.1,13c-0.5-0.3-1.2-0.4-1.2-0.4c-0.1,0-0.2-0.1-0.2-0.2c0-0.1,0-0.2,0.1-0.2c0.7-0.3,1-0.7,1.2-0.9
			c0,0,0,0,0,0c0,0,0,0,0,0c-1.1,0.1-1.9,0.5-2.4,1c-0.3,0.3-0.4,0.5-0.5,0.7c0,0,0,0,0,0c0.5,0.2,1,0.3,1.4,0.3
			c0.3,0,0.6,0,0.8-0.1C16.6,13.2,16.8,13.2,17.1,13C17.1,13.1,17.1,13.1,17.1,13C17.1,13.1,17.1,13,17.1,13"/>
		<path class="st6" d="M18.7,12.3c-0.1,0-0.2-0.1-0.2-0.2c0-0.1,0.1-0.2,0.2-0.2c0.7-0.2,1.1-0.5,1.3-0.6c0,0,0,0,0,0c0,0,0,0,0,0
			c-1.1-0.1-1.9,0.1-2.6,0.5c-0.3,0.2-0.5,0.4-0.6,0.6c0,0,0,0,0,0c0.7,0.5,1.6,0.7,2.3,0.7c0.2,0,0.4,0,0.6,0c0,0,0,0,0,0
			c0,0,0,0,0,0C19.3,12.6,18.7,12.3,18.7,12.3"/>
		<path class="st6" d="M21.4,12.5c-0.1-0.1-0.1-0.2-0.1-0.2c0-0.1,0.1-0.2,0.2-0.2c0.7-0.1,1.1-0.2,1.4-0.4c0,0,0,0,0,0c0,0,0,0,0,0
			c-1-0.3-1.9-0.3-2.6,0c-0.4,0.1-0.6,0.3-0.7,0.5c0,0,0,0,0,0c0.9,1,2.1,1.2,2.7,1.2c0,0,0,0,0,0c0,0,0,0,0,0
			C22,12.9,21.4,12.5,21.4,12.5"/>
		<path class="st6" d="M28.2,15.9C28.2,15.9,28.2,15.9,28.2,15.9c0-0.2,0-0.7-0.2-1.1c-0.3-0.8-0.9-1.4-1.9-1.7c0,0,0,0,0,0
			c0,0,0,0,0,0c0.1,0.4,0.4,0.9,0.7,1.4c0.1,0.1,0.1,0.2,0,0.3c-0.1,0.1-0.2,0.1-0.2,0.1c0,0-0.6-0.1-1.2,0c0,0,0,0,0,0c0,0,0,0,0,0
			c0.6,0.4,1.7,1,2.7,1C28.1,15.9,28.2,15.9,28.2,15.9"/>
		<path class="st6" d="M26.1,14.2C26.1,14.2,26.1,14.2,26.1,14.2c-0.5-0.6-1.2-0.8-2-0.8c-0.3,0-0.6,0.1-0.8,0.2c0,0,0,0,0,0
			c0,0,0,0,0,0c0.6,0.5,1.3,0.7,2,0.7c0,0,0.1,0,0.1,0C25.6,14.4,25.9,14.3,26.1,14.2C26.1,14.2,26.1,14.2,26.1,14.2"/>
		<path class="st6" d="M22.2,12.6C22.2,12.6,22.2,12.6,22.2,12.6c0.4,0.3,0.9,0.4,1.5,0.4c0.2,0,0.5,0,0.8-0.1
			c0.4-0.1,0.8-0.2,1-0.3c0,0,0,0,0,0c0,0,0,0,0,0c-0.4-0.2-0.8-0.3-1.2-0.4c-0.4-0.1-0.8-0.1-1.2,0C22.7,12.3,22.4,12.4,22.2,12.6
			C22.2,12.6,22.2,12.6,22.2,12.6"/>
		<path class="st7" d="M14.5,27.6c0.1,0.2,0.3,0.2,0.6,0.2h3c-1.8-1.1-2.5-0.9-3.7-0.3C14.4,27.6,14.4,27.6,14.5,27.6"/>
		<path class="st7" d="M21.8,26.3c-0.3-0.1-0.6-0.1-0.8-0.2c-0.9-0.4-1.7-1-1.8-1c-0.2-0.1-0.2-0.4-0.1-0.6c0.2-0.2,0.4-0.2,0.6-0.1
			c0,0,0.7,0.6,1.5,0.9c0.2,0.1,0.4,0.1,0.7,0.2c0.4,0.1,0.8,0.2,1.2,0.4c-0.1-0.5-0.2-0.9-0.2-1.3c-1.2-0.3-2.2-1.1-2.3-1.1
			c-0.1-0.1-0.1-0.2-0.2-0.3c0-0.1,0-0.2,0.1-0.3c0.2-0.2,0.4-0.2,0.6-0.1c0,0,0.7,0.5,1.5,0.8c-0.3-1.2-0.8-2.3-1.3-3.4
			c-0.4-0.8-1-1.3-1.8-1.6c-0.6-0.2-1-0.1-1-0.1c0,0,0,0,0,0c0,0-1.5,0-2.4,1.1c0,0,0,0,0,0c-0.2,0.2-0.6,0.7-0.7,1.1
			c0,0.2,0,0.4,0.2,0.5c0.1,0,0.3,0.1,0.7-0.2c0.1-0.1,0.2-0.1,0.2-0.1c0.2-0.1,0.5-0.1,0.6,0.1c0.1,0.2,0.1,0.4-0.1,0.6
			c-0.1,0-0.1,0.1-0.2,0.1c-0.2,0.2-0.6,0.5-1,1c-0.5,0.7-1.3,2-1.6,3.8c0,0,0,0.1,0,0.1c1.3-0.5,2.3-0.8,4.5,0.7
			c0.9,0.6,1.9,0.6,2.1,0.6h1l0,0c0.3,0,1,0,1.3-0.4c0.1-0.1,0.1-0.1,0.1-0.2C23.4,26.8,22.9,26.5,21.8,26.3"/>
		<path class="st8" d="M17.5,43.4c0.1-0.1,0.2-0.2,0.3-0.3c0-0.1,0-0.1-0.1-0.2c-0.1-0.1-0.2-0.1-0.3-0.1c-0.2,0-0.5,0.2-0.9,0.4
			c-0.3,0.2-0.7,0.5-0.6,0.8c0,0.1,0.1,0.2,0.1,0.2c0.2,0.1,0.6,0.1,0.8,0.1C16.8,44,17.1,43.7,17.5,43.4"/>
		<path class="st8" d="M19,44c0,0,0-0.1-0.1-0.2c0,0-0.2-0.1-0.6,0.1c-0.3,0.2-0.7,0.4-0.9,0.8c0.1,0.1,0.2,0.1,0.2,0.1
			c0.4,0.1,0.9-0.2,1-0.4c0,0,0,0,0,0C18.8,44.3,19,44.1,19,44"/>
		<path class="st8" d="M14.3,41.8C14.3,41.8,14.3,41.8,14.3,41.8c-0.4,0-0.9,0.2-1.1,0.5c-0.1,0.2-0.1,0.3-0.1,0.3
			c0,0.1,0.2,0.1,0.4,0.2c0.1,0,0.1,0,0.2,0c0.1-0.4,0.3-0.6,0.6-0.8c0.1-0.1,0.1-0.1,0.2-0.2C14.5,41.8,14.4,41.8,14.3,41.8
			C14.4,41.8,14.4,41.8,14.3,41.8"/>
		<path class="st8" d="M14.5,43.2c0,0.1,0,0.3,0.4,0.4c0.1,0,0.1,0,0.2,0c0.1-0.4,0.4-0.7,0.9-1.1c0.1,0,0.1-0.1,0.2-0.1
			c0,0,0-0.1,0-0.1c0-0.1-0.1-0.1-0.2-0.2c-0.1,0-0.2-0.1-0.2-0.1c-0.2,0-0.5,0.2-0.9,0.5C14.6,42.9,14.5,43,14.5,43.2"/>
		<path class="st8" d="M24,42.5c0.2,0,0.4-0.1,0.5-0.2c0.1-0.1,0.2-0.2,0.2-0.4c-0.2-0.3-1-1.2-2-1.8c-0.4-0.3-0.9-0.6-1.4-0.7
			c-0.5-0.2-1-0.2-1.4-0.1c0,0,0,0,0,0c-0.1,0-0.3,0.1-0.5,0.3c-0.1,0.1-0.3,0.2-0.4,0.3c-0.5,0.3-1.1,0.4-1.6,0.5
			c-0.5,0-1,0.1-1.4-0.4c-0.2-0.3-0.3-0.6-0.2-0.9c0.1-0.3,0.5-0.5,0.9-0.7c0.2-0.1,0.4-0.2,0.5-0.3c0.2-0.1,0.3-0.2,0.5-0.4
			c0.2-0.1,0.4-0.3,0.7-0.5c0.1-0.1,0.3-0.2,0.4-0.2c-0.1,0-0.3,0-0.5-0.1c-0.7-0.1-1.2,0.2-2,0.7c-0.7,0.4-1.9,0.8-3.9,1.2
			c-1.9,0.4-4.5,0.8-7.8,1.1C4.9,40.3,5,40.6,5.1,41c0.4,1.3,0.9,2.5,1.5,3.6c1.2-0.5,4-1.8,6.2-3c0.4-0.4,1.1-0.7,1.6-0.6
			c0.1,0,0.5,0.1,0.8,0.3c0.4-0.1,0.7-0.1,1,0.1c0.4,0.2,0.5,0.4,0.6,0.6c0.5-0.1,0.9-0.1,1.2,0.3c0.2,0.2,0.3,0.4,0.4,0.6
			c0.4-0.1,0.8,0.1,0.9,0.3c0.3,0.3,0.4,0.6,0.3,0.8c0,0.2-0.1,0.3-0.2,0.5c0.2,0,0.4,0,0.6-0.1c0.1,0,0.1-0.1,0.2-0.1
			c-0.1-0.2-0.3-0.5-0.5-0.8c-0.1-0.1-0.1-0.2-0.1-0.3c0-0.1,0.1-0.2,0.1-0.3c0.2-0.1,0.4-0.1,0.5,0c0.4,0.4,0.6,0.8,0.7,1.1
			c0.2,0,0.4,0,0.5-0.2c0.1-0.1,0.1-0.2,0.2-0.2c0-0.1-0.1-0.3-0.4-0.6c-0.2-0.3-0.7-0.6-0.9-0.7c-0.1-0.1-0.1-0.1-0.2-0.3
			c0-0.1,0-0.2,0.1-0.3c0.1-0.1,0.1-0.1,0.2-0.2c0.1,0,0.2,0,0.3,0.1c0,0,0.7,0.5,1,0.9c0.2,0.3,0.4,0.5,0.5,0.7
			c0.3,0,0.5-0.1,0.6-0.2c0-0.1,0.1-0.1,0.1-0.2c-0.3-0.4-1-1.3-1.9-1.7c-0.1,0-0.2-0.1-0.2-0.2c0-0.1,0-0.2,0-0.3
			c0-0.1,0.1-0.2,0.2-0.2c0.1,0,0.2,0,0.3,0C22.8,41.1,23.6,42.1,24,42.5"/>
		<path class="st8" d="M19,38.9c0.3-0.2,0.5-0.3,0.7-0.4c1.3-0.3,2.6,0.5,3.3,1c1,0.6,1.7,1.4,2,1.8c0,0,0,0,0.1,0.1l0,0l0,0
			c0.1,0.1,0.3,0.4,0.7,0.6c1.6,1.2,4.1,2.3,5.2,2.7c0.6-1.2,1.2-2.4,1.6-3.8c0.1-0.3,0.2-0.6,0.3-1c-2.1-0.1-4.3-0.6-5.7-0.9
			c-1.7-0.4-3-0.8-3-0.8c-0.3-0.1-0.7-0.2-0.9-0.3c-0.9-0.3-1.6-0.6-2.2-0.5c-0.1,0-0.2,0-0.2,0c-0.1,0-0.2,0-0.3,0h0
			c-0.6,0-1.1,0-1.4,0.3c-0.3,0.2-0.5,0.3-0.6,0.5c-0.2,0.1-0.3,0.3-0.6,0.4c-0.2,0.1-0.4,0.2-0.6,0.3c-0.2,0.1-0.5,0.2-0.5,0.3
			c0,0,0,0.1,0.1,0.2c0.1,0.1,0.3,0.1,0.7,0.1c0.3,0,0.8-0.1,1.2-0.4C18.8,39.1,18.9,39,19,38.9"/>
	</g>
</g>
</svg>
